<?xml version="1.0" encoding="utf-8" standalone="no"?>
<!DOCTYPE svg PUBLIC "-//W3C//DTD SVG 1.1//EN"
  "http://www.w3.org/Graphics/SVG/1.1/DTD/svg11.dtd">
<svg xmlns:xlink="http://www.w3.org/1999/xlink" width="928.764375pt" height="388.347938pt" viewBox="0 0 928.764375 388.347938" xmlns="http://www.w3.org/2000/svg" version="1.1">
 <metadata>
  <rdf:RDF xmlns:dc="http://purl.org/dc/elements/1.1/" xmlns:cc="http://creativecommons.org/ns#" xmlns:rdf="http://www.w3.org/1999/02/22-rdf-syntax-ns#">
   <cc:Work>
    <dc:type rdf:resource="http://purl.org/dc/dcmitype/StillImage"/>
    <dc:date>2026-04-25T17:03:41.648364</dc:date>
    <dc:format>image/svg+xml</dc:format>
    <dc:creator>
     <cc:Agent>
      <dc:title>Matplotlib v3.9.4, https://matplotlib.org/</dc:title>
     </cc:Agent>
    </dc:creator>
   </cc:Work>
  </rdf:RDF>
 </metadata>
 <defs>
  <style type="text/css">*{stroke-linejoin: round; stroke-linecap: butt}</style>
 </defs>
 <g id="figure_1">
  <g id="patch_1">
   <path d="M 0 388.347938 
L 928.764375 388.347938 
L 928.764375 -0 
L 0 -0 
z
" style="fill: #ffffff"/>
  </g>
  <g id="axes_1">
   <g id="patch_2">
    <path d="M 44.403125 354.8745 
L 459.777375 354.8745 
L 459.777375 23.7625 
L 44.403125 23.7625 
z
" style="fill: #ffffff"/>
   </g>
   <g id="patch_3">
    <path d="M 63.283773 354.8745 
L 141.027616 354.8745 
L 141.027616 116.442326 
L 63.283773 116.442326 
z
" clip-path="url(#p283c0a45e3)" style="fill: #e15759; stroke: #ffffff; stroke-width: 0.5; stroke-linejoin: miter"/>
   </g>
   <g id="patch_4">
    <path d="M 285.40904 354.8745 
L 363.152884 354.8745 
L 363.152884 61.162389 
L 285.40904 61.162389 
z
" clip-path="url(#p283c0a45e3)" style="fill: #e15759; stroke: #ffffff; stroke-width: 0.5; stroke-linejoin: miter"/>
   </g>
   <g id="patch_5">
    <path d="M 141.027616 354.8745 
L 218.77146 354.8745 
L 218.77146 75.920524 
L 141.027616 75.920524 
z
" clip-path="url(#p283c0a45e3)" style="fill: #4e79a7; stroke: #ffffff; stroke-width: 0.5; stroke-linejoin: miter"/>
   </g>
   <g id="patch_6">
    <path d="M 363.152884 354.8745 
L 440.896727 354.8745 
L 440.896727 46.908806 
L 363.152884 46.908806 
z
" clip-path="url(#p283c0a45e3)" style="fill: #4e79a7; stroke: #ffffff; stroke-width: 0.5; stroke-linejoin: miter"/>
   </g>
   <g id="matplotlib.axis_1">
    <g id="xtick_1">
     <g id="line2d_1">
      <defs>
       <path id="mafb32a24b7" d="M 0 0 
L 0 3.5 
" style="stroke: #333333; stroke-width: 0.8"/>
      </defs>
      <g>
       <use xlink:href="#mafb32a24b7" x="141.027616" y="354.8745" style="fill: #333333; stroke: #333333; stroke-width: 0.8"/>
      </g>
     </g>
     <g id="text_1">
      <!-- Top-1 -->
      <g style="fill: #333333" transform="translate(128.527616 368.827625) scale(0.1 -0.1)">
       <defs>
        <path id="SimHei-54" d="M 2850 3925 
L 1850 3925 
L 1850 125 
L 1275 125 
L 1275 3925 
L 275 3925 
L 275 4400 
L 2850 4400 
L 2850 3925 
z
" transform="scale(0.015625)"/>
        <path id="SimHei-6f" d="M 2925 1525 
Q 2925 875 2525 475 
Q 2125 75 1575 75 
Q 1025 75 625 475 
Q 225 875 225 1525 
Q 225 2175 625 2575 
Q 1025 2975 1575 2975 
Q 2125 2975 2525 2575 
Q 2925 2175 2925 1525 
z
M 2375 1525 
Q 2375 2025 2125 2275 
Q 1875 2525 1575 2525 
Q 1275 2525 1025 2275 
Q 775 2025 775 1525 
Q 775 1025 1025 775 
Q 1275 525 1575 525 
Q 1875 525 2125 775 
Q 2375 1025 2375 1525 
z
" transform="scale(0.015625)"/>
        <path id="SimHei-70" d="M 2825 1525 
Q 2825 800 2475 425 
Q 2125 50 1625 50 
Q 1350 50 1150 162 
Q 950 275 800 500 
L 800 -800 
L 300 -800 
L 300 2925 
L 800 2925 
L 800 2550 
Q 950 2775 1150 2875 
Q 1350 2975 1625 2975 
Q 2125 2975 2475 2612 
Q 2825 2250 2825 1525 
z
M 2275 1525 
Q 2275 2000 2087 2262 
Q 1900 2525 1525 2525 
Q 1225 2525 1012 2262 
Q 800 2000 800 1525 
Q 800 1050 1012 775 
Q 1225 500 1525 500 
Q 1900 500 2087 775 
Q 2275 1050 2275 1525 
z
" transform="scale(0.015625)"/>
        <path id="SimHei-2d" d="M 2975 2125 
L 125 2125 
L 125 2525 
L 2975 2525 
L 2975 2125 
z
" transform="scale(0.015625)"/>
        <path id="SimHei-31" d="M 1400 3600 
Q 1075 3275 575 2975 
L 575 3450 
Q 1200 3875 1600 4450 
L 1900 4450 
L 1900 150 
L 1400 150 
L 1400 3600 
z
" transform="scale(0.015625)"/>
       </defs>
       <use xlink:href="#SimHei-54"/>
       <use xlink:href="#SimHei-6f" x="50"/>
       <use xlink:href="#SimHei-70" x="100"/>
       <use xlink:href="#SimHei-2d" x="150"/>
       <use xlink:href="#SimHei-31" x="200"/>
      </g>
      <!-- 准确率 (%) -->
      <g style="fill: #333333" transform="translate(116.027616 379.78075) scale(0.1 -0.1)">
       <defs>
        <path id="SimHei-51c6" d="M 1600 2775 
Q 1900 3050 2275 3787 
Q 2650 4525 2800 5175 
Q 3075 5050 3400 4950 
Q 3250 4775 3000 4100 
L 4825 4100 
Q 5400 4100 5875 4125 
L 5875 3675 
Q 5375 3700 4825 3700 
L 4525 3700 
L 4525 2850 
Q 5250 2850 5700 2875 
L 5700 2425 
Q 5250 2450 4525 2450 
L 4525 1600 
Q 5275 1600 5700 1625 
L 5700 1200 
Q 5275 1225 4525 1225 
L 4525 375 
Q 5575 375 6050 400 
L 6050 -100 
Q 5575 -75 4975 -75 
L 2950 -75 
L 2950 -600 
L 2425 -600 
Q 2450 -150 2450 675 
L 2450 3050 
Q 2300 2775 2075 2400 
Q 1875 2650 1600 2775 
z
M 1675 2050 
Q 1425 1425 1200 850 
Q 975 275 775 -125 
Q 550 50 275 200 
Q 550 650 775 1112 
Q 1000 1575 1225 2300 
Q 1400 2125 1675 2050 
z
M 4025 1600 
L 4025 2450 
L 2950 2450 
L 2950 1600 
L 4025 1600 
z
M 4025 2850 
L 4025 3700 
L 2950 3700 
L 2950 2850 
L 4025 2850 
z
M 4025 375 
L 4025 1225 
L 2950 1225 
L 2950 375 
L 4025 375 
z
M 725 4775 
Q 850 4625 1162 4312 
Q 1475 4000 1750 3700 
Q 1525 3475 1375 3300 
Q 1100 3700 350 4450 
Q 550 4600 725 4775 
z
M 4150 5225 
Q 4600 4800 4800 4500 
Q 4625 4400 4400 4200 
Q 4225 4500 3775 4925 
Q 3925 5000 4150 5225 
z
" transform="scale(0.015625)"/>
        <path id="SimHei-786e" d="M 4975 -200 
Q 5250 -175 5362 -125 
Q 5475 -75 5475 125 
L 5475 975 
L 4625 975 
L 4625 -400 
L 4200 -400 
L 4200 975 
L 3500 975 
Q 3475 625 3325 237 
Q 3175 -150 2800 -600 
Q 2625 -350 2325 -325 
Q 2650 -50 2812 262 
Q 2975 575 3025 1000 
Q 3075 1425 3087 2187 
Q 3100 2950 3075 3425 
L 4250 3425 
Q 4475 3825 4650 4225 
L 3625 4225 
Q 3325 3875 2850 3250 
Q 2650 3425 2425 3500 
Q 2875 3975 3175 4425 
Q 3475 4875 3625 5300 
Q 3900 5175 4200 5100 
Q 4075 5025 3825 4575 
L 5350 4575 
Q 4900 3775 4750 3425 
L 5950 3425 
Q 5925 2975 5925 2450 
L 5925 -50 
Q 5950 -350 5775 -462 
Q 5600 -575 5175 -675 
Q 5150 -425 4975 -200 
z
M 200 1975 
Q 550 2300 850 2837 
Q 1150 3375 1300 4225 
Q 825 4225 525 4200 
L 525 4650 
Q 875 4625 1200 4625 
L 1900 4625 
Q 2325 4625 2625 4650 
L 2625 4200 
Q 2325 4225 1800 4225 
Q 1650 3525 1400 2925 
L 2525 2925 
Q 2500 2500 2500 2125 
L 2500 1075 
Q 2500 650 2525 125 
L 2075 125 
L 2075 600 
L 1350 600 
L 1350 -300 
L 900 -300 
Q 925 225 925 600 
L 925 2100 
Q 800 1900 625 1625 
Q 475 1825 200 1975 
z
M 2075 975 
L 2075 2575 
L 1350 2575 
L 1350 975 
L 2075 975 
z
M 5475 2350 
L 5475 3075 
L 4625 3075 
L 4625 2350 
L 5475 2350 
z
M 5475 1325 
L 5475 2000 
L 4625 2000 
L 4625 1325 
L 5475 1325 
z
M 4200 2350 
L 4200 3075 
L 3500 3075 
L 3500 2350 
L 4200 2350 
z
M 4200 1325 
L 4200 2000 
L 3500 2000 
L 3500 1325 
L 4200 1325 
z
" transform="scale(0.015625)"/>
        <path id="SimHei-7387" d="M 3325 5150 
Q 3425 4900 3550 4525 
L 4800 4525 
Q 5250 4525 5800 4550 
L 5800 4125 
Q 5250 4175 4775 4175 
L 2800 4175 
Q 2975 4050 3300 3900 
Q 3075 3750 2875 3537 
Q 2675 3325 2475 3125 
L 3275 3125 
Q 3575 3425 3775 3775 
Q 4000 3600 4275 3425 
Q 3950 3250 3600 2875 
Q 3250 2500 2625 2000 
L 3850 2100 
Q 3725 2250 3600 2425 
Q 3750 2475 4000 2650 
Q 4250 2350 4700 1700 
Q 4475 1625 4225 1450 
Q 4175 1600 4025 1775 
Q 3700 1750 3425 1750 
L 3425 1050 
L 5150 1050 
Q 5675 1050 6100 1075 
L 6100 650 
Q 5700 675 5125 675 
L 3425 675 
L 3425 175 
Q 3425 -300 3450 -625 
L 2900 -625 
Q 2925 -300 2925 175 
L 2925 675 
L 1325 675 
Q 825 675 325 650 
L 325 1075 
Q 825 1050 1350 1050 
L 2925 1050 
L 2925 1700 
Q 2700 1675 2475 1637 
Q 2250 1600 2025 1525 
Q 1950 1775 1850 2000 
Q 2075 2025 2325 2200 
Q 2575 2375 2975 2800 
Q 2300 2725 2025 2625 
Q 1975 2875 1850 3175 
Q 2075 3175 2325 3487 
Q 2575 3800 2750 4175 
L 1700 4175 
Q 1150 4175 650 4125 
L 650 4550 
Q 1150 4525 1550 4525 
L 2975 4525 
Q 2900 4825 2800 5025 
Q 3025 5075 3325 5150 
z
M 1625 2575 
Q 1725 2400 1825 2200 
Q 1575 2050 1325 1862 
Q 1075 1675 800 1425 
Q 625 1675 475 1875 
Q 800 2025 1100 2212 
Q 1400 2400 1625 2575 
z
M 4850 2650 
Q 5125 2475 5337 2337 
Q 5550 2200 5875 1950 
Q 5675 1800 5500 1600 
Q 5300 1775 5062 1975 
Q 4825 2175 4575 2325 
Q 4725 2475 4850 2650 
z
M 5725 3525 
Q 5550 3450 5300 3262 
Q 5050 3075 4800 2825 
Q 4625 3050 4475 3175 
Q 4700 3325 4875 3487 
Q 5050 3650 5300 3925 
Q 5525 3700 5725 3525 
z
M 1050 3850 
Q 1425 3600 1775 3275 
Q 1575 3100 1425 2925 
Q 1075 3300 675 3525 
Q 875 3700 1050 3850 
z
" transform="scale(0.015625)"/>
        <path id="SimHei-20" transform="scale(0.015625)"/>
        <path id="SimHei-28" d="M 2975 -200 
L 2700 -475 
Q 2075 125 1762 775 
Q 1450 1425 1450 2250 
Q 1450 3075 1762 3725 
Q 2075 4375 2700 5000 
L 2975 4725 
Q 2400 4175 2112 3587 
Q 1825 3000 1825 2250 
Q 1825 1500 2112 912 
Q 2400 325 2975 -200 
z
" transform="scale(0.015625)"/>
        <path id="SimHei-25" d="M 1400 3325 
Q 1400 2600 1187 2400 
Q 975 2200 775 2200 
Q 575 2200 362 2400 
Q 150 2600 150 3325 
Q 150 4050 362 4250 
Q 575 4450 775 4450 
Q 975 4450 1187 4250 
Q 1400 4050 1400 3325 
z
M 2625 4375 
L 700 75 
L 500 150 
L 2425 4450 
L 2625 4375 
z
M 2975 1200 
Q 2975 475 2762 275 
Q 2550 75 2350 75 
Q 2150 75 1937 275 
Q 1725 475 1725 1200 
Q 1725 1925 1937 2125 
Q 2150 2325 2350 2325 
Q 2550 2325 2762 2125 
Q 2975 1925 2975 1200 
z
M 1000 3325 
Q 1000 3775 950 3925 
Q 900 4075 775 4075 
Q 650 4075 600 3925 
Q 550 3775 550 3325 
Q 550 2875 600 2725 
Q 650 2575 775 2575 
Q 900 2575 950 2725 
Q 1000 2875 1000 3325 
z
M 2575 1200 
Q 2575 1650 2525 1800 
Q 2475 1950 2350 1950 
Q 2225 1950 2175 1800 
Q 2125 1650 2125 1200 
Q 2125 750 2175 600 
Q 2225 450 2350 450 
Q 2475 450 2525 600 
Q 2575 750 2575 1200 
z
" transform="scale(0.015625)"/>
        <path id="SimHei-29" d="M 1675 2250 
Q 1675 1425 1362 775 
Q 1050 125 425 -475 
L 150 -200 
Q 725 325 1012 912 
Q 1300 1500 1300 2250 
Q 1300 3000 1012 3587 
Q 725 4175 150 4725 
L 425 5000 
Q 1050 4375 1362 3725 
Q 1675 3075 1675 2250 
z
" transform="scale(0.015625)"/>
       </defs>
       <use xlink:href="#SimHei-51c6"/>
       <use xlink:href="#SimHei-786e" x="100"/>
       <use xlink:href="#SimHei-7387" x="200"/>
       <use xlink:href="#SimHei-20" x="300"/>
       <use xlink:href="#SimHei-28" x="350"/>
       <use xlink:href="#SimHei-25" x="400"/>
       <use xlink:href="#SimHei-29" x="450"/>
      </g>
     </g>
    </g>
    <g id="xtick_2">
     <g id="line2d_2">
      <g>
       <use xlink:href="#mafb32a24b7" x="363.152884" y="354.8745" style="fill: #333333; stroke: #333333; stroke-width: 0.8"/>
      </g>
     </g>
     <g id="text_2">
      <!-- Top-5 -->
      <g style="fill: #333333" transform="translate(350.652884 368.7495) scale(0.1 -0.1)">
       <defs>
        <path id="SimHei-35" d="M 550 1325 
Q 725 650 1150 575 
Q 1575 500 1837 662 
Q 2100 825 2212 1087 
Q 2325 1350 2312 1675 
Q 2300 2000 2137 2225 
Q 1975 2450 1725 2525 
Q 1475 2600 1162 2525 
Q 850 2450 650 2175 
L 225 2225 
Q 275 2375 700 4375 
L 2675 4375 
L 2675 3925 
L 1075 3925 
Q 950 3250 825 2850 
Q 1200 3025 1525 3012 
Q 1850 3000 2150 2862 
Q 2450 2725 2587 2487 
Q 2725 2250 2787 2012 
Q 2850 1775 2837 1500 
Q 2825 1225 2725 937 
Q 2625 650 2425 462 
Q 2225 275 1937 162 
Q 1650 50 1275 75 
Q 900 100 562 350 
Q 225 600 100 1200 
L 550 1325 
z
" transform="scale(0.015625)"/>
       </defs>
       <use xlink:href="#SimHei-54"/>
       <use xlink:href="#SimHei-6f" x="50"/>
       <use xlink:href="#SimHei-70" x="100"/>
       <use xlink:href="#SimHei-2d" x="150"/>
       <use xlink:href="#SimHei-35" x="200"/>
      </g>
      <!-- 准确率 (%) -->
      <g style="fill: #333333" transform="translate(338.152884 379.702625) scale(0.1 -0.1)">
       <use xlink:href="#SimHei-51c6"/>
       <use xlink:href="#SimHei-786e" x="100"/>
       <use xlink:href="#SimHei-7387" x="200"/>
       <use xlink:href="#SimHei-20" x="300"/>
       <use xlink:href="#SimHei-28" x="350"/>
       <use xlink:href="#SimHei-25" x="400"/>
       <use xlink:href="#SimHei-29" x="450"/>
      </g>
     </g>
    </g>
   </g>
   <g id="matplotlib.axis_2">
    <g id="ytick_1">
     <g id="line2d_3">
      <path d="M 44.403125 354.8745 
L 459.777375 354.8745 
" clip-path="url(#p283c0a45e3)" style="fill: none; stroke: #e0e0e0; stroke-opacity: 0.4; stroke-width: 0.8; stroke-linecap: square"/>
     </g>
     <g id="line2d_4">
      <defs>
       <path id="m44c1628776" d="M 0 0 
L -3.5 0 
" style="stroke: #333333; stroke-width: 0.8"/>
      </defs>
      <g>
       <use xlink:href="#m44c1628776" x="44.403125" y="354.8745" style="fill: #333333; stroke: #333333; stroke-width: 0.8"/>
      </g>
     </g>
     <g id="text_3">
      <!-- 0 -->
      <g style="fill: #333333" transform="translate(32.403125 358.312) scale(0.1 -0.1)">
       <defs>
        <path id="SimHei-30" d="M 225 2537 
Q 250 3200 412 3587 
Q 575 3975 875 4225 
Q 1175 4475 1612 4475 
Q 2050 4475 2375 4112 
Q 2700 3750 2800 3200 
Q 2900 2650 2862 1937 
Q 2825 1225 2612 775 
Q 2400 325 1975 150 
Q 1550 -25 1125 187 
Q 700 400 525 750 
Q 350 1100 275 1487 
Q 200 1875 225 2537 
z
M 750 2687 
Q 675 2000 800 1462 
Q 925 925 1212 700 
Q 1500 475 1800 612 
Q 2100 750 2237 1162 
Q 2375 1575 2375 2062 
Q 2375 2550 2337 2950 
Q 2300 3350 2112 3675 
Q 1925 4000 1612 4012 
Q 1300 4025 1062 3700 
Q 825 3375 750 2687 
z
" transform="scale(0.015625)"/>
       </defs>
       <use xlink:href="#SimHei-30"/>
      </g>
     </g>
    </g>
    <g id="ytick_2">
     <g id="line2d_5">
      <path d="M 44.403125 291.805548 
L 459.777375 291.805548 
" clip-path="url(#p283c0a45e3)" style="fill: none; stroke: #e0e0e0; stroke-opacity: 0.4; stroke-width: 0.8; stroke-linecap: square"/>
     </g>
     <g id="line2d_6">
      <g>
       <use xlink:href="#m44c1628776" x="44.403125" y="291.805548" style="fill: #333333; stroke: #333333; stroke-width: 0.8"/>
      </g>
     </g>
     <g id="text_4">
      <!-- 20 -->
      <g style="fill: #333333" transform="translate(27.403125 295.243048) scale(0.1 -0.1)">
       <defs>
        <path id="SimHei-32" d="M 300 250 
Q 325 625 650 925 
Q 975 1225 1475 1862 
Q 1975 2500 2125 2850 
Q 2275 3200 2237 3450 
Q 2200 3700 2000 3862 
Q 1800 4025 1537 4000 
Q 1275 3975 1037 3800 
Q 800 3625 675 3275 
L 200 3350 
Q 400 3925 712 4187 
Q 1025 4450 1450 4475 
Q 1700 4500 1900 4462 
Q 2100 4425 2312 4287 
Q 2525 4150 2662 3875 
Q 2800 3600 2762 3212 
Q 2725 2825 2375 2287 
Q 2025 1750 1025 600 
L 2825 600 
L 2825 150 
L 300 150 
L 300 250 
z
" transform="scale(0.015625)"/>
       </defs>
       <use xlink:href="#SimHei-32"/>
       <use xlink:href="#SimHei-30" x="50"/>
      </g>
     </g>
    </g>
    <g id="ytick_3">
     <g id="line2d_7">
      <path d="M 44.403125 228.736595 
L 459.777375 228.736595 
" clip-path="url(#p283c0a45e3)" style="fill: none; stroke: #e0e0e0; stroke-opacity: 0.4; stroke-width: 0.8; stroke-linecap: square"/>
     </g>
     <g id="line2d_8">
      <g>
       <use xlink:href="#m44c1628776" x="44.403125" y="228.736595" style="fill: #333333; stroke: #333333; stroke-width: 0.8"/>
      </g>
     </g>
     <g id="text_5">
      <!-- 40 -->
      <g style="fill: #333333" transform="translate(27.403125 232.174095) scale(0.1 -0.1)">
       <defs>
        <path id="SimHei-34" d="M 2000 1100 
L 75 1100 
L 75 1525 
L 2100 4450 
L 2475 4450 
L 2475 1525 
L 3075 1525 
L 3075 1100 
L 2475 1100 
L 2475 150 
L 2000 150 
L 2000 1100 
z
M 2000 1525 
L 2000 3500 
L 600 1525 
L 2000 1525 
z
" transform="scale(0.015625)"/>
       </defs>
       <use xlink:href="#SimHei-34"/>
       <use xlink:href="#SimHei-30" x="50"/>
      </g>
     </g>
    </g>
    <g id="ytick_4">
     <g id="line2d_9">
      <path d="M 44.403125 165.667643 
L 459.777375 165.667643 
" clip-path="url(#p283c0a45e3)" style="fill: none; stroke: #e0e0e0; stroke-opacity: 0.4; stroke-width: 0.8; stroke-linecap: square"/>
     </g>
     <g id="line2d_10">
      <g>
       <use xlink:href="#m44c1628776" x="44.403125" y="165.667643" style="fill: #333333; stroke: #333333; stroke-width: 0.8"/>
      </g>
     </g>
     <g id="text_6">
      <!-- 60 -->
      <g style="fill: #333333" transform="translate(27.403125 169.105143) scale(0.1 -0.1)">
       <defs>
        <path id="SimHei-36" d="M 250 1612 
Q 275 1975 387 2225 
Q 500 2475 725 2850 
L 1750 4450 
L 2325 4450 
L 1275 2800 
Q 1950 2975 2350 2750 
Q 2750 2525 2887 2237 
Q 3025 1950 3037 1612 
Q 3050 1275 2937 950 
Q 2825 625 2537 362 
Q 2250 100 1737 75 
Q 1225 50 862 262 
Q 500 475 362 862 
Q 225 1250 250 1612 
z
M 1025 787 
Q 1250 550 1625 525 
Q 2000 500 2250 775 
Q 2500 1050 2500 1575 
Q 2500 2100 2187 2300 
Q 1875 2500 1487 2450 
Q 1100 2400 925 2075 
Q 750 1750 775 1387 
Q 800 1025 1025 787 
z
" transform="scale(0.015625)"/>
       </defs>
       <use xlink:href="#SimHei-36"/>
       <use xlink:href="#SimHei-30" x="50"/>
      </g>
     </g>
    </g>
    <g id="ytick_5">
     <g id="line2d_11">
      <path d="M 44.403125 102.59869 
L 459.777375 102.59869 
" clip-path="url(#p283c0a45e3)" style="fill: none; stroke: #e0e0e0; stroke-opacity: 0.4; stroke-width: 0.8; stroke-linecap: square"/>
     </g>
     <g id="line2d_12">
      <g>
       <use xlink:href="#m44c1628776" x="44.403125" y="102.59869" style="fill: #333333; stroke: #333333; stroke-width: 0.8"/>
      </g>
     </g>
     <g id="text_7">
      <!-- 80 -->
      <g style="fill: #333333" transform="translate(27.403125 106.03619) scale(0.1 -0.1)">
       <defs>
        <path id="SimHei-38" d="M 175 1375 
Q 175 1675 325 1962 
Q 475 2250 825 2425 
Q 525 2600 425 2812 
Q 325 3025 312 3300 
Q 300 3575 387 3775 
Q 475 3975 650 4150 
Q 825 4325 1037 4387 
Q 1250 4450 1500 4450 
Q 1750 4450 1950 4400 
Q 2150 4350 2375 4187 
Q 2600 4025 2700 3725 
Q 2800 3425 2687 3025 
Q 2575 2625 2100 2400 
Q 2525 2275 2700 2012 
Q 2875 1750 2875 1375 
Q 2875 1000 2762 775 
Q 2650 550 2512 400 
Q 2375 250 2137 162 
Q 1900 75 1537 75 
Q 1175 75 912 162 
Q 650 250 475 425 
Q 300 600 237 837 
Q 175 1075 175 1375 
z
M 687 1400 
Q 675 1100 787 875 
Q 900 650 1200 587 
Q 1500 525 1825 600 
Q 2150 675 2275 950 
Q 2400 1225 2362 1500 
Q 2325 1775 2050 1962 
Q 1775 2150 1450 2125 
Q 1125 2100 912 1900 
Q 700 1700 687 1400 
z
M 775 3350 
Q 775 3100 950 2875 
Q 1125 2650 1500 2650 
Q 1875 2650 2062 2875 
Q 2250 3100 2237 3412 
Q 2225 3725 2012 3875 
Q 1800 4025 1437 4000 
Q 1075 3975 925 3787 
Q 775 3600 775 3350 
z
" transform="scale(0.015625)"/>
       </defs>
       <use xlink:href="#SimHei-38"/>
       <use xlink:href="#SimHei-30" x="50"/>
      </g>
     </g>
    </g>
    <g id="ytick_6">
     <g id="line2d_13">
      <path d="M 44.403125 39.529738 
L 459.777375 39.529738 
" clip-path="url(#p283c0a45e3)" style="fill: none; stroke: #e0e0e0; stroke-opacity: 0.4; stroke-width: 0.8; stroke-linecap: square"/>
     </g>
     <g id="line2d_14">
      <g>
       <use xlink:href="#m44c1628776" x="44.403125" y="39.529738" style="fill: #333333; stroke: #333333; stroke-width: 0.8"/>
      </g>
     </g>
     <g id="text_8">
      <!-- 100 -->
      <g style="fill: #333333" transform="translate(22.403125 42.967238) scale(0.1 -0.1)">
       <use xlink:href="#SimHei-31"/>
       <use xlink:href="#SimHei-30" x="50"/>
       <use xlink:href="#SimHei-30" x="100"/>
      </g>
     </g>
    </g>
    <g id="text_9">
     <!-- 准确率 (%) -->
     <g style="fill: #333333" transform="translate(16.903125 219.3185) rotate(-90) scale(0.12 -0.12)">
      <use xlink:href="#SimHei-51c6"/>
      <use xlink:href="#SimHei-786e" x="100"/>
      <use xlink:href="#SimHei-7387" x="200"/>
      <use xlink:href="#SimHei-20" x="300"/>
      <use xlink:href="#SimHei-28" x="350"/>
      <use xlink:href="#SimHei-25" x="400"/>
      <use xlink:href="#SimHei-29" x="450"/>
     </g>
    </g>
   </g>
   <g id="patch_7">
    <path d="M 44.403125 354.8745 
L 44.403125 23.7625 
" style="fill: none; stroke: #333333; stroke-width: 0.8; stroke-linejoin: miter; stroke-linecap: square"/>
   </g>
   <g id="patch_8">
    <path d="M 44.403125 354.8745 
L 459.777375 354.8745 
" style="fill: none; stroke: #333333; stroke-width: 0.8; stroke-linejoin: miter; stroke-linecap: square"/>
   </g>
   <g id="text_10">
    <!-- 75.61 -->
    <g style="fill: #333333" transform="translate(89.655695 112.192326) scale(0.1 -0.1)">
     <defs>
      <path id="SimHei-37" d="M 850 150 
Q 1300 2050 2425 3925 
L 275 3925 
L 275 4375 
L 2950 4375 
L 2950 3950 
Q 1775 2050 1400 150 
L 850 150 
z
" transform="scale(0.015625)"/>
      <path id="SimHei-2e" d="M 1075 125 
L 500 125 
L 500 675 
L 1075 675 
L 1075 125 
z
" transform="scale(0.015625)"/>
     </defs>
     <use xlink:href="#SimHei-37"/>
     <use xlink:href="#SimHei-35" x="50"/>
     <use xlink:href="#SimHei-2e" x="100"/>
     <use xlink:href="#SimHei-36" x="150"/>
     <use xlink:href="#SimHei-31" x="200"/>
    </g>
   </g>
   <g id="text_11">
    <!-- 93.14 -->
    <g style="fill: #333333" transform="translate(311.780962 56.912389) scale(0.1 -0.1)">
     <defs>
      <path id="SimHei-39" d="M 800 75 
Q 1350 1000 1700 1750 
Q 1075 1650 662 1912 
Q 250 2175 162 2625 
Q 75 3075 175 3437 
Q 275 3800 487 4037 
Q 700 4275 1000 4375 
Q 1300 4475 1537 4475 
Q 1775 4475 2025 4375 
Q 2275 4275 2475 4075 
Q 2675 3875 2750 3662 
Q 2825 3450 2825 3112 
Q 2825 2775 2575 2250 
Q 2325 1725 1350 75 
L 800 75 
z
M 662 2875 
Q 700 2550 937 2337 
Q 1175 2125 1450 2150 
Q 1725 2175 1887 2300 
Q 2050 2425 2200 2725 
Q 2300 3100 2250 3362 
Q 2200 3625 1987 3800 
Q 1775 3975 1525 3975 
Q 1375 4000 1137 3900 
Q 900 3800 762 3500 
Q 625 3200 662 2875 
z
" transform="scale(0.015625)"/>
      <path id="SimHei-33" d="M 250 1225 
L 700 1300 
Q 800 975 1025 762 
Q 1250 550 1587 562 
Q 1925 575 2125 837 
Q 2325 1100 2300 1437 
Q 2275 1775 2037 1962 
Q 1800 2150 1275 2225 
L 1275 2550 
Q 1800 2600 2037 2825 
Q 2275 3050 2250 3412 
Q 2225 3775 1925 3937 
Q 1625 4100 1287 3975 
Q 950 3850 750 3275 
L 300 3350 
Q 450 3800 712 4100 
Q 975 4400 1425 4450 
Q 1875 4500 2212 4337 
Q 2550 4175 2687 3837 
Q 2825 3500 2725 3100 
Q 2625 2700 2150 2400 
Q 2500 2250 2687 1950 
Q 2875 1650 2812 1162 
Q 2750 675 2375 375 
Q 2000 75 1525 87 
Q 1050 100 700 387 
Q 350 675 250 1225 
z
" transform="scale(0.015625)"/>
     </defs>
     <use xlink:href="#SimHei-39"/>
     <use xlink:href="#SimHei-33" x="50"/>
     <use xlink:href="#SimHei-2e" x="100"/>
     <use xlink:href="#SimHei-31" x="150"/>
     <use xlink:href="#SimHei-34" x="200"/>
    </g>
   </g>
   <g id="text_12">
    <!-- 88.46 -->
    <g style="fill: #333333" transform="translate(167.399538 71.670524) scale(0.1 -0.1)">
     <use xlink:href="#SimHei-38"/>
     <use xlink:href="#SimHei-38" x="50"/>
     <use xlink:href="#SimHei-2e" x="100"/>
     <use xlink:href="#SimHei-34" x="150"/>
     <use xlink:href="#SimHei-36" x="200"/>
    </g>
   </g>
   <g id="text_13">
    <!-- 97.66 -->
    <g style="fill: #333333" transform="translate(389.524805 42.658806) scale(0.1 -0.1)">
     <use xlink:href="#SimHei-39"/>
     <use xlink:href="#SimHei-37" x="50"/>
     <use xlink:href="#SimHei-2e" x="100"/>
     <use xlink:href="#SimHei-36" x="150"/>
     <use xlink:href="#SimHei-36" x="200"/>
    </g>
   </g>
   <g id="text_14">
    <!-- (a) 分类精度对比 -->
    <g style="fill: #333333" transform="translate(200.09025 17.7625) scale(0.13 -0.13)">
     <defs>
      <path id="SimHei-61" d="M 2875 125 
L 2275 125 
Q 2225 175 2200 262 
Q 2175 350 2175 475 
Q 2000 275 1750 175 
Q 1500 75 1225 75 
Q 825 75 550 275 
Q 275 475 275 850 
Q 275 1225 525 1450 
Q 775 1675 1300 1750 
Q 1650 1800 1912 1875 
Q 2175 1950 2175 2075 
Q 2175 2225 2062 2375 
Q 1950 2525 1575 2525 
Q 1275 2525 1137 2412 
Q 1000 2300 950 2100 
L 400 2100 
Q 450 2500 762 2737 
Q 1075 2975 1575 2975 
Q 2125 2975 2400 2725 
Q 2675 2475 2675 2025 
L 2675 650 
Q 2675 500 2725 375 
Q 2775 250 2875 125 
z
M 2175 1050 
L 2175 1550 
Q 2025 1500 1887 1462 
Q 1750 1425 1425 1375 
Q 1050 1325 937 1200 
Q 825 1075 825 900 
Q 825 750 937 637 
Q 1050 525 1275 525 
Q 1500 525 1762 650 
Q 2025 775 2175 1050 
z
" transform="scale(0.015625)"/>
      <path id="SimHei-5206" d="M 1000 -650 
Q 825 -375 575 -225 
Q 975 -75 1300 137 
Q 1625 350 1875 662 
Q 2125 975 2250 1350 
Q 2375 1725 2425 2275 
Q 1850 2275 1500 2250 
L 1500 2775 
Q 1900 2750 2525 2750 
L 5025 2750 
Q 4975 2375 4950 2100 
L 4750 250 
Q 4700 -200 4350 -350 
Q 4000 -500 3575 -525 
Q 3550 -275 3325 50 
Q 3850 25 4037 87 
Q 4225 150 4275 525 
L 4450 2275 
L 2950 2275 
Q 2875 1625 2737 1187 
Q 2600 750 2350 425 
Q 2100 100 1750 -175 
Q 1400 -450 1000 -650 
z
M 3950 5175 
Q 4125 4650 4662 3975 
Q 5200 3300 6175 2800 
Q 5975 2625 5775 2275 
Q 5325 2600 4987 2887 
Q 4650 3175 4425 3425 
Q 4200 3675 3925 4137 
Q 3650 4600 3475 5000 
Q 3750 5075 3950 5175 
z
M 2700 4825 
Q 2475 4425 2325 4125 
Q 2175 3825 2025 3587 
Q 1875 3350 1575 2950 
Q 1275 2550 850 2125 
Q 625 2350 400 2475 
Q 900 2925 1187 3300 
Q 1475 3675 1737 4112 
Q 2000 4550 2200 5075 
Q 2400 4925 2700 4825 
z
" transform="scale(0.015625)"/>
      <path id="SimHei-7c7b" d="M 2125 3875 
Q 1750 4375 1325 4725 
Q 1525 4875 1675 5050 
L 2525 4225 
Q 2400 4125 2200 3875 
L 3025 3875 
L 3025 4550 
Q 3025 4900 3000 5125 
L 3525 5125 
Q 3500 4850 3500 4550 
L 3500 3875 
L 4325 3875 
Q 4125 4050 4000 4150 
Q 4450 4575 4800 5175 
Q 5000 5000 5275 4825 
Q 5100 4675 4912 4475 
Q 4725 4275 4400 3875 
L 5025 3875 
Q 5425 3875 5900 3900 
L 5900 3450 
Q 5425 3475 5025 3475 
L 3500 3475 
L 3500 3050 
Q 3500 2650 3525 2175 
L 3175 2175 
Q 3475 2075 3675 2000 
Q 3575 1875 3525 1575 
L 5025 1575 
Q 5525 1575 6025 1600 
L 6025 1150 
Q 5550 1175 5050 1175 
L 3675 1175 
Q 4050 600 4712 275 
Q 5375 -50 6050 -175 
Q 5850 -350 5725 -675 
Q 4975 -450 4350 -37 
Q 3725 375 3300 950 
Q 3050 350 2425 -50 
Q 1800 -450 775 -700 
Q 650 -425 475 -225 
Q 1375 -100 2012 225 
Q 2650 550 2900 1175 
L 1625 1175 
Q 1025 1175 525 1150 
L 525 1600 
Q 950 1575 1600 1575 
L 3025 1575 
Q 3075 1825 3100 2175 
L 3000 2175 
Q 3025 2675 3025 3050 
L 3025 3325 
Q 2725 2900 2237 2550 
Q 1750 2200 925 1825 
Q 850 2025 625 2275 
Q 1175 2400 1725 2737 
Q 2275 3075 2600 3475 
L 1550 3475 
Q 1050 3475 600 3425 
L 600 3900 
Q 1075 3875 1550 3875 
L 2125 3875 
z
M 4100 3450 
Q 4850 3000 5800 2350 
Q 5575 2125 5425 1925 
Q 4700 2550 3825 3075 
Q 3975 3250 4100 3450 
z
" transform="scale(0.015625)"/>
      <path id="SimHei-7cbe" d="M 5600 2300 
Q 5575 1825 5575 1400 
L 5575 -100 
Q 5575 -475 5337 -550 
Q 5100 -625 4775 -675 
Q 4700 -375 4550 -175 
Q 4900 -175 5012 -137 
Q 5125 -100 5125 75 
L 5125 325 
L 3425 325 
L 3425 -625 
L 2975 -625 
Q 3000 75 3000 925 
Q 3000 1775 2975 2300 
L 5600 2300 
z
M 1275 4450 
Q 1275 4875 1250 5125 
L 1750 5125 
Q 1725 4675 1725 4425 
L 1725 3175 
Q 2125 3175 2450 3200 
L 2450 2750 
Q 2125 2775 1725 2775 
L 1725 325 
Q 1725 -75 1750 -650 
L 1250 -650 
Q 1275 -75 1275 325 
L 1275 1925 
Q 1050 1350 575 675 
Q 400 825 200 1000 
Q 450 1275 712 1737 
Q 975 2200 1150 2775 
Q 700 2775 350 2750 
L 350 3200 
Q 700 3175 1275 3175 
L 1275 4450 
z
M 4050 4550 
Q 4050 4850 4025 5125 
L 4525 5125 
Q 4500 4800 4500 4550 
L 5050 4550 
Q 5475 4550 5800 4575 
L 5800 4175 
Q 5450 4200 5050 4200 
L 4500 4200 
L 4500 3725 
L 4850 3725 
Q 5250 3725 5625 3750 
L 5625 3350 
Q 5250 3375 4825 3375 
L 4500 3375 
L 4500 2950 
L 5100 2950 
Q 5550 2950 6075 2975 
L 6075 2575 
Q 5575 2600 5100 2600 
L 3600 2600 
Q 3200 2600 2625 2575 
L 2625 2975 
Q 3150 2950 3575 2950 
L 4050 2950 
L 4050 3375 
L 3675 3375 
Q 3300 3375 2975 3350 
L 2975 3750 
Q 3325 3725 3575 3725 
L 4050 3725 
L 4050 4200 
L 3650 4200 
Q 3250 4200 2800 4175 
L 2800 4575 
Q 3250 4550 3650 4550 
L 4050 4550 
z
M 5125 675 
L 5125 1175 
L 3425 1175 
L 3425 675 
L 5125 675 
z
M 5125 1525 
L 5125 1950 
L 3425 1950 
L 3425 1525 
L 5125 1525 
z
M 2650 4375 
Q 2300 3650 2175 3375 
Q 1975 3475 1775 3525 
Q 2025 4050 2200 4550 
Q 2475 4450 2650 4375 
z
M 2125 2350 
Q 2475 1900 2775 1475 
Q 2600 1350 2400 1200 
Q 2125 1700 1775 2075 
Q 1975 2200 2125 2350 
z
M 650 4525 
Q 900 4150 1175 3625 
Q 1025 3550 800 3400 
Q 600 3800 275 4300 
Q 500 4425 650 4525 
z
" transform="scale(0.015625)"/>
      <path id="SimHei-5ea6" d="M 1750 1675 
Q 2450 1650 2875 1650 
L 5200 1650 
Q 4975 1250 4650 850 
Q 4325 450 4025 200 
Q 4350 50 4950 -50 
Q 5550 -150 6100 -150 
Q 5950 -300 5825 -650 
Q 5100 -550 4550 -412 
Q 4000 -275 3625 -100 
Q 3100 -325 2587 -462 
Q 2075 -600 1525 -675 
Q 1450 -475 1225 -250 
Q 1675 -250 2250 -125 
Q 2825 0 3250 200 
Q 2825 550 2400 1275 
L 1750 1250 
L 1750 1675 
z
M 2975 5075 
Q 3250 5150 3475 5250 
Q 3625 4975 3775 4525 
L 4700 4525 
Q 4975 4525 5700 4550 
L 5700 4100 
Q 5000 4125 4650 4125 
L 1375 4125 
Q 1375 3000 1350 2312 
Q 1325 1625 1212 950 
Q 1100 275 725 -525 
Q 500 -375 250 -300 
Q 650 400 762 1075 
Q 875 1750 887 2800 
Q 900 3850 875 4525 
L 3200 4525 
Q 3100 4850 2975 5075 
z
M 2475 3300 
Q 2475 3700 2450 3925 
L 2975 3925 
Q 2950 3725 2950 3300 
L 4300 3300 
Q 4300 3700 4275 3950 
L 4800 3950 
Q 4775 3650 4775 3300 
Q 5325 3300 5725 3325 
L 5725 2900 
Q 5350 2925 4775 2925 
Q 4775 2250 4800 1950 
L 2450 1950 
Q 2475 2350 2475 2925 
Q 2175 2925 1600 2900 
L 1600 3325 
Q 2175 3300 2475 3300 
z
M 4300 2350 
L 4300 2925 
L 2950 2925 
L 2950 2350 
L 4300 2350 
z
M 2875 1275 
Q 3200 775 3650 425 
Q 4025 700 4425 1275 
L 2900 1275 
L 2875 1275 
z
" transform="scale(0.015625)"/>
      <path id="SimHei-5bf9" d="M 525 4250 
Q 900 4225 1400 4225 
L 2825 4225 
Q 2575 2625 2200 1750 
Q 2825 875 3125 400 
Q 2950 275 2725 75 
Q 2200 975 1950 1300 
Q 1650 775 1350 425 
Q 1050 75 600 -350 
Q 425 -125 200 -25 
Q 625 275 975 675 
Q 1325 1075 1650 1700 
Q 1050 2425 550 2900 
Q 700 3025 900 3225 
Q 1625 2425 1875 2150 
Q 2200 3050 2300 3825 
L 1400 3825 
Q 900 3825 525 3800 
L 525 4250 
z
M 2925 3700 
Q 3525 3675 3750 3675 
L 4825 3675 
L 4825 4425 
Q 4825 4750 4775 5125 
L 5350 5125 
Q 5325 4825 5325 4375 
L 5325 3675 
Q 5575 3675 6150 3700 
L 6150 3250 
Q 5575 3275 5325 3275 
L 5325 125 
Q 5350 -350 5012 -475 
Q 4675 -600 4250 -650 
Q 4175 -350 4025 -100 
Q 4575 -100 4712 -37 
Q 4850 25 4825 325 
L 4825 3275 
L 3775 3275 
Q 3550 3275 2925 3225 
L 2925 3700 
z
M 3450 2725 
Q 3875 1975 4175 1325 
Q 3850 1200 3700 1075 
Q 3475 1750 3050 2475 
Q 3225 2550 3450 2725 
z
" transform="scale(0.015625)"/>
      <path id="SimHei-6bd4" d="M 3775 5100 
Q 3750 4575 3750 4100 
L 3750 3050 
Q 4925 3600 5475 4175 
Q 5675 3900 5900 3675 
Q 5600 3500 5037 3187 
Q 4475 2875 3750 2550 
L 3750 450 
Q 3750 100 4050 100 
L 5000 100 
Q 5175 100 5262 250 
Q 5350 400 5450 900 
Q 5650 775 6025 675 
Q 5850 0 5650 -175 
Q 5450 -350 5225 -350 
L 3900 -350 
Q 3250 -350 3250 275 
L 3250 4000 
Q 3250 4550 3225 5100 
L 3775 5100 
z
M 1275 4975 
Q 1250 4575 1250 4000 
L 1250 3150 
L 1850 3150 
Q 2325 3150 2875 3175 
L 2875 2650 
Q 2325 2675 1850 2675 
L 1250 2675 
L 1250 475 
Q 1650 650 1962 812 
Q 2275 975 2850 1275 
Q 2900 950 2950 750 
Q 2375 475 1762 175 
Q 1150 -125 925 -325 
Q 750 -100 575 200 
Q 700 300 750 600 
L 750 3950 
Q 750 4550 725 4975 
L 1275 4975 
z
" transform="scale(0.015625)"/>
     </defs>
     <use xlink:href="#SimHei-28"/>
     <use xlink:href="#SimHei-61" x="50"/>
     <use xlink:href="#SimHei-29" x="100"/>
     <use xlink:href="#SimHei-20" x="150"/>
     <use xlink:href="#SimHei-5206" x="200"/>
     <use xlink:href="#SimHei-7c7b" x="300"/>
     <use xlink:href="#SimHei-7cbe" x="400"/>
     <use xlink:href="#SimHei-5ea6" x="500"/>
     <use xlink:href="#SimHei-5bf9" x="600"/>
     <use xlink:href="#SimHei-6bd4" x="700"/>
    </g>
   </g>
   <g id="legend_1">
    <g id="patch_9">
     <path d="M 49.403125 58.2625 
L 150.403125 58.2625 
L 150.403125 28.7625 
L 49.403125 28.7625 
z
" style="fill: #ffffff; opacity: 0.8; stroke: #cccccc; stroke-linejoin: miter"/>
    </g>
    <g id="patch_10">
     <path d="M 53.403125 39.7625 
L 73.403125 39.7625 
L 73.403125 32.7625 
L 53.403125 32.7625 
z
" style="fill: #e15759; stroke: #ffffff; stroke-width: 0.5; stroke-linejoin: miter"/>
    </g>
    <g id="text_15">
     <!-- ResNet50 -->
     <g style="fill: #333333" transform="translate(81.403125 39.7625) scale(0.1 -0.1)">
      <defs>
       <path id="SimHei-52" d="M 3000 125 
L 2400 125 
L 1500 1975 
L 850 1975 
L 850 125 
L 275 125 
L 275 4400 
L 1525 4400 
Q 2125 4400 2500 4112 
Q 2875 3825 2875 3175 
Q 2875 2675 2625 2400 
Q 2375 2125 2050 2050 
L 3000 125 
z
M 2300 3175 
Q 2300 3525 2087 3725 
Q 1875 3925 1400 3925 
L 850 3925 
L 850 2450 
L 1550 2450 
Q 1850 2450 2075 2612 
Q 2300 2775 2300 3175 
z
" transform="scale(0.015625)"/>
       <path id="SimHei-65" d="M 2850 1075 
Q 2800 625 2450 350 
Q 2100 75 1625 75 
Q 1025 75 637 462 
Q 250 850 250 1525 
Q 250 2200 637 2587 
Q 1025 2975 1625 2975 
Q 2150 2975 2487 2637 
Q 2825 2300 2825 1525 
L 800 1525 
Q 800 975 1037 750 
Q 1275 525 1625 525 
Q 1900 525 2075 662 
Q 2250 800 2300 1075 
L 2850 1075 
z
M 2250 1925 
Q 2200 2275 2025 2412 
Q 1850 2550 1575 2550 
Q 1325 2550 1125 2412 
Q 925 2275 825 1925 
L 2250 1925 
z
" transform="scale(0.015625)"/>
       <path id="SimHei-73" d="M 2750 900 
Q 2750 500 2437 287 
Q 2125 75 1650 75 
Q 1050 75 725 312 
Q 400 550 400 1000 
L 900 1000 
Q 900 700 1112 600 
Q 1325 500 1625 500 
Q 1925 500 2075 612 
Q 2225 725 2225 900 
Q 2225 1025 2100 1150 
Q 1975 1275 1475 1350 
Q 900 1425 687 1637 
Q 475 1850 475 2200 
Q 475 2500 762 2737 
Q 1050 2975 1600 2975 
Q 2100 2975 2387 2750 
Q 2675 2525 2675 2150 
L 2175 2150 
Q 2175 2375 2012 2462 
Q 1850 2550 1600 2550 
Q 1275 2550 1137 2437 
Q 1000 2325 1000 2175 
Q 1000 2000 1125 1900 
Q 1250 1800 1650 1750 
Q 2300 1650 2525 1437 
Q 2750 1225 2750 900 
z
" transform="scale(0.015625)"/>
       <path id="SimHei-4e" d="M 2850 125 
L 2225 125 
L 850 3225 
L 825 3225 
L 825 125 
L 250 125 
L 250 4400 
L 875 4400 
L 2250 1300 
L 2275 1300 
L 2275 4400 
L 2850 4400 
L 2850 125 
z
" transform="scale(0.015625)"/>
       <path id="SimHei-74" d="M 2750 200 
Q 2625 150 2462 112 
Q 2300 75 2025 75 
Q 1575 75 1300 325 
Q 1025 575 1025 1025 
L 1025 2525 
L 175 2525 
L 175 2925 
L 1025 2925 
L 1025 3900 
L 1525 3900 
L 1525 2925 
L 2550 2925 
L 2550 2525 
L 1525 2525 
L 1525 1000 
Q 1525 800 1625 662 
Q 1725 525 2000 525 
Q 2275 525 2450 575 
Q 2625 625 2750 700 
L 2750 200 
z
" transform="scale(0.015625)"/>
      </defs>
      <use xlink:href="#SimHei-52"/>
      <use xlink:href="#SimHei-65" x="50"/>
      <use xlink:href="#SimHei-73" x="100"/>
      <use xlink:href="#SimHei-4e" x="150"/>
      <use xlink:href="#SimHei-65" x="200"/>
      <use xlink:href="#SimHei-74" x="250"/>
      <use xlink:href="#SimHei-35" x="300"/>
      <use xlink:href="#SimHei-30" x="350"/>
     </g>
    </g>
    <g id="patch_11">
     <path d="M 53.403125 53.0125 
L 73.403125 53.0125 
L 73.403125 46.0125 
L 53.403125 46.0125 
z
" style="fill: #4e79a7; stroke: #ffffff; stroke-width: 0.5; stroke-linejoin: miter"/>
    </g>
    <g id="text_16">
     <!-- ConvNeXt-Tiny -->
     <g style="fill: #333333" transform="translate(81.403125 53.0125) scale(0.1 -0.1)">
      <defs>
       <path id="SimHei-43" d="M 2975 1825 
Q 2950 875 2575 475 
Q 2200 75 1675 75 
Q 1075 75 650 562 
Q 225 1050 225 2125 
Q 225 3300 637 3875 
Q 1050 4450 1700 4450 
Q 2250 4450 2612 4037 
Q 2975 3625 2950 2875 
L 2400 2875 
Q 2400 3425 2225 3700 
Q 2050 3975 1700 3975 
Q 1300 3975 1062 3562 
Q 825 3150 825 2175 
Q 825 1275 1062 912 
Q 1300 550 1675 550 
Q 1950 550 2175 812 
Q 2400 1075 2400 1825 
L 2975 1825 
z
" transform="scale(0.015625)"/>
       <path id="SimHei-6e" d="M 2800 125 
L 2300 125 
L 2300 1925 
Q 2300 2225 2150 2400 
Q 2000 2575 1750 2575 
Q 1425 2575 1137 2237 
Q 850 1900 850 1400 
L 850 125 
L 350 125 
L 350 2925 
L 850 2925 
L 850 2400 
Q 1050 2675 1287 2825 
Q 1525 2975 1900 2975 
Q 2350 2975 2575 2725 
Q 2800 2475 2800 2100 
L 2800 125 
z
" transform="scale(0.015625)"/>
       <path id="SimHei-76" d="M 2875 2925 
L 1825 75 
L 1275 75 
L 225 2925 
L 750 2925 
L 1525 750 
L 1575 750 
L 2350 2925 
L 2875 2925 
z
" transform="scale(0.015625)"/>
       <path id="SimHei-58" d="M 3000 125 
L 2400 125 
L 1550 1875 
L 700 125 
L 100 125 
L 1275 2375 
L 225 4400 
L 825 4400 
L 1550 2850 
L 2275 4400 
L 2875 4400 
L 1825 2375 
L 3000 125 
z
" transform="scale(0.015625)"/>
       <path id="SimHei-69" d="M 1800 3725 
L 1300 3725 
L 1300 4375 
L 1800 4375 
L 1800 3725 
z
M 1800 125 
L 1300 125 
L 1300 2925 
L 1800 2925 
L 1800 125 
z
" transform="scale(0.015625)"/>
       <path id="SimHei-79" d="M 2900 2925 
L 1750 -100 
Q 1650 -450 1450 -625 
Q 1250 -800 950 -800 
Q 825 -800 712 -787 
Q 600 -775 500 -725 
L 500 -225 
Q 600 -275 700 -300 
Q 800 -325 875 -325 
Q 1075 -325 1150 -262 
Q 1225 -200 1300 25 
L 200 2925 
L 750 2925 
L 1550 725 
L 1575 725 
L 2350 2925 
L 2900 2925 
z
" transform="scale(0.015625)"/>
      </defs>
      <use xlink:href="#SimHei-43"/>
      <use xlink:href="#SimHei-6f" x="50"/>
      <use xlink:href="#SimHei-6e" x="100"/>
      <use xlink:href="#SimHei-76" x="150"/>
      <use xlink:href="#SimHei-4e" x="200"/>
      <use xlink:href="#SimHei-65" x="250"/>
      <use xlink:href="#SimHei-58" x="300"/>
      <use xlink:href="#SimHei-74" x="350"/>
      <use xlink:href="#SimHei-2d" x="400"/>
      <use xlink:href="#SimHei-54" x="450"/>
      <use xlink:href="#SimHei-69" x="500"/>
      <use xlink:href="#SimHei-6e" x="550"/>
      <use xlink:href="#SimHei-79" x="600"/>
     </g>
    </g>
   </g>
  </g>
  <g id="axes_2">
   <g id="patch_12">
    <path d="M 506.190125 354.8745 
L 921.564375 354.8745 
L 921.564375 23.7625 
L 506.190125 23.7625 
z
" style="fill: #ffffff"/>
   </g>
   <g id="patch_13">
    <path d="M 525.070773 96914.607702 
L 574.0206 96914.607702 
L 574.0206 221.794316 
L 525.070773 221.794316 
z
" clip-path="url(#pd94f6d6f61)" style="fill: #e15759; stroke: #ffffff; stroke-width: 0.5; stroke-linejoin: miter"/>
   </g>
   <g id="patch_14">
    <path d="M 664.927423 96914.607702 
L 713.87725 96914.607702 
L 713.87725 49.256554 
L 664.927423 49.256554 
z
" clip-path="url(#pd94f6d6f61)" style="fill: #e15759; stroke: #ffffff; stroke-width: 0.5; stroke-linejoin: miter"/>
   </g>
   <g id="patch_15">
    <path d="M 804.784072 96914.607702 
L 853.7339 96914.607702 
L 853.7339 294.197433 
L 804.784072 294.197433 
z
" clip-path="url(#pd94f6d6f61)" style="fill: #e15759; stroke: #ffffff; stroke-width: 0.5; stroke-linejoin: miter"/>
   </g>
   <g id="patch_16">
    <path d="M 574.0206 96914.607702 
L 622.970428 96914.607702 
L 622.970428 215.197257 
L 574.0206 215.197257 
z
" clip-path="url(#pd94f6d6f61)" style="fill: #4e79a7; stroke: #ffffff; stroke-width: 0.5; stroke-linejoin: miter"/>
   </g>
   <g id="patch_17">
    <path d="M 713.87725 96914.607702 
L 762.827077 96914.607702 
L 762.827077 40.765825 
L 713.87725 40.765825 
z
" clip-path="url(#pd94f6d6f61)" style="fill: #4e79a7; stroke: #ffffff; stroke-width: 0.5; stroke-linejoin: miter"/>
   </g>
   <g id="patch_18">
    <path d="M 853.7339 96914.607702 
L 902.683727 96914.607702 
L 902.683727 298.451633 
L 853.7339 298.451633 
z
" clip-path="url(#pd94f6d6f61)" style="fill: #4e79a7; stroke: #ffffff; stroke-width: 0.5; stroke-linejoin: miter"/>
   </g>
   <g id="matplotlib.axis_3">
    <g id="xtick_3">
     <g id="line2d_15">
      <g>
       <use xlink:href="#mafb32a24b7" x="574.0206" y="354.8745" style="fill: #333333; stroke: #333333; stroke-width: 0.8"/>
      </g>
     </g>
     <g id="text_17">
      <!-- 参数量 -->
      <g style="fill: #333333" transform="translate(559.0206 369.804188) scale(0.1 -0.1)">
       <defs>
        <path id="SimHei-53c2" d="M 3325 4850 
Q 3100 4725 2850 4500 
Q 2600 4275 2175 3925 
Q 2850 3950 3275 3950 
Q 3700 3950 4200 3975 
Q 3950 4200 3600 4450 
Q 3800 4625 3925 4775 
Q 4900 4100 5325 3675 
Q 5100 3475 4925 3300 
Q 4750 3475 4550 3625 
Q 3625 3600 3200 3575 
Q 3025 3250 2925 3125 
L 5075 3125 
Q 5575 3125 5950 3150 
L 5950 2700 
Q 5600 2725 5075 2725 
L 4325 2725 
Q 4675 2350 5187 2075 
Q 5700 1800 6150 1700 
Q 5850 1550 5675 1225 
Q 5100 1525 4612 1900 
Q 4125 2275 3800 2725 
L 2725 2725 
Q 2325 2300 1812 1962 
Q 1300 1625 650 1325 
Q 525 1525 250 1700 
Q 725 1825 1237 2100 
Q 1750 2375 2100 2725 
L 1475 2725 
Q 950 2725 375 2700 
L 375 3150 
Q 875 3125 1475 3125 
L 2400 3125 
L 2550 3350 
L 2650 3550 
Q 1925 3500 1775 3475 
Q 1625 3450 1500 3425 
Q 1375 3725 1300 3875 
Q 1600 3950 2050 4337 
Q 2500 4725 2825 5225 
Q 3025 5050 3325 4850 
z
M 5350 800 
Q 5025 650 4612 437 
Q 4200 225 3850 75 
Q 3500 -75 3062 -212 
Q 2625 -350 2150 -450 
Q 1675 -550 1225 -600 
Q 1150 -350 900 -150 
Q 1675 -125 2362 25 
Q 3050 175 3512 387 
Q 3975 600 4312 800 
Q 4650 1000 4900 1250 
Q 5100 1025 5350 800 
z
M 4550 1450 
Q 4350 1375 4037 1200 
Q 3725 1025 3350 862 
Q 2975 700 2512 550 
Q 2050 400 1575 325 
Q 1450 575 1250 775 
Q 1775 800 2175 900 
Q 2575 1000 3075 1212 
Q 3575 1425 4125 1850 
Q 4300 1675 4550 1450 
z
M 3900 2075 
Q 3575 1950 3350 1825 
Q 3125 1700 2687 1525 
Q 2250 1350 1750 1200 
Q 1625 1425 1450 1600 
Q 2025 1700 2587 1937 
Q 3150 2175 3500 2500 
Q 3700 2275 3900 2075 
z
" transform="scale(0.015625)"/>
        <path id="SimHei-6570" d="M 4525 4925 
Q 4475 4800 4400 4587 
Q 4325 4375 4175 3825 
L 5325 3825 
Q 5575 3825 5925 3850 
L 5925 3400 
Q 5650 3425 5500 3425 
Q 5500 3025 5362 2162 
Q 5225 1300 4875 675 
Q 5125 375 5437 137 
Q 5750 -100 6025 -200 
Q 5725 -425 5625 -625 
Q 5325 -450 5075 -225 
Q 4825 0 4575 325 
Q 4300 25 3987 -187 
Q 3675 -400 3200 -650 
Q 3075 -425 2850 -300 
Q 3225 -150 3650 125 
Q 4075 400 4300 675 
Q 4125 1025 3962 1425 
Q 3800 1825 3675 2475 
Q 3600 2275 3425 1950 
Q 3250 2050 3000 2150 
Q 3400 2850 3650 3675 
Q 3900 4500 3975 5100 
Q 4275 4975 4525 4925 
z
M 2100 2250 
Q 2000 2150 1875 1925 
L 3250 1925 
Q 3100 1300 2725 675 
Q 3125 525 3350 400 
Q 3225 225 3125 25 
Q 2900 175 2450 325 
Q 1950 -225 725 -650 
Q 600 -375 400 -275 
Q 1575 0 2000 475 
Q 1300 650 850 775 
Q 1000 1000 1250 1525 
Q 1000 1525 425 1500 
L 425 1950 
Q 900 1925 1400 1925 
Q 1500 2150 1550 2425 
Q 1825 2325 2100 2250 
z
M 1775 3950 
Q 1775 4550 1750 5100 
L 2250 5100 
Q 2225 4575 2225 3950 
Q 3075 3950 3425 3975 
L 3425 3525 
Q 3075 3550 2225 3550 
Q 2225 2825 2250 2425 
L 1750 2425 
Q 1775 2775 1775 3300 
Q 1650 3100 1300 2787 
Q 950 2475 650 2300 
Q 525 2525 275 2625 
Q 500 2700 875 2975 
Q 1250 3250 1450 3550 
Q 950 3550 500 3525 
L 500 3975 
Q 925 3950 1775 3950 
z
M 3975 3175 
Q 4200 1700 4600 1125 
Q 4850 1700 4937 2287 
Q 5025 2875 5050 3425 
L 4075 3425 
L 3975 3175 
z
M 1450 1000 
Q 1750 925 2275 800 
Q 2475 1050 2650 1525 
L 1725 1525 
Q 1600 1275 1450 1000 
z
M 3325 4825 
Q 3200 4625 3125 4450 
Q 3050 4275 2925 4025 
Q 2725 4125 2525 4175 
Q 2725 4500 2900 5000 
Q 3150 4875 3325 4825 
z
M 2575 3375 
Q 2900 3050 3200 2725 
Q 3050 2600 2875 2425 
Q 2525 2850 2300 3100 
Q 2450 3225 2575 3375 
z
M 925 5000 
Q 1275 4650 1500 4300 
L 1125 4075 
Q 950 4425 600 4725 
Q 825 4875 925 5000 
z
" transform="scale(0.015625)"/>
        <path id="SimHei-91cf" d="M 5250 2500 
Q 5225 2200 5225 1700 
Q 5225 1225 5250 950 
L 3425 950 
L 3425 625 
L 4575 625 
Q 5000 625 5375 650 
L 5375 275 
Q 5025 300 4575 300 
L 3425 300 
L 3425 -75 
L 5125 -75 
Q 5525 -75 5925 -50 
L 5925 -425 
Q 5525 -400 5125 -400 
L 1275 -400 
Q 900 -400 475 -425 
L 475 -50 
Q 925 -50 1275 -75 
L 2975 -75 
L 2975 300 
L 1725 300 
Q 1350 300 975 250 
L 975 650 
Q 1375 625 1725 625 
L 2975 625 
L 2975 950 
L 1150 950 
Q 1175 1375 1175 1775 
Q 1175 2175 1150 2500 
L 5250 2500 
z
M 5200 4950 
Q 5175 4575 5175 4250 
Q 5175 3925 5200 3400 
L 1200 3400 
Q 1225 3925 1225 4250 
Q 1225 4575 1200 4950 
L 5200 4950 
z
M 4900 3100 
Q 5500 3125 6000 3150 
L 6000 2750 
Q 5500 2775 4925 2775 
L 1650 2775 
Q 975 2775 325 2750 
L 325 3150 
Q 975 3125 1650 3100 
L 4900 3100 
z
M 4725 3700 
L 4725 4025 
L 1675 4025 
L 1675 3700 
L 4725 3700 
z
M 4725 4350 
L 4725 4650 
L 1675 4650 
L 1675 4350 
L 4725 4350 
z
M 4750 1875 
L 4750 2175 
L 3425 2175 
L 3425 1875 
L 4750 1875 
z
M 2975 1875 
L 2975 2175 
L 1650 2175 
L 1650 1875 
L 2975 1875 
z
M 2975 1275 
L 2975 1550 
L 1650 1550 
L 1650 1275 
L 2975 1275 
z
M 4750 1275 
L 4750 1550 
L 3425 1550 
L 3425 1275 
L 4750 1275 
z
" transform="scale(0.015625)"/>
       </defs>
       <use xlink:href="#SimHei-53c2"/>
       <use xlink:href="#SimHei-6570" x="100"/>
       <use xlink:href="#SimHei-91cf" x="200"/>
      </g>
      <!-- (M) -->
      <g style="fill: #333333" transform="translate(566.5206 379.819813) scale(0.1 -0.1)">
       <defs>
        <path id="SimHei-4d" d="M 2925 125 
L 2425 125 
L 2425 3175 
L 2375 3175 
L 1775 125 
L 1375 125 
L 775 3175 
L 725 3175 
L 725 125 
L 225 125 
L 225 4400 
L 1000 4400 
L 1550 1575 
L 1600 1575 
L 2150 4400 
L 2925 4400 
L 2925 125 
z
" transform="scale(0.015625)"/>
       </defs>
       <use xlink:href="#SimHei-28"/>
       <use xlink:href="#SimHei-4d" x="50"/>
       <use xlink:href="#SimHei-29" x="100"/>
      </g>
     </g>
    </g>
    <g id="xtick_4">
     <g id="line2d_16">
      <g>
       <use xlink:href="#mafb32a24b7" x="713.87725" y="354.8745" style="fill: #333333; stroke: #333333; stroke-width: 0.8"/>
      </g>
     </g>
     <g id="text_18">
      <!-- 训练时间 -->
      <g style="fill: #333333" transform="translate(693.87725 369.882313) scale(0.1 -0.1)">
       <defs>
        <path id="SimHei-8bad" d="M 1650 3300 
Q 1625 2725 1625 2225 
L 1625 675 
Q 1950 1125 2050 1275 
Q 2175 1125 2350 900 
Q 2025 500 1800 212 
Q 1575 -75 1325 -425 
Q 1150 -200 950 -50 
Q 1150 225 1150 625 
L 1150 2875 
L 975 2875 
Q 600 2875 300 2850 
L 300 3325 
Q 600 3300 975 3300 
L 1650 3300 
z
M 3425 4600 
Q 3375 4350 3387 3362 
Q 3400 2375 3337 1887 
Q 3275 1400 3087 837 
Q 2900 275 2450 -375 
Q 2225 -200 1975 -125 
Q 2550 500 2762 1362 
Q 2975 2225 2950 3337 
Q 2925 4450 2900 4675 
Q 3150 4625 3425 4600 
z
M 5875 4700 
Q 5850 4500 5850 3975 
L 5850 625 
Q 5850 125 5875 -400 
L 5400 -400 
Q 5425 125 5425 600 
L 5425 3975 
Q 5425 4500 5400 4700 
L 5875 4700 
z
M 4600 175 
L 4125 175 
Q 4150 725 4150 1150 
L 4150 3600 
Q 4150 4050 4125 4350 
L 4600 4350 
L 4600 175 
z
M 1000 5150 
Q 1650 4600 2100 4100 
Q 1875 3925 1750 3750 
Q 1050 4550 700 4800 
Q 850 4950 1000 5150 
z
" transform="scale(0.015625)"/>
        <path id="SimHei-7ec3" d="M 3300 3825 
Q 2950 3825 2400 3800 
L 2400 4250 
Q 2950 4225 3325 4225 
L 3625 4225 
Q 3875 4950 3900 5175 
Q 4200 5025 4450 4925 
Q 4350 4825 4262 4612 
Q 4175 4400 4100 4225 
L 5025 4225 
Q 5425 4225 5900 4250 
L 5900 3800 
Q 5550 3825 5025 3825 
L 3975 3825 
Q 3850 3525 3700 3150 
L 4675 3150 
Q 4650 2875 4650 2475 
L 4650 1975 
L 4975 1975 
Q 5350 1975 5800 2000 
L 5800 1550 
Q 5350 1575 4975 1575 
L 4650 1575 
L 4650 125 
Q 4650 -300 4462 -425 
Q 4275 -550 3650 -625 
Q 3625 -375 3450 -100 
Q 4075 -125 4137 -25 
Q 4200 75 4200 325 
L 4200 1575 
L 3425 1575 
Q 3250 1575 3100 1562 
Q 2950 1550 2750 1475 
Q 2650 1725 2550 1950 
Q 2800 2025 3125 2775 
Q 2950 2775 2450 2750 
L 2450 3175 
Q 3025 3150 3250 3150 
Q 3400 3525 3500 3825 
L 3300 3825 
z
M 1650 2950 
Q 1875 3300 2100 3900 
Q 2325 3725 2575 3600 
Q 2325 3275 2025 2750 
Q 1725 2225 1075 1350 
Q 1300 1400 2400 1575 
Q 2350 1300 2375 1150 
Q 1825 1100 650 825 
Q 525 1075 400 1275 
Q 625 1400 887 1737 
Q 1150 2075 1450 2575 
Q 1300 2600 1012 2562 
Q 725 2525 450 2450 
Q 350 2675 250 2925 
Q 500 3075 812 3725 
Q 1125 4375 1325 5000 
Q 1600 4825 1850 4750 
Q 1600 4375 1387 3962 
Q 1175 3550 800 2925 
Q 1375 2925 1650 2950 
z
M 2425 700 
Q 2400 425 2425 250 
Q 2000 150 1462 -25 
Q 925 -200 475 -425 
Q 400 -150 300 125 
Q 950 275 1187 337 
Q 1425 400 2425 700 
z
M 3725 875 
Q 3650 800 3287 400 
Q 2925 0 2475 -475 
Q 2300 -250 2150 -125 
Q 2425 100 2750 462 
Q 3075 825 3325 1225 
Q 3475 1050 3725 875 
z
M 5275 1225 
Q 5925 375 6200 -100 
Q 5950 -200 5750 -375 
Q 5475 175 4900 950 
Q 5075 1050 5275 1225 
z
M 4200 1975 
L 4200 2775 
L 3575 2775 
Q 3325 2250 3175 1975 
L 4200 1975 
z
" transform="scale(0.015625)"/>
        <path id="SimHei-65f6" d="M 2525 4575 
Q 2500 3675 2500 2400 
Q 2500 1125 2525 400 
L 2000 400 
L 2000 875 
L 1000 875 
L 1000 50 
L 475 50 
Q 500 1200 500 2350 
Q 500 3525 475 4575 
L 2525 4575 
z
M 4875 3825 
Q 4875 4575 4850 5225 
L 5400 5225 
Q 5375 4575 5375 3825 
Q 5750 3825 6175 3850 
L 6175 3375 
Q 5750 3400 5375 3400 
L 5375 50 
Q 5375 -325 5075 -425 
Q 4775 -525 4300 -575 
Q 4300 -275 4025 0 
Q 4500 -50 4687 -25 
Q 4875 0 4875 300 
L 4875 3400 
Q 3625 3400 2775 3375 
L 2775 3850 
Q 3575 3825 4875 3825 
z
M 2000 1300 
L 2000 2550 
L 1000 2550 
L 1000 1300 
L 2000 1300 
z
M 2000 2975 
L 2000 4150 
L 1000 4150 
L 1000 2975 
L 2000 2975 
z
M 3550 2725 
Q 3875 2200 4175 1600 
Q 3925 1525 3650 1375 
Q 3450 1975 3075 2500 
Q 3300 2600 3550 2725 
z
" transform="scale(0.015625)"/>
        <path id="SimHei-95f4" d="M 4450 3550 
Q 4425 3075 4425 2725 
L 4425 1400 
Q 4425 1075 4450 625 
L 1925 625 
Q 1950 1075 1950 1425 
L 1950 2725 
Q 1950 3075 1925 3550 
L 4450 3550 
z
M 5800 4875 
Q 5775 4400 5775 3925 
L 5775 250 
Q 5800 -325 5462 -450 
Q 5125 -575 4725 -625 
Q 4700 -325 4525 -25 
Q 5000 -50 5137 25 
Q 5275 100 5275 350 
L 5275 4450 
L 3775 4450 
Q 3175 4450 2650 4425 
L 2650 4900 
Q 3175 4875 3775 4875 
L 5800 4875 
z
M 550 -525 
Q 600 -25 600 525 
L 600 3150 
Q 600 3675 550 4025 
L 1125 4025 
Q 1100 3650 1100 3300 
L 1100 500 
Q 1100 0 1125 -525 
L 550 -525 
z
M 3950 1025 
L 3950 1950 
L 2425 1950 
L 2425 1025 
L 3950 1025 
z
M 3950 2350 
L 3950 3150 
L 2425 3150 
L 2425 2350 
L 3950 2350 
z
M 1525 5300 
Q 1750 5000 2225 4350 
Q 1950 4225 1700 4075 
Q 1450 4575 1075 5025 
Q 1350 5225 1525 5300 
z
" transform="scale(0.015625)"/>
       </defs>
       <use xlink:href="#SimHei-8bad"/>
       <use xlink:href="#SimHei-7ec3" x="100"/>
       <use xlink:href="#SimHei-65f6" x="200"/>
       <use xlink:href="#SimHei-95f4" x="300"/>
      </g>
      <!-- (s) -->
      <g style="fill: #333333" transform="translate(706.37725 379.897938) scale(0.1 -0.1)">
       <use xlink:href="#SimHei-28"/>
       <use xlink:href="#SimHei-73" x="50"/>
       <use xlink:href="#SimHei-29" x="100"/>
      </g>
     </g>
    </g>
    <g id="xtick_5">
     <g id="line2d_17">
      <g>
       <use xlink:href="#mafb32a24b7" x="853.7339" y="354.8745" style="fill: #333333; stroke: #333333; stroke-width: 0.8"/>
      </g>
     </g>
     <g id="text_19">
      <!-- 推理速度 -->
      <g style="fill: #333333" transform="translate(833.7339 369.882313) scale(0.1 -0.1)">
       <defs>
        <path id="SimHei-63a8" d="M 3800 5025 
Q 3725 4900 3612 4662 
Q 3500 4425 3325 4100 
L 5050 4100 
Q 5600 4100 6025 4150 
L 6025 3650 
Q 5575 3675 5050 3675 
L 4775 3675 
L 4775 2875 
Q 5450 2875 5825 2900 
L 5825 2450 
Q 5450 2475 4775 2475 
L 4775 1600 
Q 5475 1600 5825 1625 
L 5825 1175 
Q 5475 1200 4775 1200 
L 4775 325 
L 5200 325 
Q 5725 325 6175 350 
L 6175 -100 
Q 5725 -75 5200 -75 
L 3300 -75 
L 3300 -600 
L 2825 -600 
Q 2850 -175 2850 650 
L 2850 3125 
Q 2700 2875 2450 2525 
Q 2325 2725 2075 2875 
Q 2550 3500 2825 4075 
Q 3100 4650 3225 5225 
Q 3500 5075 3800 5025 
z
M 1175 4450 
Q 1175 4800 1125 5150 
L 1675 5150 
Q 1625 4850 1625 4450 
L 1625 3800 
Q 1900 3800 2300 3825 
L 2300 3375 
Q 1900 3400 1625 3400 
L 1625 2250 
Q 1875 2350 2175 2525 
Q 2200 2325 2250 2050 
Q 2025 1975 1625 1800 
L 1625 -50 
Q 1600 -275 1425 -387 
Q 1250 -500 625 -600 
Q 650 -375 475 0 
Q 900 -50 1037 -12 
Q 1175 25 1175 200 
L 1175 1650 
Q 1000 1575 475 1300 
Q 400 1500 200 1825 
Q 475 1875 1175 2100 
L 1175 3400 
Q 675 3400 375 3375 
L 375 3825 
Q 650 3800 1175 3800 
L 1175 4450 
z
M 4300 1600 
L 4300 2475 
L 3300 2475 
L 3300 1600 
L 4300 1600 
z
M 4300 325 
L 4300 1200 
L 3300 1200 
L 3300 325 
L 4300 325 
z
M 4300 2875 
L 4300 3675 
L 3300 3675 
L 3300 2875 
L 4300 2875 
z
M 4600 5225 
Q 4725 5025 5050 4550 
Q 4925 4500 4600 4300 
Q 4500 4525 4125 5000 
Q 4450 5150 4600 5225 
z
" transform="scale(0.015625)"/>
        <path id="SimHei-7406" d="M 5825 4850 
Q 5800 4525 5800 3425 
Q 5800 2350 5825 1875 
L 4450 1875 
L 4450 1125 
L 5200 1125 
Q 5650 1125 5900 1150 
L 5900 700 
Q 5625 725 5200 725 
L 4450 725 
L 4450 -125 
L 5350 -125 
Q 5825 -125 6150 -100 
L 6150 -550 
Q 5825 -525 5375 -525 
L 2950 -525 
Q 2550 -525 2250 -550 
L 2250 -100 
Q 2575 -125 2950 -125 
L 3975 -125 
L 3975 725 
L 3150 725 
Q 2825 725 2575 700 
L 2575 1150 
Q 2825 1125 3150 1125 
L 3975 1125 
L 3975 1875 
L 2625 1875 
Q 2650 2250 2650 3400 
Q 2650 4550 2625 4850 
L 5825 4850 
z
M 1750 4525 
Q 2025 4525 2350 4550 
L 2350 4075 
Q 2000 4100 1750 4100 
L 1525 4100 
L 1525 2750 
Q 1875 2750 2225 2775 
L 2225 2300 
Q 1875 2325 1525 2325 
L 1525 725 
Q 2000 900 2325 1050 
Q 2375 800 2425 625 
Q 1950 475 1362 237 
Q 775 0 450 -200 
Q 350 50 225 325 
Q 550 375 1075 600 
L 1075 2325 
Q 625 2325 300 2300 
L 300 2775 
Q 650 2750 1075 2750 
L 1075 4100 
L 775 4100 
Q 550 4100 225 4075 
L 225 4550 
Q 550 4525 775 4525 
L 1750 4525 
z
M 5325 2275 
L 5325 3175 
L 4450 3175 
L 4450 2275 
L 5325 2275 
z
M 5325 3550 
L 5325 4450 
L 4450 4450 
L 4450 3550 
L 5325 3550 
z
M 3975 2275 
L 3975 3175 
L 3125 3175 
L 3125 2275 
L 3975 2275 
z
M 3975 3550 
L 3975 4450 
L 3125 4450 
L 3125 3550 
L 3975 3550 
z
" transform="scale(0.015625)"/>
        <path id="SimHei-901f" d="M 3725 4600 
Q 3725 4975 3700 5250 
L 4175 5250 
Q 4150 5000 4150 4600 
L 5175 4600 
Q 5550 4600 5925 4625 
L 5925 4175 
Q 5550 4200 5175 4200 
L 4150 4200 
L 4150 3725 
L 5700 3725 
Q 5675 3325 5675 2950 
Q 5675 2575 5700 2200 
L 4150 2200 
Q 4150 725 4175 225 
L 3700 225 
Q 3725 725 3725 1925 
Q 3425 1475 3100 1125 
Q 2775 775 2300 425 
Q 2125 625 1825 775 
Q 2275 950 2712 1387 
Q 3150 1825 3325 2200 
L 2200 2200 
Q 2225 2625 2225 2950 
Q 2225 3300 2200 3725 
L 3725 3725 
L 3725 4200 
L 2675 4200 
Q 2325 4200 1925 4175 
L 1925 4625 
Q 2325 4600 2675 4600 
L 3725 4600 
z
M 1500 2875 
Q 1475 2400 1475 1925 
L 1475 550 
Q 2150 -25 3725 -37 
Q 5300 -50 6200 100 
Q 6025 -175 6000 -525 
Q 3925 -550 3087 -475 
Q 2250 -400 1800 -137 
Q 1350 125 1112 -62 
Q 875 -250 600 -600 
Q 475 -375 200 -200 
Q 475 25 1000 400 
L 1000 2450 
Q 675 2450 275 2425 
L 275 2900 
Q 700 2875 1000 2875 
L 1500 2875 
z
M 4550 2050 
Q 4950 1700 5925 925 
Q 5725 775 5550 550 
Q 5075 1000 4250 1675 
Q 4400 1825 4550 2050 
z
M 3725 2575 
L 3725 3325 
L 2675 3325 
L 2675 2575 
L 3725 2575 
z
M 5200 2575 
L 5200 3325 
L 4150 3325 
L 4150 2575 
L 5200 2575 
z
M 1100 4950 
Q 1425 4350 1600 3850 
Q 1350 3750 1050 3625 
Q 975 4050 650 4800 
Q 900 4850 1100 4950 
z
" transform="scale(0.015625)"/>
       </defs>
       <use xlink:href="#SimHei-63a8"/>
       <use xlink:href="#SimHei-7406" x="100"/>
       <use xlink:href="#SimHei-901f" x="200"/>
       <use xlink:href="#SimHei-5ea6" x="300"/>
      </g>
      <!-- (ms) -->
      <g style="fill: #333333" transform="translate(843.7339 379.897938) scale(0.1 -0.1)">
       <defs>
        <path id="SimHei-6d" d="M 3050 125 
L 2550 125 
L 2550 2150 
Q 2550 2300 2500 2400 
Q 2450 2500 2300 2500 
Q 2125 2500 1975 2312 
Q 1825 2125 1825 1825 
L 1825 125 
L 1325 125 
L 1325 2150 
Q 1325 2300 1275 2400 
Q 1225 2500 1075 2500 
Q 900 2500 750 2312 
Q 600 2125 600 1825 
L 600 125 
L 100 125 
L 100 2925 
L 600 2925 
L 600 2550 
Q 725 2750 900 2862 
Q 1075 2975 1275 2975 
Q 1475 2975 1612 2862 
Q 1750 2750 1800 2550 
Q 1925 2750 2087 2862 
Q 2250 2975 2450 2975 
Q 2750 2975 2900 2812 
Q 3050 2650 3050 2350 
L 3050 125 
z
" transform="scale(0.015625)"/>
       </defs>
       <use xlink:href="#SimHei-28"/>
       <use xlink:href="#SimHei-6d" x="50"/>
       <use xlink:href="#SimHei-73" x="100"/>
       <use xlink:href="#SimHei-29" x="150"/>
      </g>
     </g>
    </g>
   </g>
   <g id="matplotlib.axis_4">
    <g id="ytick_7">
     <g id="line2d_18">
      <path d="M 506.190125 354.8745 
L 921.564375 354.8745 
" clip-path="url(#pd94f6d6f61)" style="fill: none; stroke: #e0e0e0; stroke-opacity: 0.4; stroke-width: 0.8; stroke-linecap: square"/>
     </g>
     <g id="line2d_19">
      <g>
       <use xlink:href="#m44c1628776" x="506.190125" y="354.8745" style="fill: #333333; stroke: #333333; stroke-width: 0.8"/>
      </g>
     </g>
     <g id="text_20">
      <!-- $\mathdefault{10^{0}}$ -->
      <g style="fill: #333333" transform="translate(485.290125 358.3495) scale(0.1 -0.1)">
       <use xlink:href="#SimHei-31" transform="translate(0 0.0625)"/>
       <use xlink:href="#SimHei-30" transform="translate(50 0.0625)"/>
       <use xlink:href="#SimHei-30" transform="translate(100.799805 32.054688) scale(0.7)"/>
      </g>
     </g>
    </g>
    <g id="ytick_8">
     <g id="line2d_20">
      <path d="M 506.190125 258.314767 
L 921.564375 258.314767 
" clip-path="url(#pd94f6d6f61)" style="fill: none; stroke: #e0e0e0; stroke-opacity: 0.4; stroke-width: 0.8; stroke-linecap: square"/>
     </g>
     <g id="line2d_21">
      <g>
       <use xlink:href="#m44c1628776" x="506.190125" y="258.314767" style="fill: #333333; stroke: #333333; stroke-width: 0.8"/>
      </g>
     </g>
     <g id="text_21">
      <!-- $\mathdefault{10^{1}}$ -->
      <g style="fill: #333333" transform="translate(485.290125 261.789767) scale(0.1 -0.1)">
       <use xlink:href="#SimHei-31" transform="translate(0 0.335938)"/>
       <use xlink:href="#SimHei-30" transform="translate(50 0.335938)"/>
       <use xlink:href="#SimHei-31" transform="translate(100.799805 32.328125) scale(0.7)"/>
      </g>
     </g>
    </g>
    <g id="ytick_9">
     <g id="line2d_22">
      <path d="M 506.190125 161.755034 
L 921.564375 161.755034 
" clip-path="url(#pd94f6d6f61)" style="fill: none; stroke: #e0e0e0; stroke-opacity: 0.4; stroke-width: 0.8; stroke-linecap: square"/>
     </g>
     <g id="line2d_23">
      <g>
       <use xlink:href="#m44c1628776" x="506.190125" y="161.755034" style="fill: #333333; stroke: #333333; stroke-width: 0.8"/>
      </g>
     </g>
     <g id="text_22">
      <!-- $\mathdefault{10^{2}}$ -->
      <g style="fill: #333333" transform="translate(485.290125 165.280034) scale(0.1 -0.1)">
       <use xlink:href="#SimHei-31" transform="translate(0 0.789062)"/>
       <use xlink:href="#SimHei-30" transform="translate(50 0.789062)"/>
       <use xlink:href="#SimHei-32" transform="translate(100.799805 32.78125) scale(0.7)"/>
      </g>
     </g>
    </g>
    <g id="ytick_10">
     <g id="line2d_24">
      <path d="M 506.190125 65.1953 
L 921.564375 65.1953 
" clip-path="url(#pd94f6d6f61)" style="fill: none; stroke: #e0e0e0; stroke-opacity: 0.4; stroke-width: 0.8; stroke-linecap: square"/>
     </g>
     <g id="line2d_25">
      <g>
       <use xlink:href="#m44c1628776" x="506.190125" y="65.1953" style="fill: #333333; stroke: #333333; stroke-width: 0.8"/>
      </g>
     </g>
     <g id="text_23">
      <!-- $\mathdefault{10^{3}}$ -->
      <g style="fill: #333333" transform="translate(485.290125 68.7203) scale(0.1 -0.1)">
       <use xlink:href="#SimHei-31" transform="translate(0 0.789062)"/>
       <use xlink:href="#SimHei-30" transform="translate(50 0.789062)"/>
       <use xlink:href="#SimHei-33" transform="translate(100.799805 32.78125) scale(0.7)"/>
      </g>
     </g>
    </g>
    <g id="ytick_11">
     <g id="line2d_26">
      <defs>
       <path id="m80199f29de" d="M 0 0 
L -2 0 
" style="stroke: #333333; stroke-width: 0.6"/>
      </defs>
      <g>
       <use xlink:href="#m80199f29de" x="506.190125" y="325.807124" style="fill: #333333; stroke: #333333; stroke-width: 0.6"/>
      </g>
     </g>
    </g>
    <g id="ytick_12">
     <g id="line2d_27">
      <g>
       <use xlink:href="#m80199f29de" x="506.190125" y="308.803799" style="fill: #333333; stroke: #333333; stroke-width: 0.6"/>
      </g>
     </g>
    </g>
    <g id="ytick_13">
     <g id="line2d_28">
      <g>
       <use xlink:href="#m80199f29de" x="506.190125" y="296.739748" style="fill: #333333; stroke: #333333; stroke-width: 0.6"/>
      </g>
     </g>
    </g>
    <g id="ytick_14">
     <g id="line2d_29">
      <g>
       <use xlink:href="#m80199f29de" x="506.190125" y="287.382143" style="fill: #333333; stroke: #333333; stroke-width: 0.6"/>
      </g>
     </g>
    </g>
    <g id="ytick_15">
     <g id="line2d_30">
      <g>
       <use xlink:href="#m80199f29de" x="506.190125" y="279.736423" style="fill: #333333; stroke: #333333; stroke-width: 0.6"/>
      </g>
     </g>
    </g>
    <g id="ytick_16">
     <g id="line2d_31">
      <g>
       <use xlink:href="#m80199f29de" x="506.190125" y="273.272059" style="fill: #333333; stroke: #333333; stroke-width: 0.6"/>
      </g>
     </g>
    </g>
    <g id="ytick_17">
     <g id="line2d_32">
      <g>
       <use xlink:href="#m80199f29de" x="506.190125" y="267.672372" style="fill: #333333; stroke: #333333; stroke-width: 0.6"/>
      </g>
     </g>
    </g>
    <g id="ytick_18">
     <g id="line2d_33">
      <g>
       <use xlink:href="#m80199f29de" x="506.190125" y="262.733098" style="fill: #333333; stroke: #333333; stroke-width: 0.6"/>
      </g>
     </g>
    </g>
    <g id="ytick_19">
     <g id="line2d_34">
      <g>
       <use xlink:href="#m80199f29de" x="506.190125" y="229.247391" style="fill: #333333; stroke: #333333; stroke-width: 0.6"/>
      </g>
     </g>
    </g>
    <g id="ytick_20">
     <g id="line2d_35">
      <g>
       <use xlink:href="#m80199f29de" x="506.190125" y="212.244066" style="fill: #333333; stroke: #333333; stroke-width: 0.6"/>
      </g>
     </g>
    </g>
    <g id="ytick_21">
     <g id="line2d_36">
      <g>
       <use xlink:href="#m80199f29de" x="506.190125" y="200.180015" style="fill: #333333; stroke: #333333; stroke-width: 0.6"/>
      </g>
     </g>
    </g>
    <g id="ytick_22">
     <g id="line2d_37">
      <g>
       <use xlink:href="#m80199f29de" x="506.190125" y="190.82241" style="fill: #333333; stroke: #333333; stroke-width: 0.6"/>
      </g>
     </g>
    </g>
    <g id="ytick_23">
     <g id="line2d_38">
      <g>
       <use xlink:href="#m80199f29de" x="506.190125" y="183.17669" style="fill: #333333; stroke: #333333; stroke-width: 0.6"/>
      </g>
     </g>
    </g>
    <g id="ytick_24">
     <g id="line2d_39">
      <g>
       <use xlink:href="#m80199f29de" x="506.190125" y="176.712326" style="fill: #333333; stroke: #333333; stroke-width: 0.6"/>
      </g>
     </g>
    </g>
    <g id="ytick_25">
     <g id="line2d_40">
      <g>
       <use xlink:href="#m80199f29de" x="506.190125" y="171.112639" style="fill: #333333; stroke: #333333; stroke-width: 0.6"/>
      </g>
     </g>
    </g>
    <g id="ytick_26">
     <g id="line2d_41">
      <g>
       <use xlink:href="#m80199f29de" x="506.190125" y="166.173365" style="fill: #333333; stroke: #333333; stroke-width: 0.6"/>
      </g>
     </g>
    </g>
    <g id="ytick_27">
     <g id="line2d_42">
      <g>
       <use xlink:href="#m80199f29de" x="506.190125" y="132.687658" style="fill: #333333; stroke: #333333; stroke-width: 0.6"/>
      </g>
     </g>
    </g>
    <g id="ytick_28">
     <g id="line2d_43">
      <g>
       <use xlink:href="#m80199f29de" x="506.190125" y="115.684333" style="fill: #333333; stroke: #333333; stroke-width: 0.6"/>
      </g>
     </g>
    </g>
    <g id="ytick_29">
     <g id="line2d_44">
      <g>
       <use xlink:href="#m80199f29de" x="506.190125" y="103.620281" style="fill: #333333; stroke: #333333; stroke-width: 0.6"/>
      </g>
     </g>
    </g>
    <g id="ytick_30">
     <g id="line2d_45">
      <g>
       <use xlink:href="#m80199f29de" x="506.190125" y="94.262676" style="fill: #333333; stroke: #333333; stroke-width: 0.6"/>
      </g>
     </g>
    </g>
    <g id="ytick_31">
     <g id="line2d_46">
      <g>
       <use xlink:href="#m80199f29de" x="506.190125" y="86.616956" style="fill: #333333; stroke: #333333; stroke-width: 0.6"/>
      </g>
     </g>
    </g>
    <g id="ytick_32">
     <g id="line2d_47">
      <g>
       <use xlink:href="#m80199f29de" x="506.190125" y="80.152592" style="fill: #333333; stroke: #333333; stroke-width: 0.6"/>
      </g>
     </g>
    </g>
    <g id="ytick_33">
     <g id="line2d_48">
      <g>
       <use xlink:href="#m80199f29de" x="506.190125" y="74.552905" style="fill: #333333; stroke: #333333; stroke-width: 0.6"/>
      </g>
     </g>
    </g>
    <g id="ytick_34">
     <g id="line2d_49">
      <g>
       <use xlink:href="#m80199f29de" x="506.190125" y="69.613631" style="fill: #333333; stroke: #333333; stroke-width: 0.6"/>
      </g>
     </g>
    </g>
    <g id="ytick_35">
     <g id="line2d_50">
      <g>
       <use xlink:href="#m80199f29de" x="506.190125" y="36.127924" style="fill: #333333; stroke: #333333; stroke-width: 0.6"/>
      </g>
     </g>
    </g>
    <g id="text_24">
     <!-- 数值 (对数坐标) -->
     <g style="fill: #333333" transform="translate(479.790125 234.3185) rotate(-90) scale(0.12 -0.12)">
      <defs>
       <path id="SimHei-503c" d="M 3675 4450 
L 3675 5100 
Q 3975 5075 4350 5050 
Q 4225 4875 4200 4450 
L 5125 4450 
Q 5550 4450 5875 4475 
L 5875 4025 
Q 5525 4050 5125 4050 
L 4175 4050 
L 4125 3500 
L 5400 3500 
Q 5375 3200 5375 2700 
L 5375 150 
Q 5875 150 6100 175 
L 6100 -275 
Q 5775 -250 5200 -250 
L 2850 -250 
Q 2275 -250 1900 -275 
L 1900 175 
Q 2125 150 2600 150 
L 2600 2700 
Q 2600 3175 2575 3500 
L 3600 3500 
L 3650 4050 
L 3200 4050 
Q 2575 4050 2225 4025 
L 2225 4475 
Q 2550 4450 3200 4450 
L 3675 4450 
z
M 2225 4900 
Q 2025 4675 1650 3750 
L 1650 450 
Q 1650 -75 1675 -550 
L 1150 -550 
Q 1175 -125 1175 375 
L 1175 2950 
Q 875 2450 625 2150 
Q 425 2425 250 2575 
Q 500 2825 937 3537 
Q 1375 4250 1625 5150 
Q 1975 4975 2225 4900 
z
M 4925 2650 
L 4925 3150 
L 3075 3150 
L 3075 2650 
L 4925 2650 
z
M 4925 150 
L 4925 625 
L 3075 625 
L 3075 150 
L 4925 150 
z
M 4925 1000 
L 4925 1450 
L 3075 1450 
L 3075 1000 
L 4925 1000 
z
M 4925 1825 
L 4925 2275 
L 3075 2275 
L 3075 1825 
L 4925 1825 
z
" transform="scale(0.015625)"/>
       <path id="SimHei-5750" d="M 3450 5100 
Q 3425 4675 3425 4150 
L 3425 1500 
L 4550 1500 
Q 4975 1500 5450 1525 
L 5450 1075 
Q 5000 1100 4500 1100 
L 3425 1100 
L 3425 50 
L 5075 50 
Q 5500 50 5975 75 
L 5975 -375 
Q 5525 -350 5075 -350 
L 1475 -350 
Q 925 -350 400 -375 
L 400 75 
Q 925 50 1475 50 
L 2925 50 
L 2925 1100 
L 2050 1100 
Q 1450 1100 950 1075 
L 950 1525 
Q 1450 1500 2050 1500 
L 2925 1500 
L 2925 4150 
Q 2925 4675 2900 5100 
L 3450 5100 
z
M 5200 4450 
Q 5050 4250 4825 3600 
Q 5200 3300 5975 2500 
Q 5775 2400 5575 2150 
Q 5075 2800 4650 3150 
Q 4375 2500 3975 1925 
Q 3725 2125 3525 2200 
Q 3875 2575 4212 3362 
Q 4550 4150 4600 4650 
Q 4900 4525 5200 4450 
z
M 350 2150 
Q 600 2375 950 3087 
Q 1300 3800 1450 4575 
Q 1625 4475 2050 4400 
Q 1950 4275 1862 4050 
Q 1775 3825 1700 3575 
Q 2400 2950 2700 2475 
Q 2425 2325 2250 2150 
Q 2025 2550 1887 2725 
Q 1750 2900 1500 3125 
Q 1250 2525 800 1875 
Q 575 2050 350 2150 
z
" transform="scale(0.015625)"/>
       <path id="SimHei-6807" d="M 1275 4400 
Q 1275 4800 1250 5175 
L 1750 5175 
Q 1725 4825 1725 4400 
L 1725 3800 
Q 2125 3800 2575 3825 
L 2575 3350 
Q 2125 3375 1725 3375 
L 1725 2525 
Q 1900 2650 2075 2800 
Q 2400 2275 2650 1775 
Q 2375 1650 2175 1500 
Q 2025 2000 1725 2425 
L 1725 475 
Q 1725 -50 1750 -575 
L 1250 -575 
Q 1275 -25 1275 475 
L 1275 2100 
Q 1025 1400 500 750 
Q 350 950 125 1125 
Q 550 1550 812 2187 
Q 1075 2825 1150 3375 
Q 675 3375 325 3325 
L 325 3825 
Q 800 3800 1275 3800 
L 1275 4400 
z
M 5175 3125 
Q 5675 3125 6050 3150 
L 6050 2675 
Q 5675 2700 5275 2700 
L 4500 2700 
L 4500 175 
Q 4500 -225 4275 -350 
Q 4050 -475 3475 -550 
Q 3425 -250 3275 25 
Q 3775 25 3900 62 
Q 4025 100 4025 350 
L 4025 2700 
L 3400 2700 
Q 2775 2700 2500 2650 
L 2500 3150 
Q 2825 3125 3400 3125 
L 5175 3125 
z
M 4900 4775 
Q 5425 4775 5750 4800 
L 5750 4300 
Q 5275 4350 4750 4350 
L 3525 4350 
Q 3125 4350 2750 4300 
L 2750 4800 
Q 3100 4775 3525 4775 
L 4900 4775 
z
M 5275 2025 
Q 5825 1175 6200 500 
Q 5925 375 5650 200 
Q 5375 925 4825 1725 
Q 5075 1850 5275 2025 
z
M 3600 1775 
Q 3500 1625 3225 975 
Q 2950 325 2800 50 
Q 2575 175 2300 275 
Q 2625 775 2787 1187 
Q 2950 1600 3050 2000 
Q 3325 1875 3600 1775 
z
" transform="scale(0.015625)"/>
      </defs>
      <use xlink:href="#SimHei-6570"/>
      <use xlink:href="#SimHei-503c" x="100"/>
      <use xlink:href="#SimHei-20" x="200"/>
      <use xlink:href="#SimHei-28" x="250"/>
      <use xlink:href="#SimHei-5bf9" x="300"/>
      <use xlink:href="#SimHei-6570" x="400"/>
      <use xlink:href="#SimHei-5750" x="500"/>
      <use xlink:href="#SimHei-6807" x="600"/>
      <use xlink:href="#SimHei-29" x="700"/>
     </g>
    </g>
   </g>
   <g id="patch_19">
    <path d="M 506.190125 354.8745 
L 506.190125 23.7625 
" style="fill: none; stroke: #333333; stroke-width: 0.8; stroke-linejoin: miter; stroke-linecap: square"/>
   </g>
   <g id="patch_20">
    <path d="M 506.190125 354.8745 
L 921.564375 354.8745 
" style="fill: none; stroke: #333333; stroke-width: 0.8; stroke-linejoin: miter; stroke-linecap: square"/>
   </g>
   <g id="text_25">
    <!-- 23.9 -->
    <g style="fill: #333333" transform="translate(540.545686 217.669316) scale(0.09 -0.09)">
     <use xlink:href="#SimHei-32"/>
     <use xlink:href="#SimHei-33" x="50"/>
     <use xlink:href="#SimHei-2e" x="100"/>
     <use xlink:href="#SimHei-39" x="150"/>
    </g>
   </g>
   <g id="text_26">
    <!-- 1462.4 -->
    <g style="fill: #333333" transform="translate(675.902336 45.131554) scale(0.09 -0.09)">
     <use xlink:href="#SimHei-31"/>
     <use xlink:href="#SimHei-34" x="50"/>
     <use xlink:href="#SimHei-36" x="100"/>
     <use xlink:href="#SimHei-32" x="150"/>
     <use xlink:href="#SimHei-2e" x="200"/>
     <use xlink:href="#SimHei-34" x="250"/>
    </g>
   </g>
   <g id="text_27">
    <!-- 4.2 -->
    <g style="fill: #333333" transform="translate(822.508986 290.072433) scale(0.09 -0.09)">
     <use xlink:href="#SimHei-34"/>
     <use xlink:href="#SimHei-2e" x="50"/>
     <use xlink:href="#SimHei-32" x="100"/>
    </g>
   </g>
   <g id="text_28">
    <!-- 28.0 -->
    <g style="fill: #333333" transform="translate(589.495514 211.072257) scale(0.09 -0.09)">
     <use xlink:href="#SimHei-32"/>
     <use xlink:href="#SimHei-38" x="50"/>
     <use xlink:href="#SimHei-2e" x="100"/>
     <use xlink:href="#SimHei-30" x="150"/>
    </g>
   </g>
   <g id="text_29">
    <!-- 1790.6 -->
    <g style="fill: #333333" transform="translate(724.852164 36.640825) scale(0.09 -0.09)">
     <use xlink:href="#SimHei-31"/>
     <use xlink:href="#SimHei-37" x="50"/>
     <use xlink:href="#SimHei-39" x="100"/>
     <use xlink:href="#SimHei-30" x="150"/>
     <use xlink:href="#SimHei-2e" x="200"/>
     <use xlink:href="#SimHei-36" x="250"/>
    </g>
   </g>
   <g id="text_30">
    <!-- 3.8 -->
    <g style="fill: #333333" transform="translate(871.458814 294.326633) scale(0.09 -0.09)">
     <use xlink:href="#SimHei-33"/>
     <use xlink:href="#SimHei-2e" x="50"/>
     <use xlink:href="#SimHei-38" x="100"/>
    </g>
   </g>
   <g id="text_31">
    <!-- (b) 模型效率对比 -->
    <g style="fill: #333333" transform="translate(661.87725 17.7625) scale(0.13 -0.13)">
     <defs>
      <path id="SimHei-62" d="M 2825 1525 
Q 2825 800 2475 437 
Q 2125 75 1625 75 
Q 1350 75 1150 175 
Q 950 275 800 500 
L 800 125 
L 300 125 
L 300 4400 
L 800 4400 
L 800 2550 
Q 950 2775 1150 2887 
Q 1350 3000 1625 3000 
Q 2125 3000 2475 2625 
Q 2825 2250 2825 1525 
z
M 2275 1525 
Q 2275 2000 2087 2275 
Q 1900 2550 1525 2550 
Q 1225 2550 1012 2275 
Q 800 2000 800 1525 
Q 800 1050 1012 787 
Q 1225 525 1525 525 
Q 1900 525 2087 787 
Q 2275 1050 2275 1525 
z
" transform="scale(0.015625)"/>
      <path id="SimHei-6a21" d="M 5700 3675 
Q 5675 3400 5675 2725 
Q 5675 2050 5700 1725 
L 4375 1725 
Q 4350 1450 4325 1200 
L 5225 1200 
Q 5750 1200 6025 1225 
L 6025 825 
Q 5725 850 5225 850 
L 4700 850 
Q 5075 375 5437 137 
Q 5800 -100 6200 -200 
Q 5975 -375 5850 -625 
Q 5275 -400 4862 25 
Q 4450 450 4300 775 
L 4225 775 
Q 4000 275 3537 -62 
Q 3075 -400 2475 -625 
Q 2350 -375 2125 -200 
Q 2775 -75 3200 200 
Q 3625 475 3775 850 
L 3325 850 
Q 2800 850 2400 825 
L 2400 1225 
Q 2800 1200 3350 1200 
L 3875 1200 
Q 3925 1475 3925 1725 
L 2750 1725 
Q 2775 2075 2775 2700 
Q 2775 3350 2750 3675 
L 5700 3675 
z
M 2175 1650 
Q 2025 1975 1675 2525 
L 1675 300 
Q 1675 -300 1700 -550 
L 1175 -550 
Q 1200 -275 1200 250 
L 1200 2225 
Q 1125 2000 962 1712 
Q 800 1425 600 1050 
Q 450 1275 200 1425 
Q 600 1825 850 2425 
Q 1100 3025 1175 3425 
L 950 3425 
Q 700 3425 400 3400 
L 400 3825 
Q 675 3800 825 3800 
L 1200 3800 
L 1200 4350 
Q 1200 4775 1175 5150 
L 1700 5150 
Q 1675 4825 1675 4425 
L 1675 3800 
Q 2075 3800 2375 3825 
L 2375 3400 
Q 2050 3425 1675 3425 
L 1675 2575 
Q 1850 2675 2000 2775 
Q 2150 2525 2287 2325 
Q 2425 2125 2550 1925 
Q 2325 1775 2175 1650 
z
M 3375 4300 
L 3175 4300 
Q 2700 4300 2425 4275 
L 2425 4675 
Q 2700 4650 3150 4650 
L 3375 4650 
Q 3375 5000 3350 5225 
L 3825 5225 
Q 3800 5000 3800 4650 
L 4550 4650 
Q 4550 4975 4525 5200 
L 5025 5200 
Q 5000 4925 5000 4650 
L 5375 4650 
Q 5650 4650 5950 4675 
L 5950 4275 
Q 5650 4300 5375 4300 
L 5000 4300 
L 5000 3850 
L 4550 3850 
L 4550 4300 
L 3800 4300 
L 3800 3875 
L 3375 3875 
L 3375 4300 
z
M 5275 2075 
L 5275 2525 
L 3200 2525 
L 3200 2075 
L 5275 2075 
z
M 5275 2875 
L 5275 3325 
L 3200 3325 
L 3200 2875 
L 5275 2875 
z
" transform="scale(0.015625)"/>
      <path id="SimHei-578b" d="M 2625 1775 
Q 2650 2325 2650 2700 
L 2650 3000 
L 1825 3000 
Q 1725 2375 1425 2000 
Q 1125 1625 775 1425 
Q 650 1650 375 1900 
Q 850 2075 1062 2362 
Q 1275 2650 1350 3000 
Q 900 3000 375 2975 
L 375 3450 
Q 925 3425 1400 3425 
Q 1425 3950 1425 4475 
Q 1075 4475 700 4450 
L 700 4900 
Q 1050 4875 1525 4875 
L 3000 4875 
Q 3275 4875 3650 4900 
L 3650 4450 
Q 3325 4475 3125 4475 
L 3125 3425 
Q 3450 3425 3825 3450 
L 3825 2975 
Q 3450 3000 3125 3000 
L 3125 2675 
Q 3125 2225 3150 1775 
L 2625 1775 
z
M 3000 1175 
Q 3000 1375 2975 1725 
L 3500 1725 
Q 3475 1375 3475 1175 
L 4550 1175 
Q 5050 1175 5450 1200 
L 5450 725 
Q 4975 750 4550 750 
L 3475 750 
L 3475 -50 
L 5275 -50 
Q 5700 -50 6100 -25 
L 6100 -500 
Q 5725 -475 5300 -475 
L 1250 -475 
Q 775 -475 400 -500 
L 400 -25 
Q 775 -50 1250 -50 
L 3000 -50 
L 3000 750 
L 2025 750 
Q 1500 750 975 725 
L 1050 1200 
Q 1500 1175 2025 1175 
L 3000 1175 
z
M 5775 5200 
Q 5750 4775 5750 4325 
L 5750 2400 
Q 5775 1950 5612 1775 
Q 5450 1600 4900 1525 
Q 4825 1775 4675 2100 
Q 5175 2075 5237 2150 
Q 5300 2225 5300 2525 
L 5300 4325 
Q 5300 4775 5275 5200 
L 5775 5200 
z
M 4600 4750 
Q 4575 4450 4575 3975 
L 4575 3200 
Q 4575 2825 4600 2425 
L 4100 2425 
Q 4125 2825 4125 3200 
L 4125 3975 
Q 4125 4450 4100 4750 
L 4600 4750 
z
M 2650 3425 
L 2650 4475 
L 1875 4475 
Q 1850 3750 1850 3425 
L 2650 3425 
z
" transform="scale(0.015625)"/>
      <path id="SimHei-6548" d="M 3500 2400 
Q 3400 2675 3200 2900 
Q 3500 3350 3750 4025 
Q 4000 4700 4100 5300 
Q 4400 5150 4750 5075 
Q 4625 4950 4500 4687 
Q 4375 4425 4225 4025 
Q 5800 4025 6150 4050 
L 6150 3625 
Q 5850 3650 5475 3650 
Q 5450 2925 5300 2137 
Q 5150 1350 4825 800 
Q 4900 575 5312 275 
Q 5725 -25 6175 -175 
Q 5875 -350 5775 -650 
Q 5350 -425 5050 -162 
Q 4750 100 4500 425 
Q 4175 125 3837 -112 
Q 3500 -350 2850 -700 
Q 2725 -425 2425 -250 
Q 2750 -200 3325 137 
Q 3900 475 4200 800 
Q 4000 1225 3887 1675 
Q 3775 2125 3675 2700 
L 3500 2400 
z
M 1100 2225 
Q 1525 1875 1925 1575 
Q 2125 1900 2200 2400 
Q 2450 2275 2700 2200 
Q 2475 1625 2300 1250 
L 3000 550 
Q 2775 375 2575 175 
Q 2400 450 2025 825 
Q 1825 600 1550 312 
Q 1275 25 700 -425 
Q 500 -175 250 -25 
Q 575 125 950 400 
Q 1325 675 1675 1175 
Q 1325 1475 850 1875 
L 1100 2225 
z
M 4075 2950 
Q 4100 2700 4212 2187 
Q 4325 1675 4525 1225 
Q 4775 1700 4887 2475 
Q 5000 3250 4975 3650 
L 4100 3650 
Q 3900 3125 3725 2850 
Q 3900 2850 4075 2950 
z
M 2500 4200 
Q 2875 4200 3175 4225 
L 3175 3800 
Q 2875 3825 2525 3825 
L 1000 3825 
Q 600 3825 275 3800 
L 275 4225 
Q 600 4200 1000 4200 
L 2500 4200 
z
M 1125 3650 
Q 1400 3500 1625 3325 
Q 1525 3250 1300 2900 
Q 1050 2525 675 2000 
Q 450 2150 225 2275 
Q 550 2575 787 2975 
Q 1025 3375 1125 3650 
z
M 2475 3625 
Q 2625 3400 2850 3100 
Q 3075 2800 3250 2575 
Q 3025 2450 2825 2275 
Q 2325 3000 2075 3325 
Q 2275 3425 2475 3625 
z
M 1825 5250 
Q 2025 4875 2175 4475 
Q 1950 4375 1700 4275 
Q 1550 4650 1350 5075 
Q 1575 5150 1825 5250 
z
" transform="scale(0.015625)"/>
     </defs>
     <use xlink:href="#SimHei-28"/>
     <use xlink:href="#SimHei-62" x="50"/>
     <use xlink:href="#SimHei-29" x="100"/>
     <use xlink:href="#SimHei-20" x="150"/>
     <use xlink:href="#SimHei-6a21" x="200"/>
     <use xlink:href="#SimHei-578b" x="300"/>
     <use xlink:href="#SimHei-6548" x="400"/>
     <use xlink:href="#SimHei-7387" x="500"/>
     <use xlink:href="#SimHei-5bf9" x="600"/>
     <use xlink:href="#SimHei-6bd4" x="700"/>
    </g>
   </g>
   <g id="legend_2">
    <g id="patch_21">
     <path d="M 815.564375 58.2625 
L 916.564375 58.2625 
L 916.564375 28.7625 
L 815.564375 28.7625 
z
" style="fill: #ffffff; opacity: 0.8; stroke: #cccccc; stroke-linejoin: miter"/>
    </g>
    <g id="patch_22">
     <path d="M 819.564375 39.7625 
L 839.564375 39.7625 
L 839.564375 32.7625 
L 819.564375 32.7625 
z
" style="fill: #e15759; stroke: #ffffff; stroke-width: 0.5; stroke-linejoin: miter"/>
    </g>
    <g id="text_32">
     <!-- ResNet50 -->
     <g style="fill: #333333" transform="translate(847.564375 39.7625) scale(0.1 -0.1)">
      <use xlink:href="#SimHei-52"/>
      <use xlink:href="#SimHei-65" x="50"/>
      <use xlink:href="#SimHei-73" x="100"/>
      <use xlink:href="#SimHei-4e" x="150"/>
      <use xlink:href="#SimHei-65" x="200"/>
      <use xlink:href="#SimHei-74" x="250"/>
      <use xlink:href="#SimHei-35" x="300"/>
      <use xlink:href="#SimHei-30" x="350"/>
     </g>
    </g>
    <g id="patch_23">
     <path d="M 819.564375 53.0125 
L 839.564375 53.0125 
L 839.564375 46.0125 
L 819.564375 46.0125 
z
" style="fill: #4e79a7; stroke: #ffffff; stroke-width: 0.5; stroke-linejoin: miter"/>
    </g>
    <g id="text_33">
     <!-- ConvNeXt-Tiny -->
     <g style="fill: #333333" transform="translate(847.564375 53.0125) scale(0.1 -0.1)">
      <use xlink:href="#SimHei-43"/>
      <use xlink:href="#SimHei-6f" x="50"/>
      <use xlink:href="#SimHei-6e" x="100"/>
      <use xlink:href="#SimHei-76" x="150"/>
      <use xlink:href="#SimHei-4e" x="200"/>
      <use xlink:href="#SimHei-65" x="250"/>
      <use xlink:href="#SimHei-58" x="300"/>
      <use xlink:href="#SimHei-74" x="350"/>
      <use xlink:href="#SimHei-2d" x="400"/>
      <use xlink:href="#SimHei-54" x="450"/>
      <use xlink:href="#SimHei-69" x="500"/>
      <use xlink:href="#SimHei-6e" x="550"/>
      <use xlink:href="#SimHei-79" x="600"/>
     </g>
    </g>
   </g>
  </g>
 </g>
 <defs>
  <clipPath id="p283c0a45e3">
   <rect x="44.403125" y="23.7625" width="415.37425" height="331.112"/>
  </clipPath>
  <clipPath id="pd94f6d6f61">
   <rect x="506.190125" y="23.7625" width="415.37425" height="331.112"/>
  </clipPath>
 </defs>
</svg>
