<?xml version="1.0" encoding="utf-8" standalone="no"?>
<!DOCTYPE svg PUBLIC "-//W3C//DTD SVG 1.1//EN"
  "http://www.w3.org/Graphics/SVG/1.1/DTD/svg11.dtd">
<svg xmlns:xlink="http://www.w3.org/1999/xlink" width="712.746875pt" height="460.582187pt" viewBox="0 0 712.746875 460.582187" xmlns="http://www.w3.org/2000/svg" version="1.1">
 <metadata>
  <rdf:RDF xmlns:dc="http://purl.org/dc/elements/1.1/" xmlns:cc="http://creativecommons.org/ns#" xmlns:rdf="http://www.w3.org/1999/02/22-rdf-syntax-ns#">
   <cc:Work>
    <dc:type rdf:resource="http://purl.org/dc/dcmitype/StillImage"/>
    <dc:date>2026-05-05T13:55:07.385577</dc:date>
    <dc:format>image/svg+xml</dc:format>
    <dc:creator>
     <cc:Agent>
      <dc:title>Matplotlib v3.9.4, https://matplotlib.org/</dc:title>
     </cc:Agent>
    </dc:creator>
   </cc:Work>
  </rdf:RDF>
 </metadata>
 <defs>
  <style type="text/css">*{stroke-linejoin: round; stroke-linecap: butt}</style>
 </defs>
 <g id="figure_1">
  <g id="patch_1">
   <path d="M 0 460.582187 
L 712.746875 460.582187 
L 712.746875 0 
L 0 0 
z
" style="fill: #ffffff"/>
  </g>
  <g id="axes_1">
   <g id="patch_2">
    <path d="M 44.403125 422.866562 
L 700.546875 422.866562 
L 700.546875 23.864062 
L 44.403125 23.864062 
z
" style="fill: #ffffff"/>
   </g>
   <g id="matplotlib.axis_1">
    <g id="xtick_1">
     <g id="line2d_1">
      <path d="M 104.052557 422.866562 
L 104.052557 23.864062 
" clip-path="url(#pbf418a8b90)" style="fill: none; stroke: #e0e0e0; stroke-opacity: 0.4; stroke-width: 0.8; stroke-linecap: square"/>
     </g>
     <g id="line2d_2">
      <defs>
       <path id="m98868bd77f" d="M 0 0 
L 0 3.5 
" style="stroke: #333333; stroke-width: 0.8"/>
      </defs>
      <g>
       <use xlink:href="#m98868bd77f" x="104.052557" y="422.866562" style="fill: #333333; stroke: #333333; stroke-width: 0.8"/>
      </g>
     </g>
     <g id="text_1">
      <!-- 5 -->
      <g style="fill: #333333" transform="translate(101.552557 436.741562) scale(0.1 -0.1)">
       <defs>
        <path id="SimHei-35" d="M 550 1325 
Q 725 650 1150 575 
Q 1575 500 1837 662 
Q 2100 825 2212 1087 
Q 2325 1350 2312 1675 
Q 2300 2000 2137 2225 
Q 1975 2450 1725 2525 
Q 1475 2600 1162 2525 
Q 850 2450 650 2175 
L 225 2225 
Q 275 2375 700 4375 
L 2675 4375 
L 2675 3925 
L 1075 3925 
Q 950 3250 825 2850 
Q 1200 3025 1525 3012 
Q 1850 3000 2150 2862 
Q 2450 2725 2587 2487 
Q 2725 2250 2787 2012 
Q 2850 1775 2837 1500 
Q 2825 1225 2725 937 
Q 2625 650 2425 462 
Q 2225 275 1937 162 
Q 1650 50 1275 75 
Q 900 100 562 350 
Q 225 600 100 1200 
L 550 1325 
z
" transform="scale(0.015625)"/>
       </defs>
       <use xlink:href="#SimHei-35"/>
      </g>
     </g>
    </g>
    <g id="xtick_2">
     <g id="line2d_3">
      <path d="M 178.614347 422.866562 
L 178.614347 23.864062 
" clip-path="url(#pbf418a8b90)" style="fill: none; stroke: #e0e0e0; stroke-opacity: 0.4; stroke-width: 0.8; stroke-linecap: square"/>
     </g>
     <g id="line2d_4">
      <g>
       <use xlink:href="#m98868bd77f" x="178.614347" y="422.866562" style="fill: #333333; stroke: #333333; stroke-width: 0.8"/>
      </g>
     </g>
     <g id="text_2">
      <!-- 10 -->
      <g style="fill: #333333" transform="translate(173.614347 436.741562) scale(0.1 -0.1)">
       <defs>
        <path id="SimHei-31" d="M 1400 3600 
Q 1075 3275 575 2975 
L 575 3450 
Q 1200 3875 1600 4450 
L 1900 4450 
L 1900 150 
L 1400 150 
L 1400 3600 
z
" transform="scale(0.015625)"/>
        <path id="SimHei-30" d="M 225 2537 
Q 250 3200 412 3587 
Q 575 3975 875 4225 
Q 1175 4475 1612 4475 
Q 2050 4475 2375 4112 
Q 2700 3750 2800 3200 
Q 2900 2650 2862 1937 
Q 2825 1225 2612 775 
Q 2400 325 1975 150 
Q 1550 -25 1125 187 
Q 700 400 525 750 
Q 350 1100 275 1487 
Q 200 1875 225 2537 
z
M 750 2687 
Q 675 2000 800 1462 
Q 925 925 1212 700 
Q 1500 475 1800 612 
Q 2100 750 2237 1162 
Q 2375 1575 2375 2062 
Q 2375 2550 2337 2950 
Q 2300 3350 2112 3675 
Q 1925 4000 1612 4012 
Q 1300 4025 1062 3700 
Q 825 3375 750 2687 
z
" transform="scale(0.015625)"/>
       </defs>
       <use xlink:href="#SimHei-31"/>
       <use xlink:href="#SimHei-30" x="50"/>
      </g>
     </g>
    </g>
    <g id="xtick_3">
     <g id="line2d_5">
      <path d="M 253.176136 422.866562 
L 253.176136 23.864062 
" clip-path="url(#pbf418a8b90)" style="fill: none; stroke: #e0e0e0; stroke-opacity: 0.4; stroke-width: 0.8; stroke-linecap: square"/>
     </g>
     <g id="line2d_6">
      <g>
       <use xlink:href="#m98868bd77f" x="253.176136" y="422.866562" style="fill: #333333; stroke: #333333; stroke-width: 0.8"/>
      </g>
     </g>
     <g id="text_3">
      <!-- 15 -->
      <g style="fill: #333333" transform="translate(248.176136 436.741562) scale(0.1 -0.1)">
       <use xlink:href="#SimHei-31"/>
       <use xlink:href="#SimHei-35" x="50"/>
      </g>
     </g>
    </g>
    <g id="xtick_4">
     <g id="line2d_7">
      <path d="M 327.737926 422.866562 
L 327.737926 23.864062 
" clip-path="url(#pbf418a8b90)" style="fill: none; stroke: #e0e0e0; stroke-opacity: 0.4; stroke-width: 0.8; stroke-linecap: square"/>
     </g>
     <g id="line2d_8">
      <g>
       <use xlink:href="#m98868bd77f" x="327.737926" y="422.866562" style="fill: #333333; stroke: #333333; stroke-width: 0.8"/>
      </g>
     </g>
     <g id="text_4">
      <!-- 20 -->
      <g style="fill: #333333" transform="translate(322.737926 436.741562) scale(0.1 -0.1)">
       <defs>
        <path id="SimHei-32" d="M 300 250 
Q 325 625 650 925 
Q 975 1225 1475 1862 
Q 1975 2500 2125 2850 
Q 2275 3200 2237 3450 
Q 2200 3700 2000 3862 
Q 1800 4025 1537 4000 
Q 1275 3975 1037 3800 
Q 800 3625 675 3275 
L 200 3350 
Q 400 3925 712 4187 
Q 1025 4450 1450 4475 
Q 1700 4500 1900 4462 
Q 2100 4425 2312 4287 
Q 2525 4150 2662 3875 
Q 2800 3600 2762 3212 
Q 2725 2825 2375 2287 
Q 2025 1750 1025 600 
L 2825 600 
L 2825 150 
L 300 150 
L 300 250 
z
" transform="scale(0.015625)"/>
       </defs>
       <use xlink:href="#SimHei-32"/>
       <use xlink:href="#SimHei-30" x="50"/>
      </g>
     </g>
    </g>
    <g id="xtick_5">
     <g id="line2d_9">
      <path d="M 402.299716 422.866562 
L 402.299716 23.864062 
" clip-path="url(#pbf418a8b90)" style="fill: none; stroke: #e0e0e0; stroke-opacity: 0.4; stroke-width: 0.8; stroke-linecap: square"/>
     </g>
     <g id="line2d_10">
      <g>
       <use xlink:href="#m98868bd77f" x="402.299716" y="422.866562" style="fill: #333333; stroke: #333333; stroke-width: 0.8"/>
      </g>
     </g>
     <g id="text_5">
      <!-- 25 -->
      <g style="fill: #333333" transform="translate(397.299716 436.741562) scale(0.1 -0.1)">
       <use xlink:href="#SimHei-32"/>
       <use xlink:href="#SimHei-35" x="50"/>
      </g>
     </g>
    </g>
    <g id="xtick_6">
     <g id="line2d_11">
      <path d="M 476.861506 422.866562 
L 476.861506 23.864062 
" clip-path="url(#pbf418a8b90)" style="fill: none; stroke: #e0e0e0; stroke-opacity: 0.4; stroke-width: 0.8; stroke-linecap: square"/>
     </g>
     <g id="line2d_12">
      <g>
       <use xlink:href="#m98868bd77f" x="476.861506" y="422.866562" style="fill: #333333; stroke: #333333; stroke-width: 0.8"/>
      </g>
     </g>
     <g id="text_6">
      <!-- 30 -->
      <g style="fill: #333333" transform="translate(471.861506 436.741562) scale(0.1 -0.1)">
       <defs>
        <path id="SimHei-33" d="M 250 1225 
L 700 1300 
Q 800 975 1025 762 
Q 1250 550 1587 562 
Q 1925 575 2125 837 
Q 2325 1100 2300 1437 
Q 2275 1775 2037 1962 
Q 1800 2150 1275 2225 
L 1275 2550 
Q 1800 2600 2037 2825 
Q 2275 3050 2250 3412 
Q 2225 3775 1925 3937 
Q 1625 4100 1287 3975 
Q 950 3850 750 3275 
L 300 3350 
Q 450 3800 712 4100 
Q 975 4400 1425 4450 
Q 1875 4500 2212 4337 
Q 2550 4175 2687 3837 
Q 2825 3500 2725 3100 
Q 2625 2700 2150 2400 
Q 2500 2250 2687 1950 
Q 2875 1650 2812 1162 
Q 2750 675 2375 375 
Q 2000 75 1525 87 
Q 1050 100 700 387 
Q 350 675 250 1225 
z
" transform="scale(0.015625)"/>
       </defs>
       <use xlink:href="#SimHei-33"/>
       <use xlink:href="#SimHei-30" x="50"/>
      </g>
     </g>
    </g>
    <g id="xtick_7">
     <g id="line2d_13">
      <path d="M 551.423295 422.866562 
L 551.423295 23.864062 
" clip-path="url(#pbf418a8b90)" style="fill: none; stroke: #e0e0e0; stroke-opacity: 0.4; stroke-width: 0.8; stroke-linecap: square"/>
     </g>
     <g id="line2d_14">
      <g>
       <use xlink:href="#m98868bd77f" x="551.423295" y="422.866562" style="fill: #333333; stroke: #333333; stroke-width: 0.8"/>
      </g>
     </g>
     <g id="text_7">
      <!-- 35 -->
      <g style="fill: #333333" transform="translate(546.423295 436.741562) scale(0.1 -0.1)">
       <use xlink:href="#SimHei-33"/>
       <use xlink:href="#SimHei-35" x="50"/>
      </g>
     </g>
    </g>
    <g id="xtick_8">
     <g id="line2d_15">
      <path d="M 625.985085 422.866562 
L 625.985085 23.864062 
" clip-path="url(#pbf418a8b90)" style="fill: none; stroke: #e0e0e0; stroke-opacity: 0.4; stroke-width: 0.8; stroke-linecap: square"/>
     </g>
     <g id="line2d_16">
      <g>
       <use xlink:href="#m98868bd77f" x="625.985085" y="422.866562" style="fill: #333333; stroke: #333333; stroke-width: 0.8"/>
      </g>
     </g>
     <g id="text_8">
      <!-- 40 -->
      <g style="fill: #333333" transform="translate(620.985085 436.741562) scale(0.1 -0.1)">
       <defs>
        <path id="SimHei-34" d="M 2000 1100 
L 75 1100 
L 75 1525 
L 2100 4450 
L 2475 4450 
L 2475 1525 
L 3075 1525 
L 3075 1100 
L 2475 1100 
L 2475 150 
L 2000 150 
L 2000 1100 
z
M 2000 1525 
L 2000 3500 
L 600 1525 
L 2000 1525 
z
" transform="scale(0.015625)"/>
       </defs>
       <use xlink:href="#SimHei-34"/>
       <use xlink:href="#SimHei-30" x="50"/>
      </g>
     </g>
    </g>
    <g id="xtick_9">
     <g id="line2d_17">
      <path d="M 700.546875 422.866562 
L 700.546875 23.864062 
" clip-path="url(#pbf418a8b90)" style="fill: none; stroke: #e0e0e0; stroke-opacity: 0.4; stroke-width: 0.8; stroke-linecap: square"/>
     </g>
     <g id="line2d_18">
      <g>
       <use xlink:href="#m98868bd77f" x="700.546875" y="422.866562" style="fill: #333333; stroke: #333333; stroke-width: 0.8"/>
      </g>
     </g>
     <g id="text_9">
      <!-- 45 -->
      <g style="fill: #333333" transform="translate(695.546875 436.741562) scale(0.1 -0.1)">
       <use xlink:href="#SimHei-34"/>
       <use xlink:href="#SimHei-35" x="50"/>
      </g>
     </g>
    </g>
    <g id="text_10">
     <!-- 训练轮次 (Epoch) -->
     <g style="fill: #333333" transform="translate(324.475 451.882187) scale(0.12 -0.12)">
      <defs>
       <path id="SimHei-8bad" d="M 1650 3300 
Q 1625 2725 1625 2225 
L 1625 675 
Q 1950 1125 2050 1275 
Q 2175 1125 2350 900 
Q 2025 500 1800 212 
Q 1575 -75 1325 -425 
Q 1150 -200 950 -50 
Q 1150 225 1150 625 
L 1150 2875 
L 975 2875 
Q 600 2875 300 2850 
L 300 3325 
Q 600 3300 975 3300 
L 1650 3300 
z
M 3425 4600 
Q 3375 4350 3387 3362 
Q 3400 2375 3337 1887 
Q 3275 1400 3087 837 
Q 2900 275 2450 -375 
Q 2225 -200 1975 -125 
Q 2550 500 2762 1362 
Q 2975 2225 2950 3337 
Q 2925 4450 2900 4675 
Q 3150 4625 3425 4600 
z
M 5875 4700 
Q 5850 4500 5850 3975 
L 5850 625 
Q 5850 125 5875 -400 
L 5400 -400 
Q 5425 125 5425 600 
L 5425 3975 
Q 5425 4500 5400 4700 
L 5875 4700 
z
M 4600 175 
L 4125 175 
Q 4150 725 4150 1150 
L 4150 3600 
Q 4150 4050 4125 4350 
L 4600 4350 
L 4600 175 
z
M 1000 5150 
Q 1650 4600 2100 4100 
Q 1875 3925 1750 3750 
Q 1050 4550 700 4800 
Q 850 4950 1000 5150 
z
" transform="scale(0.015625)"/>
       <path id="SimHei-7ec3" d="M 3300 3825 
Q 2950 3825 2400 3800 
L 2400 4250 
Q 2950 4225 3325 4225 
L 3625 4225 
Q 3875 4950 3900 5175 
Q 4200 5025 4450 4925 
Q 4350 4825 4262 4612 
Q 4175 4400 4100 4225 
L 5025 4225 
Q 5425 4225 5900 4250 
L 5900 3800 
Q 5550 3825 5025 3825 
L 3975 3825 
Q 3850 3525 3700 3150 
L 4675 3150 
Q 4650 2875 4650 2475 
L 4650 1975 
L 4975 1975 
Q 5350 1975 5800 2000 
L 5800 1550 
Q 5350 1575 4975 1575 
L 4650 1575 
L 4650 125 
Q 4650 -300 4462 -425 
Q 4275 -550 3650 -625 
Q 3625 -375 3450 -100 
Q 4075 -125 4137 -25 
Q 4200 75 4200 325 
L 4200 1575 
L 3425 1575 
Q 3250 1575 3100 1562 
Q 2950 1550 2750 1475 
Q 2650 1725 2550 1950 
Q 2800 2025 3125 2775 
Q 2950 2775 2450 2750 
L 2450 3175 
Q 3025 3150 3250 3150 
Q 3400 3525 3500 3825 
L 3300 3825 
z
M 1650 2950 
Q 1875 3300 2100 3900 
Q 2325 3725 2575 3600 
Q 2325 3275 2025 2750 
Q 1725 2225 1075 1350 
Q 1300 1400 2400 1575 
Q 2350 1300 2375 1150 
Q 1825 1100 650 825 
Q 525 1075 400 1275 
Q 625 1400 887 1737 
Q 1150 2075 1450 2575 
Q 1300 2600 1012 2562 
Q 725 2525 450 2450 
Q 350 2675 250 2925 
Q 500 3075 812 3725 
Q 1125 4375 1325 5000 
Q 1600 4825 1850 4750 
Q 1600 4375 1387 3962 
Q 1175 3550 800 2925 
Q 1375 2925 1650 2950 
z
M 2425 700 
Q 2400 425 2425 250 
Q 2000 150 1462 -25 
Q 925 -200 475 -425 
Q 400 -150 300 125 
Q 950 275 1187 337 
Q 1425 400 2425 700 
z
M 3725 875 
Q 3650 800 3287 400 
Q 2925 0 2475 -475 
Q 2300 -250 2150 -125 
Q 2425 100 2750 462 
Q 3075 825 3325 1225 
Q 3475 1050 3725 875 
z
M 5275 1225 
Q 5925 375 6200 -100 
Q 5950 -200 5750 -375 
Q 5475 175 4900 950 
Q 5075 1050 5275 1225 
z
M 4200 1975 
L 4200 2775 
L 3575 2775 
Q 3325 2250 3175 1975 
L 4200 1975 
z
" transform="scale(0.015625)"/>
       <path id="SimHei-8f6e" d="M 2200 3350 
Q 2175 3050 2175 2750 
L 2175 2425 
Q 2575 2425 2850 2450 
L 2850 2025 
Q 2550 2050 2175 2050 
L 2175 1150 
L 2975 1250 
Q 2925 1075 2925 850 
Q 2625 825 2175 750 
Q 2175 150 2200 -650 
L 1700 -650 
Q 1725 125 1725 700 
Q 700 550 400 475 
Q 300 775 250 975 
Q 600 1000 1725 1100 
L 1725 2050 
Q 1425 2050 1100 2025 
Q 775 2000 475 1925 
L 300 2425 
Q 450 2550 650 2900 
Q 850 3250 1075 3850 
Q 750 3850 275 3825 
L 275 4275 
Q 750 4250 1200 4250 
Q 1375 4875 1425 5200 
Q 1675 5075 1950 5025 
Q 1825 4750 1650 4250 
L 2075 4250 
Q 2600 4250 2975 4275 
L 2975 3825 
Q 2550 3850 2100 3850 
L 1550 3850 
Q 1175 2900 900 2425 
L 1725 2425 
Q 1700 3050 1700 3350 
L 2200 3350 
z
M 3750 1625 
Q 4750 2075 5200 2550 
Q 5475 2225 5625 2125 
Q 5175 1875 4750 1650 
Q 4325 1425 3750 1175 
L 3750 225 
Q 3750 -75 4050 -100 
L 4925 -100 
Q 5250 -125 5325 137 
Q 5400 400 5400 600 
Q 5800 350 5975 300 
Q 5750 -225 5612 -362 
Q 5475 -500 5175 -500 
L 3850 -500 
Q 3300 -500 3300 0 
L 3300 1900 
Q 3300 2475 3275 2900 
L 3775 2900 
Q 3750 2450 3750 2100 
L 3750 1625 
z
M 4375 4800 
Q 4875 3975 5337 3650 
Q 5800 3325 6200 3125 
Q 5975 2875 5825 2650 
Q 5200 3075 4825 3487 
Q 4450 3900 4200 4350 
Q 3875 3825 3587 3412 
Q 3300 3000 2925 2625 
Q 2725 2800 2450 3000 
Q 2775 3200 3037 3487 
Q 3300 3775 3512 4150 
Q 3725 4525 3950 5275 
Q 4300 5100 4550 5000 
L 4375 4800 
z
" transform="scale(0.015625)"/>
       <path id="SimHei-6b21" d="M 4150 3025 
Q 4000 2550 4050 2187 
Q 4100 1825 4275 1450 
Q 4450 1075 4800 750 
Q 5150 425 5475 212 
Q 5800 0 6150 -150 
Q 5875 -350 5750 -625 
Q 5250 -325 4887 -25 
Q 4525 275 4275 612 
Q 4025 950 3825 1425 
Q 3525 625 2950 125 
Q 2375 -375 1850 -650 
Q 1675 -400 1475 -225 
Q 2025 0 2487 362 
Q 2950 725 3162 1100 
Q 3375 1475 3450 1825 
Q 3525 2175 3537 2400 
Q 3550 2625 3525 3125 
Q 3825 3050 4150 3025 
z
M 3700 4975 
Q 3625 4900 3475 4575 
Q 3325 4250 3250 4075 
L 5775 4075 
Q 5650 3725 5550 3362 
Q 5450 3000 5275 2500 
Q 5000 2575 4775 2600 
Q 5025 3350 5100 3650 
L 3100 3650 
Q 2975 3400 2812 3100 
Q 2650 2800 2425 2450 
Q 2275 2600 1975 2700 
Q 2300 3050 2625 3762 
Q 2950 4475 3125 5200 
Q 3450 5025 3700 4975 
z
M 2025 2000 
Q 1825 1675 1475 1087 
Q 1125 500 725 -200 
Q 500 -25 250 175 
Q 725 725 1037 1262 
Q 1350 1800 1575 2325 
Q 1750 2175 2025 2000 
z
M 900 4750 
Q 1725 3725 1950 3375 
Q 1750 3250 1500 3050 
Q 1250 3525 500 4425 
Q 700 4575 900 4750 
z
" transform="scale(0.015625)"/>
       <path id="SimHei-20" transform="scale(0.015625)"/>
       <path id="SimHei-28" d="M 2975 -200 
L 2700 -475 
Q 2075 125 1762 775 
Q 1450 1425 1450 2250 
Q 1450 3075 1762 3725 
Q 2075 4375 2700 5000 
L 2975 4725 
Q 2400 4175 2112 3587 
Q 1825 3000 1825 2250 
Q 1825 1500 2112 912 
Q 2400 325 2975 -200 
z
" transform="scale(0.015625)"/>
       <path id="SimHei-45" d="M 2900 125 
L 350 125 
L 350 4400 
L 2775 4400 
L 2775 3925 
L 925 3925 
L 925 2600 
L 2625 2600 
L 2625 2125 
L 925 2125 
L 925 600 
L 2900 600 
L 2900 125 
z
" transform="scale(0.015625)"/>
       <path id="SimHei-70" d="M 2825 1525 
Q 2825 800 2475 425 
Q 2125 50 1625 50 
Q 1350 50 1150 162 
Q 950 275 800 500 
L 800 -800 
L 300 -800 
L 300 2925 
L 800 2925 
L 800 2550 
Q 950 2775 1150 2875 
Q 1350 2975 1625 2975 
Q 2125 2975 2475 2612 
Q 2825 2250 2825 1525 
z
M 2275 1525 
Q 2275 2000 2087 2262 
Q 1900 2525 1525 2525 
Q 1225 2525 1012 2262 
Q 800 2000 800 1525 
Q 800 1050 1012 775 
Q 1225 500 1525 500 
Q 1900 500 2087 775 
Q 2275 1050 2275 1525 
z
" transform="scale(0.015625)"/>
       <path id="SimHei-6f" d="M 2925 1525 
Q 2925 875 2525 475 
Q 2125 75 1575 75 
Q 1025 75 625 475 
Q 225 875 225 1525 
Q 225 2175 625 2575 
Q 1025 2975 1575 2975 
Q 2125 2975 2525 2575 
Q 2925 2175 2925 1525 
z
M 2375 1525 
Q 2375 2025 2125 2275 
Q 1875 2525 1575 2525 
Q 1275 2525 1025 2275 
Q 775 2025 775 1525 
Q 775 1025 1025 775 
Q 1275 525 1575 525 
Q 1875 525 2125 775 
Q 2375 1025 2375 1525 
z
" transform="scale(0.015625)"/>
       <path id="SimHei-63" d="M 2850 1250 
Q 2850 725 2487 400 
Q 2125 75 1575 75 
Q 1025 75 625 462 
Q 225 850 225 1525 
Q 225 2200 625 2587 
Q 1025 2975 1575 2975 
Q 2125 2975 2450 2687 
Q 2775 2400 2775 2000 
L 2225 2000 
Q 2200 2300 2012 2412 
Q 1825 2525 1575 2525 
Q 1275 2525 1025 2287 
Q 775 2050 775 1525 
Q 775 1000 1025 762 
Q 1275 525 1575 525 
Q 1900 525 2100 700 
Q 2300 875 2300 1250 
L 2850 1250 
z
" transform="scale(0.015625)"/>
       <path id="SimHei-68" d="M 2800 125 
L 2300 125 
L 2300 1925 
Q 2300 2225 2150 2400 
Q 2000 2575 1750 2575 
Q 1425 2575 1137 2237 
Q 850 1900 850 1400 
L 850 125 
L 350 125 
L 350 4400 
L 850 4400 
L 850 2400 
Q 1050 2675 1287 2825 
Q 1525 2975 1900 2975 
Q 2350 2975 2575 2725 
Q 2800 2475 2800 2100 
L 2800 125 
z
" transform="scale(0.015625)"/>
       <path id="SimHei-29" d="M 1675 2250 
Q 1675 1425 1362 775 
Q 1050 125 425 -475 
L 150 -200 
Q 725 325 1012 912 
Q 1300 1500 1300 2250 
Q 1300 3000 1012 3587 
Q 725 4175 150 4725 
L 425 5000 
Q 1050 4375 1362 3725 
Q 1675 3075 1675 2250 
z
" transform="scale(0.015625)"/>
      </defs>
      <use xlink:href="#SimHei-8bad"/>
      <use xlink:href="#SimHei-7ec3" x="100"/>
      <use xlink:href="#SimHei-8f6e" x="200"/>
      <use xlink:href="#SimHei-6b21" x="300"/>
      <use xlink:href="#SimHei-20" x="400"/>
      <use xlink:href="#SimHei-28" x="450"/>
      <use xlink:href="#SimHei-45" x="500"/>
      <use xlink:href="#SimHei-70" x="550"/>
      <use xlink:href="#SimHei-6f" x="600"/>
      <use xlink:href="#SimHei-63" x="650"/>
      <use xlink:href="#SimHei-68" x="700"/>
      <use xlink:href="#SimHei-29" x="750"/>
     </g>
    </g>
   </g>
   <g id="matplotlib.axis_2">
    <g id="ytick_1">
     <g id="line2d_19">
      <path d="M 44.403125 422.866562 
L 700.546875 422.866562 
" clip-path="url(#pbf418a8b90)" style="fill: none; stroke: #e0e0e0; stroke-opacity: 0.4; stroke-width: 0.8; stroke-linecap: square"/>
     </g>
     <g id="line2d_20">
      <defs>
       <path id="md9f954b3a9" d="M 0 0 
L -3.5 0 
" style="stroke: #333333; stroke-width: 0.8"/>
      </defs>
      <g>
       <use xlink:href="#md9f954b3a9" x="44.403125" y="422.866562" style="fill: #333333; stroke: #333333; stroke-width: 0.8"/>
      </g>
     </g>
     <g id="text_11">
      <!-- 0 -->
      <g style="fill: #333333" transform="translate(32.403125 426.304062) scale(0.1 -0.1)">
       <use xlink:href="#SimHei-30"/>
      </g>
     </g>
    </g>
    <g id="ytick_2">
     <g id="line2d_21">
      <path d="M 44.403125 343.066062 
L 700.546875 343.066062 
" clip-path="url(#pbf418a8b90)" style="fill: none; stroke: #e0e0e0; stroke-opacity: 0.4; stroke-width: 0.8; stroke-linecap: square"/>
     </g>
     <g id="line2d_22">
      <g>
       <use xlink:href="#md9f954b3a9" x="44.403125" y="343.066062" style="fill: #333333; stroke: #333333; stroke-width: 0.8"/>
      </g>
     </g>
     <g id="text_12">
      <!-- 20 -->
      <g style="fill: #333333" transform="translate(27.403125 346.503562) scale(0.1 -0.1)">
       <use xlink:href="#SimHei-32"/>
       <use xlink:href="#SimHei-30" x="50"/>
      </g>
     </g>
    </g>
    <g id="ytick_3">
     <g id="line2d_23">
      <path d="M 44.403125 263.265562 
L 700.546875 263.265562 
" clip-path="url(#pbf418a8b90)" style="fill: none; stroke: #e0e0e0; stroke-opacity: 0.4; stroke-width: 0.8; stroke-linecap: square"/>
     </g>
     <g id="line2d_24">
      <g>
       <use xlink:href="#md9f954b3a9" x="44.403125" y="263.265562" style="fill: #333333; stroke: #333333; stroke-width: 0.8"/>
      </g>
     </g>
     <g id="text_13">
      <!-- 40 -->
      <g style="fill: #333333" transform="translate(27.403125 266.703062) scale(0.1 -0.1)">
       <use xlink:href="#SimHei-34"/>
       <use xlink:href="#SimHei-30" x="50"/>
      </g>
     </g>
    </g>
    <g id="ytick_4">
     <g id="line2d_25">
      <path d="M 44.403125 183.465062 
L 700.546875 183.465062 
" clip-path="url(#pbf418a8b90)" style="fill: none; stroke: #e0e0e0; stroke-opacity: 0.4; stroke-width: 0.8; stroke-linecap: square"/>
     </g>
     <g id="line2d_26">
      <g>
       <use xlink:href="#md9f954b3a9" x="44.403125" y="183.465062" style="fill: #333333; stroke: #333333; stroke-width: 0.8"/>
      </g>
     </g>
     <g id="text_14">
      <!-- 60 -->
      <g style="fill: #333333" transform="translate(27.403125 186.902562) scale(0.1 -0.1)">
       <defs>
        <path id="SimHei-36" d="M 250 1612 
Q 275 1975 387 2225 
Q 500 2475 725 2850 
L 1750 4450 
L 2325 4450 
L 1275 2800 
Q 1950 2975 2350 2750 
Q 2750 2525 2887 2237 
Q 3025 1950 3037 1612 
Q 3050 1275 2937 950 
Q 2825 625 2537 362 
Q 2250 100 1737 75 
Q 1225 50 862 262 
Q 500 475 362 862 
Q 225 1250 250 1612 
z
M 1025 787 
Q 1250 550 1625 525 
Q 2000 500 2250 775 
Q 2500 1050 2500 1575 
Q 2500 2100 2187 2300 
Q 1875 2500 1487 2450 
Q 1100 2400 925 2075 
Q 750 1750 775 1387 
Q 800 1025 1025 787 
z
" transform="scale(0.015625)"/>
       </defs>
       <use xlink:href="#SimHei-36"/>
       <use xlink:href="#SimHei-30" x="50"/>
      </g>
     </g>
    </g>
    <g id="ytick_5">
     <g id="line2d_27">
      <path d="M 44.403125 103.664562 
L 700.546875 103.664562 
" clip-path="url(#pbf418a8b90)" style="fill: none; stroke: #e0e0e0; stroke-opacity: 0.4; stroke-width: 0.8; stroke-linecap: square"/>
     </g>
     <g id="line2d_28">
      <g>
       <use xlink:href="#md9f954b3a9" x="44.403125" y="103.664562" style="fill: #333333; stroke: #333333; stroke-width: 0.8"/>
      </g>
     </g>
     <g id="text_15">
      <!-- 80 -->
      <g style="fill: #333333" transform="translate(27.403125 107.102062) scale(0.1 -0.1)">
       <defs>
        <path id="SimHei-38" d="M 175 1375 
Q 175 1675 325 1962 
Q 475 2250 825 2425 
Q 525 2600 425 2812 
Q 325 3025 312 3300 
Q 300 3575 387 3775 
Q 475 3975 650 4150 
Q 825 4325 1037 4387 
Q 1250 4450 1500 4450 
Q 1750 4450 1950 4400 
Q 2150 4350 2375 4187 
Q 2600 4025 2700 3725 
Q 2800 3425 2687 3025 
Q 2575 2625 2100 2400 
Q 2525 2275 2700 2012 
Q 2875 1750 2875 1375 
Q 2875 1000 2762 775 
Q 2650 550 2512 400 
Q 2375 250 2137 162 
Q 1900 75 1537 75 
Q 1175 75 912 162 
Q 650 250 475 425 
Q 300 600 237 837 
Q 175 1075 175 1375 
z
M 687 1400 
Q 675 1100 787 875 
Q 900 650 1200 587 
Q 1500 525 1825 600 
Q 2150 675 2275 950 
Q 2400 1225 2362 1500 
Q 2325 1775 2050 1962 
Q 1775 2150 1450 2125 
Q 1125 2100 912 1900 
Q 700 1700 687 1400 
z
M 775 3350 
Q 775 3100 950 2875 
Q 1125 2650 1500 2650 
Q 1875 2650 2062 2875 
Q 2250 3100 2237 3412 
Q 2225 3725 2012 3875 
Q 1800 4025 1437 4000 
Q 1075 3975 925 3787 
Q 775 3600 775 3350 
z
" transform="scale(0.015625)"/>
       </defs>
       <use xlink:href="#SimHei-38"/>
       <use xlink:href="#SimHei-30" x="50"/>
      </g>
     </g>
    </g>
    <g id="ytick_6">
     <g id="line2d_29">
      <path d="M 44.403125 23.864062 
L 700.546875 23.864062 
" clip-path="url(#pbf418a8b90)" style="fill: none; stroke: #e0e0e0; stroke-opacity: 0.4; stroke-width: 0.8; stroke-linecap: square"/>
     </g>
     <g id="line2d_30">
      <g>
       <use xlink:href="#md9f954b3a9" x="44.403125" y="23.864062" style="fill: #333333; stroke: #333333; stroke-width: 0.8"/>
      </g>
     </g>
     <g id="text_16">
      <!-- 100 -->
      <g style="fill: #333333" transform="translate(22.403125 27.301562) scale(0.1 -0.1)">
       <use xlink:href="#SimHei-31"/>
       <use xlink:href="#SimHei-30" x="50"/>
       <use xlink:href="#SimHei-30" x="100"/>
      </g>
     </g>
    </g>
    <g id="text_17">
     <!-- 验证准确率 (%) -->
     <g style="fill: #333333" transform="translate(16.903125 265.365312) rotate(-90) scale(0.12 -0.12)">
      <defs>
       <path id="SimHei-9a8c" d="M 2300 4725 
Q 2250 4500 2225 4075 
L 2050 2125 
L 2525 2125 
Q 2500 1925 2475 1450 
L 2375 75 
Q 2375 -450 2075 -525 
Q 1775 -600 1250 -675 
Q 1175 -325 1050 -100 
Q 1575 -100 1737 -87 
Q 1900 -75 1950 150 
L 2025 1700 
L 550 1700 
Q 575 2175 587 2737 
Q 600 3300 600 3800 
L 1100 3800 
Q 1050 3525 1025 3087 
Q 1000 2650 1000 2125 
L 1625 2125 
L 1800 4325 
L 1125 4325 
Q 725 4325 350 4300 
L 350 4750 
Q 725 4725 1125 4725 
L 2300 4725 
z
M 4325 4875 
Q 4725 4125 5150 3775 
Q 5575 3425 6150 3225 
Q 5925 3025 5800 2725 
Q 5450 2925 5125 3200 
L 5125 2775 
Q 4800 2800 4200 2800 
Q 3600 2800 3225 2775 
L 3225 3175 
Q 3075 2975 2800 2650 
Q 2575 2875 2325 3000 
Q 2725 3275 2937 3550 
Q 3150 3825 3312 4125 
Q 3475 4425 3587 4675 
Q 3700 4925 3775 5225 
Q 4100 5150 4450 5075 
L 4325 4875 
z
M 5600 2150 
Q 5475 2000 5400 1737 
Q 5325 1475 5162 912 
Q 5000 350 4900 25 
L 5250 25 
Q 5425 25 5800 50 
L 5800 -400 
Q 5475 -375 5250 -375 
L 3325 -375 
Q 2875 -375 2675 -400 
L 2675 50 
Q 2975 25 3350 25 
L 4475 25 
Q 4675 575 4800 1150 
L 5050 2300 
Q 5250 2225 5600 2150 
z
M 5100 3225 
Q 4800 3450 4550 3775 
Q 4300 4100 4050 4600 
Q 3850 4200 3687 3912 
Q 3525 3625 3250 3225 
L 5100 3225 
z
M 3250 2175 
Q 3350 1825 3462 1375 
Q 3575 925 3675 550 
Q 3450 525 3250 425 
Q 3175 900 3087 1225 
Q 3000 1550 2850 2050 
Q 3050 2125 3250 2175 
z
M 1775 1125 
Q 1750 950 1725 700 
Q 1350 625 1112 575 
Q 875 525 375 375 
Q 300 650 200 925 
Q 550 950 925 1000 
Q 1300 1050 1775 1125 
z
M 4300 1650 
Q 4350 1325 4425 825 
L 4025 725 
Q 3925 1275 3875 1562 
Q 3825 1850 3750 2225 
Q 3975 2275 4200 2300 
L 4300 1650 
z
" transform="scale(0.015625)"/>
       <path id="SimHei-8bc1" d="M 5125 4675 
Q 5625 4675 6050 4700 
L 6050 4225 
Q 5625 4250 5125 4250 
L 4500 4250 
L 4500 2625 
L 5075 2625 
Q 5500 2625 5900 2650 
L 5900 2175 
Q 5525 2200 5075 2200 
L 4500 2200 
L 4500 125 
L 5200 125 
Q 5625 125 6175 150 
L 6175 -325 
Q 5625 -300 5200 -300 
L 3000 -300 
Q 2400 -300 2000 -325 
L 2000 150 
Q 2400 125 2775 125 
L 2775 2075 
Q 2775 2600 2750 2950 
L 3275 2950 
Q 3250 2625 3250 2075 
L 3250 125 
L 4000 125 
L 4000 4250 
L 3550 4250 
Q 2975 4250 2450 4225 
L 2450 4700 
Q 2975 4675 3550 4675 
L 5125 4675 
z
M 850 -125 
Q 1150 175 1150 500 
L 1150 2750 
L 925 2750 
Q 575 2750 225 2725 
L 225 3200 
Q 550 3175 925 3175 
L 1650 3175 
Q 1625 2700 1625 2175 
L 1625 800 
Q 1850 1075 2025 1325 
Q 2150 1050 2325 825 
Q 2050 500 1812 212 
Q 1575 -75 1225 -525 
Q 1050 -300 850 -125 
z
M 1525 3900 
Q 1100 4500 800 4825 
Q 1000 4975 1175 5175 
L 1925 4275 
Q 1675 4100 1525 3900 
z
" transform="scale(0.015625)"/>
       <path id="SimHei-51c6" d="M 1600 2775 
Q 1900 3050 2275 3787 
Q 2650 4525 2800 5175 
Q 3075 5050 3400 4950 
Q 3250 4775 3000 4100 
L 4825 4100 
Q 5400 4100 5875 4125 
L 5875 3675 
Q 5375 3700 4825 3700 
L 4525 3700 
L 4525 2850 
Q 5250 2850 5700 2875 
L 5700 2425 
Q 5250 2450 4525 2450 
L 4525 1600 
Q 5275 1600 5700 1625 
L 5700 1200 
Q 5275 1225 4525 1225 
L 4525 375 
Q 5575 375 6050 400 
L 6050 -100 
Q 5575 -75 4975 -75 
L 2950 -75 
L 2950 -600 
L 2425 -600 
Q 2450 -150 2450 675 
L 2450 3050 
Q 2300 2775 2075 2400 
Q 1875 2650 1600 2775 
z
M 1675 2050 
Q 1425 1425 1200 850 
Q 975 275 775 -125 
Q 550 50 275 200 
Q 550 650 775 1112 
Q 1000 1575 1225 2300 
Q 1400 2125 1675 2050 
z
M 4025 1600 
L 4025 2450 
L 2950 2450 
L 2950 1600 
L 4025 1600 
z
M 4025 2850 
L 4025 3700 
L 2950 3700 
L 2950 2850 
L 4025 2850 
z
M 4025 375 
L 4025 1225 
L 2950 1225 
L 2950 375 
L 4025 375 
z
M 725 4775 
Q 850 4625 1162 4312 
Q 1475 4000 1750 3700 
Q 1525 3475 1375 3300 
Q 1100 3700 350 4450 
Q 550 4600 725 4775 
z
M 4150 5225 
Q 4600 4800 4800 4500 
Q 4625 4400 4400 4200 
Q 4225 4500 3775 4925 
Q 3925 5000 4150 5225 
z
" transform="scale(0.015625)"/>
       <path id="SimHei-786e" d="M 4975 -200 
Q 5250 -175 5362 -125 
Q 5475 -75 5475 125 
L 5475 975 
L 4625 975 
L 4625 -400 
L 4200 -400 
L 4200 975 
L 3500 975 
Q 3475 625 3325 237 
Q 3175 -150 2800 -600 
Q 2625 -350 2325 -325 
Q 2650 -50 2812 262 
Q 2975 575 3025 1000 
Q 3075 1425 3087 2187 
Q 3100 2950 3075 3425 
L 4250 3425 
Q 4475 3825 4650 4225 
L 3625 4225 
Q 3325 3875 2850 3250 
Q 2650 3425 2425 3500 
Q 2875 3975 3175 4425 
Q 3475 4875 3625 5300 
Q 3900 5175 4200 5100 
Q 4075 5025 3825 4575 
L 5350 4575 
Q 4900 3775 4750 3425 
L 5950 3425 
Q 5925 2975 5925 2450 
L 5925 -50 
Q 5950 -350 5775 -462 
Q 5600 -575 5175 -675 
Q 5150 -425 4975 -200 
z
M 200 1975 
Q 550 2300 850 2837 
Q 1150 3375 1300 4225 
Q 825 4225 525 4200 
L 525 4650 
Q 875 4625 1200 4625 
L 1900 4625 
Q 2325 4625 2625 4650 
L 2625 4200 
Q 2325 4225 1800 4225 
Q 1650 3525 1400 2925 
L 2525 2925 
Q 2500 2500 2500 2125 
L 2500 1075 
Q 2500 650 2525 125 
L 2075 125 
L 2075 600 
L 1350 600 
L 1350 -300 
L 900 -300 
Q 925 225 925 600 
L 925 2100 
Q 800 1900 625 1625 
Q 475 1825 200 1975 
z
M 2075 975 
L 2075 2575 
L 1350 2575 
L 1350 975 
L 2075 975 
z
M 5475 2350 
L 5475 3075 
L 4625 3075 
L 4625 2350 
L 5475 2350 
z
M 5475 1325 
L 5475 2000 
L 4625 2000 
L 4625 1325 
L 5475 1325 
z
M 4200 2350 
L 4200 3075 
L 3500 3075 
L 3500 2350 
L 4200 2350 
z
M 4200 1325 
L 4200 2000 
L 3500 2000 
L 3500 1325 
L 4200 1325 
z
" transform="scale(0.015625)"/>
       <path id="SimHei-7387" d="M 3325 5150 
Q 3425 4900 3550 4525 
L 4800 4525 
Q 5250 4525 5800 4550 
L 5800 4125 
Q 5250 4175 4775 4175 
L 2800 4175 
Q 2975 4050 3300 3900 
Q 3075 3750 2875 3537 
Q 2675 3325 2475 3125 
L 3275 3125 
Q 3575 3425 3775 3775 
Q 4000 3600 4275 3425 
Q 3950 3250 3600 2875 
Q 3250 2500 2625 2000 
L 3850 2100 
Q 3725 2250 3600 2425 
Q 3750 2475 4000 2650 
Q 4250 2350 4700 1700 
Q 4475 1625 4225 1450 
Q 4175 1600 4025 1775 
Q 3700 1750 3425 1750 
L 3425 1050 
L 5150 1050 
Q 5675 1050 6100 1075 
L 6100 650 
Q 5700 675 5125 675 
L 3425 675 
L 3425 175 
Q 3425 -300 3450 -625 
L 2900 -625 
Q 2925 -300 2925 175 
L 2925 675 
L 1325 675 
Q 825 675 325 650 
L 325 1075 
Q 825 1050 1350 1050 
L 2925 1050 
L 2925 1700 
Q 2700 1675 2475 1637 
Q 2250 1600 2025 1525 
Q 1950 1775 1850 2000 
Q 2075 2025 2325 2200 
Q 2575 2375 2975 2800 
Q 2300 2725 2025 2625 
Q 1975 2875 1850 3175 
Q 2075 3175 2325 3487 
Q 2575 3800 2750 4175 
L 1700 4175 
Q 1150 4175 650 4125 
L 650 4550 
Q 1150 4525 1550 4525 
L 2975 4525 
Q 2900 4825 2800 5025 
Q 3025 5075 3325 5150 
z
M 1625 2575 
Q 1725 2400 1825 2200 
Q 1575 2050 1325 1862 
Q 1075 1675 800 1425 
Q 625 1675 475 1875 
Q 800 2025 1100 2212 
Q 1400 2400 1625 2575 
z
M 4850 2650 
Q 5125 2475 5337 2337 
Q 5550 2200 5875 1950 
Q 5675 1800 5500 1600 
Q 5300 1775 5062 1975 
Q 4825 2175 4575 2325 
Q 4725 2475 4850 2650 
z
M 5725 3525 
Q 5550 3450 5300 3262 
Q 5050 3075 4800 2825 
Q 4625 3050 4475 3175 
Q 4700 3325 4875 3487 
Q 5050 3650 5300 3925 
Q 5525 3700 5725 3525 
z
M 1050 3850 
Q 1425 3600 1775 3275 
Q 1575 3100 1425 2925 
Q 1075 3300 675 3525 
Q 875 3700 1050 3850 
z
" transform="scale(0.015625)"/>
       <path id="SimHei-25" d="M 1400 3325 
Q 1400 2600 1187 2400 
Q 975 2200 775 2200 
Q 575 2200 362 2400 
Q 150 2600 150 3325 
Q 150 4050 362 4250 
Q 575 4450 775 4450 
Q 975 4450 1187 4250 
Q 1400 4050 1400 3325 
z
M 2625 4375 
L 700 75 
L 500 150 
L 2425 4450 
L 2625 4375 
z
M 2975 1200 
Q 2975 475 2762 275 
Q 2550 75 2350 75 
Q 2150 75 1937 275 
Q 1725 475 1725 1200 
Q 1725 1925 1937 2125 
Q 2150 2325 2350 2325 
Q 2550 2325 2762 2125 
Q 2975 1925 2975 1200 
z
M 1000 3325 
Q 1000 3775 950 3925 
Q 900 4075 775 4075 
Q 650 4075 600 3925 
Q 550 3775 550 3325 
Q 550 2875 600 2725 
Q 650 2575 775 2575 
Q 900 2575 950 2725 
Q 1000 2875 1000 3325 
z
M 2575 1200 
Q 2575 1650 2525 1800 
Q 2475 1950 2350 1950 
Q 2225 1950 2175 1800 
Q 2125 1650 2125 1200 
Q 2125 750 2175 600 
Q 2225 450 2350 450 
Q 2475 450 2525 600 
Q 2575 750 2575 1200 
z
" transform="scale(0.015625)"/>
      </defs>
      <use xlink:href="#SimHei-9a8c"/>
      <use xlink:href="#SimHei-8bc1" x="100"/>
      <use xlink:href="#SimHei-51c6" x="200"/>
      <use xlink:href="#SimHei-786e" x="300"/>
      <use xlink:href="#SimHei-7387" x="400"/>
      <use xlink:href="#SimHei-20" x="500"/>
      <use xlink:href="#SimHei-28" x="550"/>
      <use xlink:href="#SimHei-25" x="600"/>
      <use xlink:href="#SimHei-29" x="650"/>
     </g>
    </g>
   </g>
   <g id="line2d_31">
    <path d="M 44.403125 87.704462 
L 59.315483 73.499973 
L 74.227841 68.19324 
L 89.140199 66.437629 
L 104.052557 64.642118 
L 118.964915 62.886507 
L 133.877273 57.539873 
L 148.789631 68.19324 
L 163.701989 57.539873 
L 178.614347 59.335385 
L 193.526705 59.335385 
L 208.439062 55.784262 
L 223.35142 62.886507 
L 238.263778 55.784262 
L 253.176136 57.539873 
L 268.088494 59.335385 
L 283.000852 62.886507 
L 297.91321 54.028651 
L 312.825568 55.784262 
L 327.737926 55.784262 
L 342.650284 57.539873 
L 357.562642 55.784262 
L 372.475 54.028651 
L 387.387358 55.784262 
L 402.299716 52.23314 
L 417.212074 46.926407 
L 432.124432 46.926407 
L 447.03679 43.375285 
L 461.949148 41.579773 
L 476.861506 41.579773 
L 491.773864 38.068551 
L 506.686222 38.068551 
L 521.59858 38.068551 
L 536.510937 38.068551 
L 551.423295 38.068551 
L 566.335653 43.375285 
L 581.248011 39.824162 
L 596.160369 36.27304 
L 611.072727 36.27304 
L 625.985085 36.27304 
L 640.897443 39.824162 
L 655.809801 36.27304 
L 670.722159 39.824162 
L 685.634517 36.27304 
L 700.546875 38.068551 
" clip-path="url(#pbf418a8b90)" style="fill: none; stroke: #4e79a7; stroke-width: 1.5; stroke-linecap: square"/>
    <defs>
     <path id="m01fad520b6" d="M -1.5 1.5 
L 1.5 1.5 
L 1.5 -1.5 
L -1.5 -1.5 
z
" style="stroke: #4e79a7; stroke-linejoin: miter"/>
    </defs>
    <g clip-path="url(#pbf418a8b90)">
     <use xlink:href="#m01fad520b6" x="44.403125" y="87.704462" style="fill: #4e79a7; stroke: #4e79a7; stroke-linejoin: miter"/>
     <use xlink:href="#m01fad520b6" x="59.315483" y="73.499973" style="fill: #4e79a7; stroke: #4e79a7; stroke-linejoin: miter"/>
     <use xlink:href="#m01fad520b6" x="74.227841" y="68.19324" style="fill: #4e79a7; stroke: #4e79a7; stroke-linejoin: miter"/>
     <use xlink:href="#m01fad520b6" x="89.140199" y="66.437629" style="fill: #4e79a7; stroke: #4e79a7; stroke-linejoin: miter"/>
     <use xlink:href="#m01fad520b6" x="104.052557" y="64.642118" style="fill: #4e79a7; stroke: #4e79a7; stroke-linejoin: miter"/>
     <use xlink:href="#m01fad520b6" x="118.964915" y="62.886507" style="fill: #4e79a7; stroke: #4e79a7; stroke-linejoin: miter"/>
     <use xlink:href="#m01fad520b6" x="133.877273" y="57.539873" style="fill: #4e79a7; stroke: #4e79a7; stroke-linejoin: miter"/>
     <use xlink:href="#m01fad520b6" x="148.789631" y="68.19324" style="fill: #4e79a7; stroke: #4e79a7; stroke-linejoin: miter"/>
     <use xlink:href="#m01fad520b6" x="163.701989" y="57.539873" style="fill: #4e79a7; stroke: #4e79a7; stroke-linejoin: miter"/>
     <use xlink:href="#m01fad520b6" x="178.614347" y="59.335385" style="fill: #4e79a7; stroke: #4e79a7; stroke-linejoin: miter"/>
     <use xlink:href="#m01fad520b6" x="193.526705" y="59.335385" style="fill: #4e79a7; stroke: #4e79a7; stroke-linejoin: miter"/>
     <use xlink:href="#m01fad520b6" x="208.439062" y="55.784262" style="fill: #4e79a7; stroke: #4e79a7; stroke-linejoin: miter"/>
     <use xlink:href="#m01fad520b6" x="223.35142" y="62.886507" style="fill: #4e79a7; stroke: #4e79a7; stroke-linejoin: miter"/>
     <use xlink:href="#m01fad520b6" x="238.263778" y="55.784262" style="fill: #4e79a7; stroke: #4e79a7; stroke-linejoin: miter"/>
     <use xlink:href="#m01fad520b6" x="253.176136" y="57.539873" style="fill: #4e79a7; stroke: #4e79a7; stroke-linejoin: miter"/>
     <use xlink:href="#m01fad520b6" x="268.088494" y="59.335385" style="fill: #4e79a7; stroke: #4e79a7; stroke-linejoin: miter"/>
     <use xlink:href="#m01fad520b6" x="283.000852" y="62.886507" style="fill: #4e79a7; stroke: #4e79a7; stroke-linejoin: miter"/>
     <use xlink:href="#m01fad520b6" x="297.91321" y="54.028651" style="fill: #4e79a7; stroke: #4e79a7; stroke-linejoin: miter"/>
     <use xlink:href="#m01fad520b6" x="312.825568" y="55.784262" style="fill: #4e79a7; stroke: #4e79a7; stroke-linejoin: miter"/>
     <use xlink:href="#m01fad520b6" x="327.737926" y="55.784262" style="fill: #4e79a7; stroke: #4e79a7; stroke-linejoin: miter"/>
     <use xlink:href="#m01fad520b6" x="342.650284" y="57.539873" style="fill: #4e79a7; stroke: #4e79a7; stroke-linejoin: miter"/>
     <use xlink:href="#m01fad520b6" x="357.562642" y="55.784262" style="fill: #4e79a7; stroke: #4e79a7; stroke-linejoin: miter"/>
     <use xlink:href="#m01fad520b6" x="372.475" y="54.028651" style="fill: #4e79a7; stroke: #4e79a7; stroke-linejoin: miter"/>
     <use xlink:href="#m01fad520b6" x="387.387358" y="55.784262" style="fill: #4e79a7; stroke: #4e79a7; stroke-linejoin: miter"/>
     <use xlink:href="#m01fad520b6" x="402.299716" y="52.23314" style="fill: #4e79a7; stroke: #4e79a7; stroke-linejoin: miter"/>
     <use xlink:href="#m01fad520b6" x="417.212074" y="46.926407" style="fill: #4e79a7; stroke: #4e79a7; stroke-linejoin: miter"/>
     <use xlink:href="#m01fad520b6" x="432.124432" y="46.926407" style="fill: #4e79a7; stroke: #4e79a7; stroke-linejoin: miter"/>
     <use xlink:href="#m01fad520b6" x="447.03679" y="43.375285" style="fill: #4e79a7; stroke: #4e79a7; stroke-linejoin: miter"/>
     <use xlink:href="#m01fad520b6" x="461.949148" y="41.579773" style="fill: #4e79a7; stroke: #4e79a7; stroke-linejoin: miter"/>
     <use xlink:href="#m01fad520b6" x="476.861506" y="41.579773" style="fill: #4e79a7; stroke: #4e79a7; stroke-linejoin: miter"/>
     <use xlink:href="#m01fad520b6" x="491.773864" y="38.068551" style="fill: #4e79a7; stroke: #4e79a7; stroke-linejoin: miter"/>
     <use xlink:href="#m01fad520b6" x="506.686222" y="38.068551" style="fill: #4e79a7; stroke: #4e79a7; stroke-linejoin: miter"/>
     <use xlink:href="#m01fad520b6" x="521.59858" y="38.068551" style="fill: #4e79a7; stroke: #4e79a7; stroke-linejoin: miter"/>
     <use xlink:href="#m01fad520b6" x="536.510937" y="38.068551" style="fill: #4e79a7; stroke: #4e79a7; stroke-linejoin: miter"/>
     <use xlink:href="#m01fad520b6" x="551.423295" y="38.068551" style="fill: #4e79a7; stroke: #4e79a7; stroke-linejoin: miter"/>
     <use xlink:href="#m01fad520b6" x="566.335653" y="43.375285" style="fill: #4e79a7; stroke: #4e79a7; stroke-linejoin: miter"/>
     <use xlink:href="#m01fad520b6" x="581.248011" y="39.824162" style="fill: #4e79a7; stroke: #4e79a7; stroke-linejoin: miter"/>
     <use xlink:href="#m01fad520b6" x="596.160369" y="36.27304" style="fill: #4e79a7; stroke: #4e79a7; stroke-linejoin: miter"/>
     <use xlink:href="#m01fad520b6" x="611.072727" y="36.27304" style="fill: #4e79a7; stroke: #4e79a7; stroke-linejoin: miter"/>
     <use xlink:href="#m01fad520b6" x="625.985085" y="36.27304" style="fill: #4e79a7; stroke: #4e79a7; stroke-linejoin: miter"/>
     <use xlink:href="#m01fad520b6" x="640.897443" y="39.824162" style="fill: #4e79a7; stroke: #4e79a7; stroke-linejoin: miter"/>
     <use xlink:href="#m01fad520b6" x="655.809801" y="36.27304" style="fill: #4e79a7; stroke: #4e79a7; stroke-linejoin: miter"/>
     <use xlink:href="#m01fad520b6" x="670.722159" y="39.824162" style="fill: #4e79a7; stroke: #4e79a7; stroke-linejoin: miter"/>
     <use xlink:href="#m01fad520b6" x="685.634517" y="36.27304" style="fill: #4e79a7; stroke: #4e79a7; stroke-linejoin: miter"/>
     <use xlink:href="#m01fad520b6" x="700.546875" y="38.068551" style="fill: #4e79a7; stroke: #4e79a7; stroke-linejoin: miter"/>
    </g>
   </g>
   <g id="line2d_32">
    <path d="M 44.403125 371.43514 
L 59.315483 366.128407 
L 74.227841 359.026162 
L 89.140199 357.270551 
L 104.052557 355.47504 
L 118.964915 351.923918 
L 133.877273 339.51494 
L 148.789631 337.759329 
L 163.701989 327.105962 
L 178.614347 316.452596 
L 193.526705 305.839129 
L 208.439062 286.327907 
L 223.35142 273.918929 
L 238.263778 266.816685 
L 253.176136 259.71444 
L 268.088494 249.061073 
L 283.000852 240.203218 
L 297.91321 227.79424 
L 312.825568 210.078529 
L 327.737926 199.425162 
L 342.650284 171.056085 
L 357.562642 123.175785 
L 372.475 75.295485 
L 387.387358 54.028651 
L 402.299716 32.721918 
L 417.212074 34.517429 
L 432.124432 38.068551 
L 447.03679 32.721918 
L 461.949148 30.966307 
L 476.861506 32.721918 
L 491.773864 32.721918 
L 506.686222 30.966307 
L 521.59858 30.966307 
L 536.510937 32.721918 
L 551.423295 30.966307 
L 566.335653 30.966307 
" clip-path="url(#pbf418a8b90)" style="fill: none; stroke: #e15759; stroke-width: 1.5; stroke-linecap: square"/>
    <defs>
     <path id="me041817de6" d="M 0 1.5 
C 0.397805 1.5 0.77937 1.341951 1.06066 1.06066 
C 1.341951 0.77937 1.5 0.397805 1.5 0 
C 1.5 -0.397805 1.341951 -0.77937 1.06066 -1.06066 
C 0.77937 -1.341951 0.397805 -1.5 0 -1.5 
C -0.397805 -1.5 -0.77937 -1.341951 -1.06066 -1.06066 
C -1.341951 -0.77937 -1.5 -0.397805 -1.5 0 
C -1.5 0.397805 -1.341951 0.77937 -1.06066 1.06066 
C -0.77937 1.341951 -0.397805 1.5 0 1.5 
z
" style="stroke: #e15759"/>
    </defs>
    <g clip-path="url(#pbf418a8b90)">
     <use xlink:href="#me041817de6" x="44.403125" y="371.43514" style="fill: #e15759; stroke: #e15759"/>
     <use xlink:href="#me041817de6" x="59.315483" y="366.128407" style="fill: #e15759; stroke: #e15759"/>
     <use xlink:href="#me041817de6" x="74.227841" y="359.026162" style="fill: #e15759; stroke: #e15759"/>
     <use xlink:href="#me041817de6" x="89.140199" y="357.270551" style="fill: #e15759; stroke: #e15759"/>
     <use xlink:href="#me041817de6" x="104.052557" y="355.47504" style="fill: #e15759; stroke: #e15759"/>
     <use xlink:href="#me041817de6" x="118.964915" y="351.923918" style="fill: #e15759; stroke: #e15759"/>
     <use xlink:href="#me041817de6" x="133.877273" y="339.51494" style="fill: #e15759; stroke: #e15759"/>
     <use xlink:href="#me041817de6" x="148.789631" y="337.759329" style="fill: #e15759; stroke: #e15759"/>
     <use xlink:href="#me041817de6" x="163.701989" y="327.105962" style="fill: #e15759; stroke: #e15759"/>
     <use xlink:href="#me041817de6" x="178.614347" y="316.452596" style="fill: #e15759; stroke: #e15759"/>
     <use xlink:href="#me041817de6" x="193.526705" y="305.839129" style="fill: #e15759; stroke: #e15759"/>
     <use xlink:href="#me041817de6" x="208.439062" y="286.327907" style="fill: #e15759; stroke: #e15759"/>
     <use xlink:href="#me041817de6" x="223.35142" y="273.918929" style="fill: #e15759; stroke: #e15759"/>
     <use xlink:href="#me041817de6" x="238.263778" y="266.816685" style="fill: #e15759; stroke: #e15759"/>
     <use xlink:href="#me041817de6" x="253.176136" y="259.71444" style="fill: #e15759; stroke: #e15759"/>
     <use xlink:href="#me041817de6" x="268.088494" y="249.061073" style="fill: #e15759; stroke: #e15759"/>
     <use xlink:href="#me041817de6" x="283.000852" y="240.203218" style="fill: #e15759; stroke: #e15759"/>
     <use xlink:href="#me041817de6" x="297.91321" y="227.79424" style="fill: #e15759; stroke: #e15759"/>
     <use xlink:href="#me041817de6" x="312.825568" y="210.078529" style="fill: #e15759; stroke: #e15759"/>
     <use xlink:href="#me041817de6" x="327.737926" y="199.425162" style="fill: #e15759; stroke: #e15759"/>
     <use xlink:href="#me041817de6" x="342.650284" y="171.056085" style="fill: #e15759; stroke: #e15759"/>
     <use xlink:href="#me041817de6" x="357.562642" y="123.175785" style="fill: #e15759; stroke: #e15759"/>
     <use xlink:href="#me041817de6" x="372.475" y="75.295485" style="fill: #e15759; stroke: #e15759"/>
     <use xlink:href="#me041817de6" x="387.387358" y="54.028651" style="fill: #e15759; stroke: #e15759"/>
     <use xlink:href="#me041817de6" x="402.299716" y="32.721918" style="fill: #e15759; stroke: #e15759"/>
     <use xlink:href="#me041817de6" x="417.212074" y="34.517429" style="fill: #e15759; stroke: #e15759"/>
     <use xlink:href="#me041817de6" x="432.124432" y="38.068551" style="fill: #e15759; stroke: #e15759"/>
     <use xlink:href="#me041817de6" x="447.03679" y="32.721918" style="fill: #e15759; stroke: #e15759"/>
     <use xlink:href="#me041817de6" x="461.949148" y="30.966307" style="fill: #e15759; stroke: #e15759"/>
     <use xlink:href="#me041817de6" x="476.861506" y="32.721918" style="fill: #e15759; stroke: #e15759"/>
     <use xlink:href="#me041817de6" x="491.773864" y="32.721918" style="fill: #e15759; stroke: #e15759"/>
     <use xlink:href="#me041817de6" x="506.686222" y="30.966307" style="fill: #e15759; stroke: #e15759"/>
     <use xlink:href="#me041817de6" x="521.59858" y="30.966307" style="fill: #e15759; stroke: #e15759"/>
     <use xlink:href="#me041817de6" x="536.510937" y="32.721918" style="fill: #e15759; stroke: #e15759"/>
     <use xlink:href="#me041817de6" x="551.423295" y="30.966307" style="fill: #e15759; stroke: #e15759"/>
     <use xlink:href="#me041817de6" x="566.335653" y="30.966307" style="fill: #e15759; stroke: #e15759"/>
    </g>
   </g>
   <g id="line2d_33">
    <path d="M 335.194105 422.866562 
L 335.194105 23.864062 
" clip-path="url(#pbf418a8b90)" style="fill: none; stroke-dasharray: 2.96,1.28; stroke-dashoffset: 0; stroke: #4e79a7; stroke-opacity: 0.5; stroke-width: 0.8"/>
   </g>
   <g id="line2d_34">
    <path d="M 335.194105 422.866562 
L 335.194105 23.864062 
" clip-path="url(#pbf418a8b90)" style="fill: none; stroke-dasharray: 2.96,1.28; stroke-dashoffset: 0; stroke: #e15759; stroke-opacity: 0.5; stroke-width: 0.8"/>
   </g>
   <g id="patch_3">
    <path d="M 44.403125 422.866562 
L 44.403125 23.864062 
" style="fill: none; stroke: #333333; stroke-width: 0.8; stroke-linejoin: miter; stroke-linecap: square"/>
   </g>
   <g id="patch_4">
    <path d="M 44.403125 422.866562 
L 700.546875 422.866562 
" style="fill: none; stroke: #333333; stroke-width: 0.8; stroke-linejoin: miter; stroke-linecap: square"/>
   </g>
   <g id="text_18">
    <!-- 验证准确率收敛曲线与局部放大 -->
    <g style="fill: #333333" transform="translate(281.475 17.864062) scale(0.13 -0.13)">
     <defs>
      <path id="SimHei-6536" d="M 4250 5050 
Q 4125 4850 3750 4050 
L 5150 4050 
Q 5675 4050 6125 4075 
L 6125 3600 
Q 5675 3625 5300 3625 
Q 5225 2625 5025 1975 
Q 4825 1325 4575 900 
Q 4900 500 5287 275 
Q 5675 50 6200 -75 
Q 5900 -275 5800 -550 
Q 5300 -350 4950 -100 
Q 4600 150 4275 525 
Q 3800 0 2775 -625 
Q 2650 -425 2300 -225 
Q 3275 150 3950 925 
Q 3775 1325 3612 1787 
Q 3450 2250 3250 3000 
Q 2975 2450 2825 2275 
Q 2650 2400 2425 2525 
Q 2775 3025 3137 3837 
Q 3500 4650 3625 5250 
Q 3925 5125 4250 5050 
z
M 975 4275 
Q 925 3950 925 3450 
L 925 1575 
L 1775 1725 
L 1775 4425 
Q 1775 4775 1750 5150 
L 2250 5150 
Q 2225 4850 2225 4450 
L 2225 300 
Q 2225 -50 2250 -550 
L 1750 -550 
Q 1775 -25 1775 350 
L 1775 1350 
Q 625 1050 500 925 
Q 375 1125 225 1350 
Q 450 1475 450 1800 
L 450 3575 
Q 450 3925 425 4275 
L 975 4275 
z
M 3725 3150 
Q 3800 2700 3962 2212 
Q 4125 1725 4300 1375 
Q 4725 2150 4825 3625 
L 3575 3625 
Q 3400 3275 3300 3100 
L 3725 3150 
z
" transform="scale(0.015625)"/>
      <path id="SimHei-655b" d="M 3525 2325 
Q 3375 2500 3125 2675 
Q 3525 3150 3775 3837 
Q 4025 4525 4125 5175 
Q 4350 5100 4700 5000 
Q 4625 4975 4537 4712 
Q 4450 4450 4300 4025 
L 5600 4025 
Q 5825 4025 6100 4050 
L 6100 3575 
Q 5725 3600 5525 3600 
Q 5450 2850 5325 2162 
Q 5200 1475 4900 800 
Q 5350 250 6200 -50 
Q 5975 -275 5850 -575 
Q 5050 -75 4625 425 
Q 4100 -200 3250 -675 
Q 3100 -350 2925 -175 
Q 3750 75 4325 775 
Q 4075 1225 3900 1687 
Q 3725 2150 3650 2550 
L 3525 2325 
z
M 2975 2925 
Q 2650 2950 2075 2950 
Q 1450 2950 1175 2925 
L 1175 3325 
Q 900 3000 575 2750 
Q 425 2975 175 3125 
Q 750 3525 1237 4187 
Q 1725 4850 1875 5275 
Q 2175 5100 2400 5000 
Q 2325 4900 2200 4700 
Q 2875 4300 3525 3850 
Q 3325 3575 3175 3375 
Q 2950 3625 2612 3900 
Q 2275 4175 1975 4375 
Q 1650 3925 1225 3375 
Q 1500 3350 2075 3350 
Q 2650 3350 2975 3375 
L 2975 2925 
z
M 3325 2450 
Q 3175 2250 3050 1725 
Q 2925 1200 2775 625 
Q 3075 675 3475 775 
Q 3400 575 3450 325 
Q 2300 150 1600 0 
Q 900 -150 725 -250 
Q 650 75 550 325 
Q 1125 350 2325 550 
Q 2475 1125 2600 1725 
Q 2725 2325 2750 2600 
Q 3000 2525 3325 2450 
z
M 3925 3000 
Q 4050 2500 4262 1925 
Q 4475 1350 4600 1175 
Q 4825 1725 4925 2287 
Q 5025 2850 5075 3600 
L 4175 3600 
Q 4100 3375 3925 3000 
z
M 1025 2350 
Q 1275 1625 1450 925 
Q 1200 850 1000 775 
Q 725 1875 575 2175 
Q 825 2250 1025 2350 
z
M 2000 2525 
Q 2150 1975 2275 1250 
Q 2050 1225 1825 1150 
Q 1775 1525 1575 2425 
Q 1775 2475 2000 2525 
z
" transform="scale(0.015625)"/>
      <path id="SimHei-66f2" d="M 5825 500 
Q 5825 -200 5850 -550 
L 5275 -550 
L 5275 -50 
L 1150 -50 
L 1150 -550 
L 575 -550 
Q 600 125 600 550 
L 600 2775 
Q 600 3425 575 3900 
L 2150 3900 
L 2150 4450 
Q 2125 4850 2125 5150 
L 2700 5150 
Q 2650 4825 2650 4475 
L 2650 3900 
L 3700 3900 
L 3700 4525 
Q 3700 4850 3675 5175 
L 4250 5175 
Q 4225 4875 4225 4550 
L 4225 3900 
L 5850 3900 
Q 5825 3525 5825 2750 
L 5825 500 
z
M 3700 325 
L 3700 1875 
L 2650 1875 
L 2650 325 
L 3700 325 
z
M 5275 325 
L 5275 1875 
L 4225 1875 
L 4225 325 
L 5275 325 
z
M 2150 325 
L 2150 1875 
L 1150 1875 
L 1150 325 
L 2150 325 
z
M 3700 2250 
L 3700 3525 
L 2650 3525 
L 2650 2250 
L 3700 2250 
z
M 5275 2250 
L 5275 3525 
L 4225 3525 
L 4225 2250 
L 5275 2250 
z
M 2150 2250 
L 2150 3525 
L 1150 3525 
L 1150 2250 
L 2150 2250 
z
" transform="scale(0.015625)"/>
      <path id="SimHei-7ebf" d="M 3450 4300 
Q 3450 4675 3375 5125 
Q 3700 5100 4050 5050 
Q 3975 4900 3950 4562 
Q 3925 4225 3950 3600 
L 4800 3750 
Q 5225 3850 5650 3975 
L 5750 3500 
Q 5325 3450 4875 3375 
L 3975 3200 
Q 3975 2800 4025 2500 
L 5000 2675 
Q 5500 2775 5950 2925 
L 6025 2450 
Q 5575 2375 5075 2275 
L 4100 2100 
Q 4150 1600 4350 1175 
Q 4575 1350 4787 1575 
Q 5000 1800 5175 2075 
Q 5550 1775 5750 1675 
Q 5425 1525 5237 1337 
Q 5050 1150 4625 750 
Q 4925 250 5162 112 
Q 5400 -25 5500 100 
Q 5600 225 5675 625 
Q 5900 450 6200 350 
Q 5775 -750 5275 -537 
Q 4775 -325 4225 450 
Q 3875 175 3537 -62 
Q 3200 -300 2700 -550 
Q 2575 -300 2325 -100 
Q 2825 75 3175 275 
Q 3525 475 3975 850 
Q 3750 1350 3650 2025 
Q 2900 1900 2600 1800 
L 2525 2275 
Q 2825 2275 3550 2425 
Q 3500 2825 3500 3100 
Q 2825 2950 2575 2875 
L 2475 3350 
Q 2725 3350 3450 3500 
L 3450 4300 
z
M 1950 4875 
Q 1700 4650 1462 4237 
Q 1225 3825 825 3225 
Q 1425 3250 1650 3250 
Q 1875 3625 2050 4075 
Q 2300 3900 2600 3800 
Q 2350 3550 2087 3125 
Q 1825 2700 1175 1675 
Q 1850 1725 2375 1775 
Q 2300 1525 2300 1350 
Q 2125 1350 1525 1287 
Q 925 1225 550 1125 
Q 525 1375 400 1650 
Q 700 1725 950 2050 
Q 1200 2375 1475 2875 
Q 650 2825 425 2675 
Q 350 2950 200 3225 
Q 525 3450 825 3962 
Q 1125 4475 1375 5150 
Q 1625 4975 1950 4875 
z
M 2575 875 
Q 2550 600 2575 450 
Q 1950 325 1450 200 
Q 950 75 525 -75 
Q 450 200 250 475 
Q 950 550 1325 612 
Q 1700 675 2575 875 
z
M 4850 4025 
Q 4675 4300 4375 4675 
L 4775 4875 
Q 4875 4750 5275 4275 
Q 5025 4175 4850 4025 
z
" transform="scale(0.015625)"/>
      <path id="SimHei-4e0e" d="M 5350 100 
Q 5275 -300 4925 -425 
Q 4575 -550 3900 -600 
Q 3875 -375 3650 -25 
Q 4375 -50 4575 0 
Q 4775 50 4837 225 
Q 4900 400 5100 2350 
L 1125 2350 
Q 1450 4350 1475 5200 
Q 1800 5150 2075 5125 
Q 1975 4825 1900 4275 
L 4900 4275 
Q 5400 4275 5800 4300 
L 5800 3825 
Q 5400 3850 4950 3850 
L 1850 3850 
L 1700 2750 
L 5675 2750 
Q 5625 2450 5575 2050 
L 5350 100 
z
M 3675 1350 
Q 4125 1350 4500 1375 
L 4500 875 
Q 4125 900 3850 900 
L 1450 900 
Q 1000 900 500 875 
L 500 1375 
Q 1000 1350 1450 1350 
L 3675 1350 
z
" transform="scale(0.015625)"/>
      <path id="SimHei-5c40" d="M 5900 225 
Q 5825 -325 5537 -437 
Q 5250 -550 4800 -575 
Q 4750 -225 4575 50 
Q 5175 0 5275 75 
Q 5375 150 5425 400 
L 5475 2350 
L 1650 2350 
Q 1550 1150 1312 525 
Q 1075 -100 775 -500 
Q 550 -275 250 -200 
Q 625 225 825 762 
Q 1025 1300 1100 1837 
Q 1175 2375 1175 2875 
L 1175 3650 
Q 1175 3900 1150 5050 
L 5550 5050 
Q 5525 4650 5525 4250 
Q 5525 3850 5550 3450 
L 1675 3450 
L 1675 2775 
L 6000 2775 
L 5900 225 
z
M 4500 1875 
Q 4475 1400 4487 1025 
Q 4500 650 4500 200 
L 2075 200 
Q 2125 525 2125 950 
Q 2125 1400 2100 1875 
L 4500 1875 
z
M 5075 3875 
L 5075 4625 
L 1675 4625 
L 1675 3875 
L 5075 3875 
z
M 4025 600 
L 4025 1450 
L 2600 1450 
L 2600 600 
L 4025 600 
z
" transform="scale(0.015625)"/>
      <path id="SimHei-90e8" d="M 5300 2650 
Q 5750 2200 5962 1812 
Q 6175 1425 6150 1025 
Q 6125 625 5812 412 
Q 5500 200 4875 125 
Q 4825 400 4650 725 
Q 5250 725 5437 862 
Q 5625 1000 5612 1225 
Q 5600 1450 5350 1850 
Q 5100 2250 4775 2575 
Q 4975 3025 5300 4300 
L 4400 4300 
L 4400 -625 
L 3900 -625 
Q 3925 -100 3925 575 
L 3925 3625 
Q 3925 4175 3875 4725 
L 5975 4725 
Q 5575 3425 5300 2650 
z
M 3225 1775 
Q 3200 1200 3200 625 
Q 3200 50 3225 -575 
L 2725 -575 
L 2725 -75 
L 1375 -75 
L 1375 -575 
L 875 -575 
Q 900 -50 900 525 
Q 900 1125 875 1775 
L 3225 1775 
z
M 1925 5275 
Q 2325 4775 2450 4550 
Q 2300 4475 2175 4400 
Q 3225 4400 3500 4425 
L 3500 3950 
Q 3325 3950 2825 3975 
L 3250 3775 
Q 3075 3500 2750 2800 
Q 3350 2800 3675 2825 
L 3675 2350 
Q 3350 2375 3025 2375 
L 1150 2375 
Q 700 2375 400 2350 
L 400 2825 
Q 575 2800 1350 2800 
Q 1175 3225 900 3675 
Q 1100 3775 1325 3900 
Q 1575 3550 1850 3025 
Q 1600 2900 1475 2800 
L 2275 2800 
Q 2600 3575 2675 3975 
L 2075 3975 
Q 925 3975 575 3950 
L 575 4425 
Q 875 4400 1925 4400 
Q 1725 4800 1525 5025 
Q 1750 5150 1925 5275 
z
M 2725 325 
L 2725 1375 
L 1375 1375 
L 1375 325 
L 2725 325 
z
" transform="scale(0.015625)"/>
      <path id="SimHei-653e" d="M 4250 700 
Q 3825 1600 3575 2675 
Q 3450 2450 3350 2275 
Q 3250 2450 2975 2650 
Q 3250 2975 3525 3712 
Q 3800 4450 3950 5250 
Q 4275 5100 4575 5025 
Q 4425 4825 4300 4512 
Q 4175 4200 4075 3900 
L 5250 3900 
Q 5625 3900 6050 3925 
L 6050 3450 
Q 5675 3475 5475 3475 
Q 5425 2625 5275 1925 
Q 5125 1225 4850 675 
Q 5325 100 6150 -150 
Q 5950 -400 5875 -650 
Q 5075 -350 4550 350 
Q 4000 -200 3175 -650 
Q 3075 -375 2825 -200 
Q 3675 75 4250 700 
z
M 1650 100 
Q 2050 75 2225 137 
Q 2400 200 2437 725 
Q 2475 1250 2500 2250 
L 1600 2250 
Q 1550 1325 1325 662 
Q 1100 0 650 -575 
Q 425 -375 200 -250 
Q 600 175 762 562 
Q 925 950 1050 1487 
Q 1175 2025 1150 3500 
Q 775 3500 325 3475 
L 325 3950 
Q 775 3925 1050 3925 
L 2400 3925 
Q 2775 3925 3125 3950 
L 3125 3475 
Q 2775 3500 2400 3500 
L 1625 3500 
L 1625 2650 
L 2950 2650 
Q 2900 1175 2862 675 
Q 2825 175 2762 -25 
Q 2700 -225 2487 -312 
Q 2275 -400 1850 -450 
Q 1800 -175 1650 100 
z
M 3975 3075 
Q 4225 1825 4550 1200 
Q 4875 1925 5000 3475 
L 3925 3475 
L 3700 3025 
L 3975 3075 
z
M 1575 5275 
Q 1850 4775 2075 4300 
Q 1825 4200 1600 4075 
Q 1375 4650 1125 5025 
Q 1350 5125 1575 5275 
z
" transform="scale(0.015625)"/>
      <path id="SimHei-5927" d="M 2900 3400 
Q 2925 4275 2912 4575 
Q 2900 4875 2875 5150 
Q 3175 5100 3550 5075 
Q 3475 4825 3437 4350 
Q 3400 3875 3400 3400 
L 4675 3400 
Q 5350 3400 5925 3450 
L 5925 2900 
Q 5425 2925 4900 2925 
L 3425 2925 
Q 3525 2500 3775 2062 
Q 4025 1625 4287 1287 
Q 4550 950 5012 575 
Q 5475 200 6025 -50 
Q 5825 -200 5625 -550 
Q 5175 -300 4737 75 
Q 4300 450 3862 1062 
Q 3425 1675 3200 2200 
Q 3000 1650 2775 1287 
Q 2550 925 2287 625 
Q 2025 325 1612 25 
Q 1200 -275 675 -575 
Q 475 -275 225 -50 
Q 750 125 1262 450 
Q 1775 775 2100 1187 
Q 2425 1600 2625 2050 
Q 2825 2500 2875 2925 
L 1500 2925 
Q 900 2925 550 2900 
L 550 3450 
Q 900 3425 1500 3400 
L 2900 3400 
z
" transform="scale(0.015625)"/>
     </defs>
     <use xlink:href="#SimHei-9a8c"/>
     <use xlink:href="#SimHei-8bc1" x="100"/>
     <use xlink:href="#SimHei-51c6" x="200"/>
     <use xlink:href="#SimHei-786e" x="300"/>
     <use xlink:href="#SimHei-7387" x="400"/>
     <use xlink:href="#SimHei-6536" x="500"/>
     <use xlink:href="#SimHei-655b" x="600"/>
     <use xlink:href="#SimHei-66f2" x="700"/>
     <use xlink:href="#SimHei-7ebf" x="800"/>
     <use xlink:href="#SimHei-4e0e" x="900"/>
     <use xlink:href="#SimHei-5c40" x="1000"/>
     <use xlink:href="#SimHei-90e8" x="1100"/>
     <use xlink:href="#SimHei-653e" x="1200"/>
     <use xlink:href="#SimHei-5927" x="1300"/>
    </g>
   </g>
   <g id="legend_1">
    <g id="patch_5">
     <path d="M 594.546875 417.866562 
L 695.546875 417.866562 
L 695.546875 388.366562 
L 594.546875 388.366562 
z
" style="fill: #ffffff; opacity: 0.8; stroke: #cccccc; stroke-linejoin: miter"/>
    </g>
    <g id="line2d_35">
     <path d="M 598.546875 395.866562 
L 608.546875 395.866562 
L 618.546875 395.866562 
" style="fill: none; stroke: #4e79a7; stroke-width: 1.5; stroke-linecap: square"/>
     <g>
      <use xlink:href="#m01fad520b6" x="608.546875" y="395.866562" style="fill: #4e79a7; stroke: #4e79a7; stroke-linejoin: miter"/>
     </g>
    </g>
    <g id="text_19">
     <!-- ResNet50 -->
     <g style="fill: #333333" transform="translate(626.546875 399.366562) scale(0.1 -0.1)">
      <defs>
       <path id="SimHei-52" d="M 3000 125 
L 2400 125 
L 1500 1975 
L 850 1975 
L 850 125 
L 275 125 
L 275 4400 
L 1525 4400 
Q 2125 4400 2500 4112 
Q 2875 3825 2875 3175 
Q 2875 2675 2625 2400 
Q 2375 2125 2050 2050 
L 3000 125 
z
M 2300 3175 
Q 2300 3525 2087 3725 
Q 1875 3925 1400 3925 
L 850 3925 
L 850 2450 
L 1550 2450 
Q 1850 2450 2075 2612 
Q 2300 2775 2300 3175 
z
" transform="scale(0.015625)"/>
       <path id="SimHei-65" d="M 2850 1075 
Q 2800 625 2450 350 
Q 2100 75 1625 75 
Q 1025 75 637 462 
Q 250 850 250 1525 
Q 250 2200 637 2587 
Q 1025 2975 1625 2975 
Q 2150 2975 2487 2637 
Q 2825 2300 2825 1525 
L 800 1525 
Q 800 975 1037 750 
Q 1275 525 1625 525 
Q 1900 525 2075 662 
Q 2250 800 2300 1075 
L 2850 1075 
z
M 2250 1925 
Q 2200 2275 2025 2412 
Q 1850 2550 1575 2550 
Q 1325 2550 1125 2412 
Q 925 2275 825 1925 
L 2250 1925 
z
" transform="scale(0.015625)"/>
       <path id="SimHei-73" d="M 2750 900 
Q 2750 500 2437 287 
Q 2125 75 1650 75 
Q 1050 75 725 312 
Q 400 550 400 1000 
L 900 1000 
Q 900 700 1112 600 
Q 1325 500 1625 500 
Q 1925 500 2075 612 
Q 2225 725 2225 900 
Q 2225 1025 2100 1150 
Q 1975 1275 1475 1350 
Q 900 1425 687 1637 
Q 475 1850 475 2200 
Q 475 2500 762 2737 
Q 1050 2975 1600 2975 
Q 2100 2975 2387 2750 
Q 2675 2525 2675 2150 
L 2175 2150 
Q 2175 2375 2012 2462 
Q 1850 2550 1600 2550 
Q 1275 2550 1137 2437 
Q 1000 2325 1000 2175 
Q 1000 2000 1125 1900 
Q 1250 1800 1650 1750 
Q 2300 1650 2525 1437 
Q 2750 1225 2750 900 
z
" transform="scale(0.015625)"/>
       <path id="SimHei-4e" d="M 2850 125 
L 2225 125 
L 850 3225 
L 825 3225 
L 825 125 
L 250 125 
L 250 4400 
L 875 4400 
L 2250 1300 
L 2275 1300 
L 2275 4400 
L 2850 4400 
L 2850 125 
z
" transform="scale(0.015625)"/>
       <path id="SimHei-74" d="M 2750 200 
Q 2625 150 2462 112 
Q 2300 75 2025 75 
Q 1575 75 1300 325 
Q 1025 575 1025 1025 
L 1025 2525 
L 175 2525 
L 175 2925 
L 1025 2925 
L 1025 3900 
L 1525 3900 
L 1525 2925 
L 2550 2925 
L 2550 2525 
L 1525 2525 
L 1525 1000 
Q 1525 800 1625 662 
Q 1725 525 2000 525 
Q 2275 525 2450 575 
Q 2625 625 2750 700 
L 2750 200 
z
" transform="scale(0.015625)"/>
      </defs>
      <use xlink:href="#SimHei-52"/>
      <use xlink:href="#SimHei-65" x="50"/>
      <use xlink:href="#SimHei-73" x="100"/>
      <use xlink:href="#SimHei-4e" x="150"/>
      <use xlink:href="#SimHei-65" x="200"/>
      <use xlink:href="#SimHei-74" x="250"/>
      <use xlink:href="#SimHei-35" x="300"/>
      <use xlink:href="#SimHei-30" x="350"/>
     </g>
    </g>
    <g id="line2d_36">
     <path d="M 598.546875 409.116562 
L 608.546875 409.116562 
L 618.546875 409.116562 
" style="fill: none; stroke: #e15759; stroke-width: 1.5; stroke-linecap: square"/>
     <g>
      <use xlink:href="#me041817de6" x="608.546875" y="409.116562" style="fill: #e15759; stroke: #e15759"/>
     </g>
    </g>
    <g id="text_20">
     <!-- ConvNeXt-Tiny -->
     <g style="fill: #333333" transform="translate(626.546875 412.616562) scale(0.1 -0.1)">
      <defs>
       <path id="SimHei-43" d="M 2975 1825 
Q 2950 875 2575 475 
Q 2200 75 1675 75 
Q 1075 75 650 562 
Q 225 1050 225 2125 
Q 225 3300 637 3875 
Q 1050 4450 1700 4450 
Q 2250 4450 2612 4037 
Q 2975 3625 2950 2875 
L 2400 2875 
Q 2400 3425 2225 3700 
Q 2050 3975 1700 3975 
Q 1300 3975 1062 3562 
Q 825 3150 825 2175 
Q 825 1275 1062 912 
Q 1300 550 1675 550 
Q 1950 550 2175 812 
Q 2400 1075 2400 1825 
L 2975 1825 
z
" transform="scale(0.015625)"/>
       <path id="SimHei-6e" d="M 2800 125 
L 2300 125 
L 2300 1925 
Q 2300 2225 2150 2400 
Q 2000 2575 1750 2575 
Q 1425 2575 1137 2237 
Q 850 1900 850 1400 
L 850 125 
L 350 125 
L 350 2925 
L 850 2925 
L 850 2400 
Q 1050 2675 1287 2825 
Q 1525 2975 1900 2975 
Q 2350 2975 2575 2725 
Q 2800 2475 2800 2100 
L 2800 125 
z
" transform="scale(0.015625)"/>
       <path id="SimHei-76" d="M 2875 2925 
L 1825 75 
L 1275 75 
L 225 2925 
L 750 2925 
L 1525 750 
L 1575 750 
L 2350 2925 
L 2875 2925 
z
" transform="scale(0.015625)"/>
       <path id="SimHei-58" d="M 3000 125 
L 2400 125 
L 1550 1875 
L 700 125 
L 100 125 
L 1275 2375 
L 225 4400 
L 825 4400 
L 1550 2850 
L 2275 4400 
L 2875 4400 
L 1825 2375 
L 3000 125 
z
" transform="scale(0.015625)"/>
       <path id="SimHei-2d" d="M 2975 2125 
L 125 2125 
L 125 2525 
L 2975 2525 
L 2975 2125 
z
" transform="scale(0.015625)"/>
       <path id="SimHei-54" d="M 2850 3925 
L 1850 3925 
L 1850 125 
L 1275 125 
L 1275 3925 
L 275 3925 
L 275 4400 
L 2850 4400 
L 2850 3925 
z
" transform="scale(0.015625)"/>
       <path id="SimHei-69" d="M 1800 3725 
L 1300 3725 
L 1300 4375 
L 1800 4375 
L 1800 3725 
z
M 1800 125 
L 1300 125 
L 1300 2925 
L 1800 2925 
L 1800 125 
z
" transform="scale(0.015625)"/>
       <path id="SimHei-79" d="M 2900 2925 
L 1750 -100 
Q 1650 -450 1450 -625 
Q 1250 -800 950 -800 
Q 825 -800 712 -787 
Q 600 -775 500 -725 
L 500 -225 
Q 600 -275 700 -300 
Q 800 -325 875 -325 
Q 1075 -325 1150 -262 
Q 1225 -200 1300 25 
L 200 2925 
L 750 2925 
L 1550 725 
L 1575 725 
L 2350 2925 
L 2900 2925 
z
" transform="scale(0.015625)"/>
      </defs>
      <use xlink:href="#SimHei-43"/>
      <use xlink:href="#SimHei-6f" x="50"/>
      <use xlink:href="#SimHei-6e" x="100"/>
      <use xlink:href="#SimHei-76" x="150"/>
      <use xlink:href="#SimHei-4e" x="200"/>
      <use xlink:href="#SimHei-65" x="250"/>
      <use xlink:href="#SimHei-58" x="300"/>
      <use xlink:href="#SimHei-74" x="350"/>
      <use xlink:href="#SimHei-2d" x="400"/>
      <use xlink:href="#SimHei-54" x="450"/>
      <use xlink:href="#SimHei-69" x="500"/>
      <use xlink:href="#SimHei-6e" x="550"/>
      <use xlink:href="#SimHei-79" x="600"/>
     </g>
    </g>
   </g>
  </g>
  <g id="axes_2">
   <g id="patch_6">
    <path d="M 424.887578 369.986262 
L 675.862562 369.986262 
L 675.862562 217.367806 
L 424.887578 217.367806 
z
" style="fill: #ffffff"/>
   </g>
   <g id="matplotlib.axis_3">
    <g id="xtick_10">
     <g id="line2d_37">
      <path d="M 436.838768 369.986262 
L 436.838768 217.367806 
" clip-path="url(#p55d2ec3316)" style="fill: none; stroke: #e0e0e0; stroke-opacity: 0.3; stroke-width: 0.8; stroke-linecap: square"/>
     </g>
     <g id="line2d_38">
      <g>
       <use xlink:href="#m98868bd77f" x="436.838768" y="369.986262" style="fill: #333333; stroke: #333333; stroke-width: 0.8"/>
      </g>
     </g>
     <g id="text_21">
      <!-- 25 -->
      <g style="fill: #333333" transform="translate(431.838768 383.861262) scale(0.1 -0.1)">
       <use xlink:href="#SimHei-32"/>
       <use xlink:href="#SimHei-35" x="50"/>
      </g>
     </g>
    </g>
    <g id="xtick_11">
     <g id="line2d_39">
      <path d="M 496.594717 369.986262 
L 496.594717 217.367806 
" clip-path="url(#p55d2ec3316)" style="fill: none; stroke: #e0e0e0; stroke-opacity: 0.3; stroke-width: 0.8; stroke-linecap: square"/>
     </g>
     <g id="line2d_40">
      <g>
       <use xlink:href="#m98868bd77f" x="496.594717" y="369.986262" style="fill: #333333; stroke: #333333; stroke-width: 0.8"/>
      </g>
     </g>
     <g id="text_22">
      <!-- 30 -->
      <g style="fill: #333333" transform="translate(491.594717 383.861262) scale(0.1 -0.1)">
       <use xlink:href="#SimHei-33"/>
       <use xlink:href="#SimHei-30" x="50"/>
      </g>
     </g>
    </g>
    <g id="xtick_12">
     <g id="line2d_41">
      <path d="M 556.350665 369.986262 
L 556.350665 217.367806 
" clip-path="url(#p55d2ec3316)" style="fill: none; stroke: #e0e0e0; stroke-opacity: 0.3; stroke-width: 0.8; stroke-linecap: square"/>
     </g>
     <g id="line2d_42">
      <g>
       <use xlink:href="#m98868bd77f" x="556.350665" y="369.986262" style="fill: #333333; stroke: #333333; stroke-width: 0.8"/>
      </g>
     </g>
     <g id="text_23">
      <!-- 35 -->
      <g style="fill: #333333" transform="translate(551.350665 383.861262) scale(0.1 -0.1)">
       <use xlink:href="#SimHei-33"/>
       <use xlink:href="#SimHei-35" x="50"/>
      </g>
     </g>
    </g>
    <g id="xtick_13">
     <g id="line2d_43">
      <path d="M 616.106614 369.986262 
L 616.106614 217.367806 
" clip-path="url(#p55d2ec3316)" style="fill: none; stroke: #e0e0e0; stroke-opacity: 0.3; stroke-width: 0.8; stroke-linecap: square"/>
     </g>
     <g id="line2d_44">
      <g>
       <use xlink:href="#m98868bd77f" x="616.106614" y="369.986262" style="fill: #333333; stroke: #333333; stroke-width: 0.8"/>
      </g>
     </g>
     <g id="text_24">
      <!-- 40 -->
      <g style="fill: #333333" transform="translate(611.106614 383.861262) scale(0.1 -0.1)">
       <use xlink:href="#SimHei-34"/>
       <use xlink:href="#SimHei-30" x="50"/>
      </g>
     </g>
    </g>
    <g id="xtick_14">
     <g id="line2d_45">
      <path d="M 675.862562 369.986262 
L 675.862562 217.367806 
" clip-path="url(#p55d2ec3316)" style="fill: none; stroke: #e0e0e0; stroke-opacity: 0.3; stroke-width: 0.8; stroke-linecap: square"/>
     </g>
     <g id="line2d_46">
      <g>
       <use xlink:href="#m98868bd77f" x="675.862562" y="369.986262" style="fill: #333333; stroke: #333333; stroke-width: 0.8"/>
      </g>
     </g>
     <g id="text_25">
      <!-- 45 -->
      <g style="fill: #333333" transform="translate(670.862562 383.861262) scale(0.1 -0.1)">
       <use xlink:href="#SimHei-34"/>
       <use xlink:href="#SimHei-35" x="50"/>
      </g>
     </g>
    </g>
    <g id="text_26">
     <!-- Epoch -->
     <g style="fill: #333333" transform="translate(539.12507 395.298762) scale(0.09 -0.09)">
      <use xlink:href="#SimHei-45"/>
      <use xlink:href="#SimHei-70" x="50"/>
      <use xlink:href="#SimHei-6f" x="100"/>
      <use xlink:href="#SimHei-63" x="150"/>
      <use xlink:href="#SimHei-68" x="200"/>
     </g>
    </g>
   </g>
   <g id="matplotlib.axis_4">
    <g id="ytick_7">
     <g id="line2d_47">
      <path d="M 424.887578 368.50453 
L 675.862562 368.50453 
" clip-path="url(#p55d2ec3316)" style="fill: none; stroke: #e0e0e0; stroke-opacity: 0.3; stroke-width: 0.8; stroke-linecap: square"/>
     </g>
     <g id="line2d_48">
      <g>
       <use xlink:href="#md9f954b3a9" x="424.887578" y="368.50453" style="fill: #333333; stroke: #333333; stroke-width: 0.8"/>
      </g>
     </g>
     <g id="text_27">
      <!-- 92 -->
      <g style="fill: #333333" transform="translate(407.887578 371.94203) scale(0.1 -0.1)">
       <defs>
        <path id="SimHei-39" d="M 800 75 
Q 1350 1000 1700 1750 
Q 1075 1650 662 1912 
Q 250 2175 162 2625 
Q 75 3075 175 3437 
Q 275 3800 487 4037 
Q 700 4275 1000 4375 
Q 1300 4475 1537 4475 
Q 1775 4475 2025 4375 
Q 2275 4275 2475 4075 
Q 2675 3875 2750 3662 
Q 2825 3450 2825 3112 
Q 2825 2775 2575 2250 
Q 2325 1725 1350 75 
L 800 75 
z
M 662 2875 
Q 700 2550 937 2337 
Q 1175 2125 1450 2150 
Q 1725 2175 1887 2300 
Q 2050 2425 2200 2725 
Q 2300 3100 2250 3362 
Q 2200 3625 1987 3800 
Q 1775 3975 1525 3975 
Q 1375 4000 1137 3900 
Q 900 3800 762 3500 
Q 625 3200 662 2875 
z
" transform="scale(0.015625)"/>
       </defs>
       <use xlink:href="#SimHei-39"/>
       <use xlink:href="#SimHei-32" x="50"/>
      </g>
     </g>
    </g>
    <g id="ytick_8">
     <g id="line2d_49">
      <path d="M 424.887578 341.563937 
L 675.862562 341.563937 
" clip-path="url(#p55d2ec3316)" style="fill: none; stroke: #e0e0e0; stroke-opacity: 0.3; stroke-width: 0.8; stroke-linecap: square"/>
     </g>
     <g id="line2d_50">
      <g>
       <use xlink:href="#md9f954b3a9" x="424.887578" y="341.563937" style="fill: #333333; stroke: #333333; stroke-width: 0.8"/>
      </g>
     </g>
     <g id="text_28">
      <!-- 94 -->
      <g style="fill: #333333" transform="translate(407.887578 345.001437) scale(0.1 -0.1)">
       <use xlink:href="#SimHei-39"/>
       <use xlink:href="#SimHei-34" x="50"/>
      </g>
     </g>
    </g>
    <g id="ytick_9">
     <g id="line2d_51">
      <path d="M 424.887578 314.623345 
L 675.862562 314.623345 
" clip-path="url(#p55d2ec3316)" style="fill: none; stroke: #e0e0e0; stroke-opacity: 0.3; stroke-width: 0.8; stroke-linecap: square"/>
     </g>
     <g id="line2d_52">
      <g>
       <use xlink:href="#md9f954b3a9" x="424.887578" y="314.623345" style="fill: #333333; stroke: #333333; stroke-width: 0.8"/>
      </g>
     </g>
     <g id="text_29">
      <!-- 96 -->
      <g style="fill: #333333" transform="translate(407.887578 318.060845) scale(0.1 -0.1)">
       <use xlink:href="#SimHei-39"/>
       <use xlink:href="#SimHei-36" x="50"/>
      </g>
     </g>
    </g>
    <g id="ytick_10">
     <g id="line2d_53">
      <path d="M 424.887578 287.682753 
L 675.862562 287.682753 
" clip-path="url(#p55d2ec3316)" style="fill: none; stroke: #e0e0e0; stroke-opacity: 0.3; stroke-width: 0.8; stroke-linecap: square"/>
     </g>
     <g id="line2d_54">
      <g>
       <use xlink:href="#md9f954b3a9" x="424.887578" y="287.682753" style="fill: #333333; stroke: #333333; stroke-width: 0.8"/>
      </g>
     </g>
     <g id="text_30">
      <!-- 98 -->
      <g style="fill: #333333" transform="translate(407.887578 291.120253) scale(0.1 -0.1)">
       <use xlink:href="#SimHei-39"/>
       <use xlink:href="#SimHei-38" x="50"/>
      </g>
     </g>
    </g>
    <g id="ytick_11">
     <g id="line2d_55">
      <path d="M 424.887578 260.74216 
L 675.862562 260.74216 
" clip-path="url(#p55d2ec3316)" style="fill: none; stroke: #e0e0e0; stroke-opacity: 0.3; stroke-width: 0.8; stroke-linecap: square"/>
     </g>
     <g id="line2d_56">
      <g>
       <use xlink:href="#md9f954b3a9" x="424.887578" y="260.74216" style="fill: #333333; stroke: #333333; stroke-width: 0.8"/>
      </g>
     </g>
     <g id="text_31">
      <!-- 100 -->
      <g style="fill: #333333" transform="translate(402.887578 264.17966) scale(0.1 -0.1)">
       <use xlink:href="#SimHei-31"/>
       <use xlink:href="#SimHei-30" x="50"/>
       <use xlink:href="#SimHei-30" x="100"/>
      </g>
     </g>
    </g>
    <g id="ytick_12">
     <g id="line2d_57">
      <path d="M 424.887578 233.801568 
L 675.862562 233.801568 
" clip-path="url(#p55d2ec3316)" style="fill: none; stroke: #e0e0e0; stroke-opacity: 0.3; stroke-width: 0.8; stroke-linecap: square"/>
     </g>
     <g id="line2d_58">
      <g>
       <use xlink:href="#md9f954b3a9" x="424.887578" y="233.801568" style="fill: #333333; stroke: #333333; stroke-width: 0.8"/>
      </g>
     </g>
     <g id="text_32">
      <!-- 102 -->
      <g style="fill: #333333" transform="translate(402.887578 237.239068) scale(0.1 -0.1)">
       <use xlink:href="#SimHei-31"/>
       <use xlink:href="#SimHei-30" x="50"/>
       <use xlink:href="#SimHei-32" x="100"/>
      </g>
     </g>
    </g>
    <g id="text_33">
     <!-- Val Acc (%) -->
     <g style="fill: #333333" transform="translate(397.762578 318.427034) rotate(-90) scale(0.09 -0.09)">
      <defs>
       <path id="SimHei-56" d="M 3050 4400 
L 1800 75 
L 1300 75 
L 50 4400 
L 650 4400 
L 1525 1125 
L 1575 1125 
L 2450 4400 
L 3050 4400 
z
" transform="scale(0.015625)"/>
       <path id="SimHei-61" d="M 2875 125 
L 2275 125 
Q 2225 175 2200 262 
Q 2175 350 2175 475 
Q 2000 275 1750 175 
Q 1500 75 1225 75 
Q 825 75 550 275 
Q 275 475 275 850 
Q 275 1225 525 1450 
Q 775 1675 1300 1750 
Q 1650 1800 1912 1875 
Q 2175 1950 2175 2075 
Q 2175 2225 2062 2375 
Q 1950 2525 1575 2525 
Q 1275 2525 1137 2412 
Q 1000 2300 950 2100 
L 400 2100 
Q 450 2500 762 2737 
Q 1075 2975 1575 2975 
Q 2125 2975 2400 2725 
Q 2675 2475 2675 2025 
L 2675 650 
Q 2675 500 2725 375 
Q 2775 250 2875 125 
z
M 2175 1050 
L 2175 1550 
Q 2025 1500 1887 1462 
Q 1750 1425 1425 1375 
Q 1050 1325 937 1200 
Q 825 1075 825 900 
Q 825 750 937 637 
Q 1050 525 1275 525 
Q 1500 525 1762 650 
Q 2025 775 2175 1050 
z
" transform="scale(0.015625)"/>
       <path id="SimHei-6c" d="M 1825 125 
L 1325 125 
L 1325 4400 
L 1825 4400 
L 1825 125 
z
" transform="scale(0.015625)"/>
       <path id="SimHei-41" d="M 3075 125 
L 2475 125 
L 2125 1450 
L 1025 1450 
L 675 125 
L 75 125 
L 1325 4450 
L 1825 4450 
L 3075 125 
z
M 2000 1925 
L 1600 3450 
L 1550 3450 
L 1150 1925 
L 2000 1925 
z
" transform="scale(0.015625)"/>
      </defs>
      <use xlink:href="#SimHei-56"/>
      <use xlink:href="#SimHei-61" x="50"/>
      <use xlink:href="#SimHei-6c" x="100"/>
      <use xlink:href="#SimHei-20" x="150"/>
      <use xlink:href="#SimHei-41" x="200"/>
      <use xlink:href="#SimHei-63" x="250"/>
      <use xlink:href="#SimHei-63" x="300"/>
      <use xlink:href="#SimHei-20" x="350"/>
      <use xlink:href="#SimHei-28" x="400"/>
      <use xlink:href="#SimHei-25" x="450"/>
      <use xlink:href="#SimHei-29" x="500"/>
     </g>
    </g>
   </g>
   <g id="line2d_59">
    <path d="M 424.887578 368.50453 
L 436.838768 356.515966 
L 448.789958 338.600472 
L 460.741147 338.600472 
L 472.692337 326.611909 
L 484.643527 320.550275 
L 496.594717 320.550275 
L 508.545906 308.696415 
L 520.497096 308.696415 
L 532.448286 308.696415 
L 544.399475 308.696415 
L 556.350665 308.696415 
L 568.301855 326.611909 
L 580.253045 314.623345 
L 592.204234 302.634781 
L 604.155424 302.634781 
L 616.106614 302.634781 
L 628.057804 314.623345 
L 640.008993 302.634781 
L 651.960183 314.623345 
L 663.911373 302.634781 
L 675.862562 308.696415 
" clip-path="url(#p55d2ec3316)" style="fill: none; stroke: #4e79a7; stroke-width: 2; stroke-linecap: square"/>
    <defs>
     <path id="m3546de6b0b" d="M -2 2 
L 2 2 
L 2 -2 
L -2 -2 
z
" style="stroke: #4e79a7; stroke-linejoin: miter"/>
    </defs>
    <g clip-path="url(#p55d2ec3316)">
     <use xlink:href="#m3546de6b0b" x="424.887578" y="368.50453" style="fill: #4e79a7; stroke: #4e79a7; stroke-linejoin: miter"/>
     <use xlink:href="#m3546de6b0b" x="436.838768" y="356.515966" style="fill: #4e79a7; stroke: #4e79a7; stroke-linejoin: miter"/>
     <use xlink:href="#m3546de6b0b" x="448.789958" y="338.600472" style="fill: #4e79a7; stroke: #4e79a7; stroke-linejoin: miter"/>
     <use xlink:href="#m3546de6b0b" x="460.741147" y="338.600472" style="fill: #4e79a7; stroke: #4e79a7; stroke-linejoin: miter"/>
     <use xlink:href="#m3546de6b0b" x="472.692337" y="326.611909" style="fill: #4e79a7; stroke: #4e79a7; stroke-linejoin: miter"/>
     <use xlink:href="#m3546de6b0b" x="484.643527" y="320.550275" style="fill: #4e79a7; stroke: #4e79a7; stroke-linejoin: miter"/>
     <use xlink:href="#m3546de6b0b" x="496.594717" y="320.550275" style="fill: #4e79a7; stroke: #4e79a7; stroke-linejoin: miter"/>
     <use xlink:href="#m3546de6b0b" x="508.545906" y="308.696415" style="fill: #4e79a7; stroke: #4e79a7; stroke-linejoin: miter"/>
     <use xlink:href="#m3546de6b0b" x="520.497096" y="308.696415" style="fill: #4e79a7; stroke: #4e79a7; stroke-linejoin: miter"/>
     <use xlink:href="#m3546de6b0b" x="532.448286" y="308.696415" style="fill: #4e79a7; stroke: #4e79a7; stroke-linejoin: miter"/>
     <use xlink:href="#m3546de6b0b" x="544.399475" y="308.696415" style="fill: #4e79a7; stroke: #4e79a7; stroke-linejoin: miter"/>
     <use xlink:href="#m3546de6b0b" x="556.350665" y="308.696415" style="fill: #4e79a7; stroke: #4e79a7; stroke-linejoin: miter"/>
     <use xlink:href="#m3546de6b0b" x="568.301855" y="326.611909" style="fill: #4e79a7; stroke: #4e79a7; stroke-linejoin: miter"/>
     <use xlink:href="#m3546de6b0b" x="580.253045" y="314.623345" style="fill: #4e79a7; stroke: #4e79a7; stroke-linejoin: miter"/>
     <use xlink:href="#m3546de6b0b" x="592.204234" y="302.634781" style="fill: #4e79a7; stroke: #4e79a7; stroke-linejoin: miter"/>
     <use xlink:href="#m3546de6b0b" x="604.155424" y="302.634781" style="fill: #4e79a7; stroke: #4e79a7; stroke-linejoin: miter"/>
     <use xlink:href="#m3546de6b0b" x="616.106614" y="302.634781" style="fill: #4e79a7; stroke: #4e79a7; stroke-linejoin: miter"/>
     <use xlink:href="#m3546de6b0b" x="628.057804" y="314.623345" style="fill: #4e79a7; stroke: #4e79a7; stroke-linejoin: miter"/>
     <use xlink:href="#m3546de6b0b" x="640.008993" y="302.634781" style="fill: #4e79a7; stroke: #4e79a7; stroke-linejoin: miter"/>
     <use xlink:href="#m3546de6b0b" x="651.960183" y="314.623345" style="fill: #4e79a7; stroke: #4e79a7; stroke-linejoin: miter"/>
     <use xlink:href="#m3546de6b0b" x="663.911373" y="302.634781" style="fill: #4e79a7; stroke: #4e79a7; stroke-linejoin: miter"/>
     <use xlink:href="#m3546de6b0b" x="675.862562" y="308.696415" style="fill: #4e79a7; stroke: #4e79a7; stroke-linejoin: miter"/>
    </g>
   </g>
   <g id="line2d_60">
    <path d="M 424.887578 362.5776 
L 436.838768 290.646218 
L 448.789958 296.707851 
L 460.741147 308.696415 
L 472.692337 290.646218 
L 484.643527 284.719287 
L 496.594717 290.646218 
L 508.545906 290.646218 
L 520.497096 284.719287 
L 532.448286 284.719287 
L 544.399475 290.646218 
L 556.350665 284.719287 
L 568.301855 284.719287 
" clip-path="url(#p55d2ec3316)" style="fill: none; stroke: #e15759; stroke-width: 2; stroke-linecap: square"/>
    <defs>
     <path id="me7c96dc86e" d="M 0 2 
C 0.530406 2 1.03916 1.789267 1.414214 1.414214 
C 1.789267 1.03916 2 0.530406 2 0 
C 2 -0.530406 1.789267 -1.03916 1.414214 -1.414214 
C 1.03916 -1.789267 0.530406 -2 0 -2 
C -0.530406 -2 -1.03916 -1.789267 -1.414214 -1.414214 
C -1.789267 -1.03916 -2 -0.530406 -2 0 
C -2 0.530406 -1.789267 1.03916 -1.414214 1.414214 
C -1.03916 1.789267 -0.530406 2 0 2 
z
" style="stroke: #e15759"/>
    </defs>
    <g clip-path="url(#p55d2ec3316)">
     <use xlink:href="#me7c96dc86e" x="424.887578" y="362.5776" style="fill: #e15759; stroke: #e15759"/>
     <use xlink:href="#me7c96dc86e" x="436.838768" y="290.646218" style="fill: #e15759; stroke: #e15759"/>
     <use xlink:href="#me7c96dc86e" x="448.789958" y="296.707851" style="fill: #e15759; stroke: #e15759"/>
     <use xlink:href="#me7c96dc86e" x="460.741147" y="308.696415" style="fill: #e15759; stroke: #e15759"/>
     <use xlink:href="#me7c96dc86e" x="472.692337" y="290.646218" style="fill: #e15759; stroke: #e15759"/>
     <use xlink:href="#me7c96dc86e" x="484.643527" y="284.719287" style="fill: #e15759; stroke: #e15759"/>
     <use xlink:href="#me7c96dc86e" x="496.594717" y="290.646218" style="fill: #e15759; stroke: #e15759"/>
     <use xlink:href="#me7c96dc86e" x="508.545906" y="290.646218" style="fill: #e15759; stroke: #e15759"/>
     <use xlink:href="#me7c96dc86e" x="520.497096" y="284.719287" style="fill: #e15759; stroke: #e15759"/>
     <use xlink:href="#me7c96dc86e" x="532.448286" y="284.719287" style="fill: #e15759; stroke: #e15759"/>
     <use xlink:href="#me7c96dc86e" x="544.399475" y="290.646218" style="fill: #e15759; stroke: #e15759"/>
     <use xlink:href="#me7c96dc86e" x="556.350665" y="284.719287" style="fill: #e15759; stroke: #e15759"/>
     <use xlink:href="#me7c96dc86e" x="568.301855" y="284.719287" style="fill: #e15759; stroke: #e15759"/>
    </g>
   </g>
   <g id="line2d_61">
    <path d="M 424.887578 302.634781 
L 675.862562 302.634781 
" clip-path="url(#p55d2ec3316)" style="fill: none; stroke-dasharray: 1,1.65; stroke-dashoffset: 0; stroke: #4e79a7; stroke-opacity: 0.7"/>
   </g>
   <g id="line2d_62">
    <path d="M 424.887578 284.719287 
L 675.862562 284.719287 
" clip-path="url(#p55d2ec3316)" style="fill: none; stroke-dasharray: 1,1.65; stroke-dashoffset: 0; stroke: #e15759; stroke-opacity: 0.7"/>
   </g>
   <g id="patch_7">
    <path d="M 424.887578 369.986262 
L 424.887578 217.367806 
" style="fill: none; stroke: #aaaaaa; stroke-width: 1.2; stroke-linejoin: miter; stroke-linecap: square"/>
   </g>
   <g id="patch_8">
    <path d="M 424.887578 369.986262 
L 675.862562 369.986262 
" style="fill: none; stroke: #aaaaaa; stroke-width: 1.2; stroke-linejoin: miter; stroke-linecap: square"/>
   </g>
   <g id="text_34">
    <!-- 96.89% -->
    <g style="fill: #4e79a7" transform="translate(636.911373 289.164485) scale(0.09 -0.09)">
     <defs>
      <path id="SimHei-2e" d="M 1075 125 
L 500 125 
L 500 675 
L 1075 675 
L 1075 125 
z
" transform="scale(0.015625)"/>
     </defs>
     <use xlink:href="#SimHei-39"/>
     <use xlink:href="#SimHei-36" x="50"/>
     <use xlink:href="#SimHei-2e" x="100"/>
     <use xlink:href="#SimHei-38" x="150"/>
     <use xlink:href="#SimHei-39" x="200"/>
     <use xlink:href="#SimHei-25" x="250"/>
    </g>
   </g>
   <g id="text_35">
    <!-- 98.22% -->
    <g style="fill: #e15759" transform="translate(636.911373 271.248991) scale(0.09 -0.09)">
     <use xlink:href="#SimHei-39"/>
     <use xlink:href="#SimHei-38" x="50"/>
     <use xlink:href="#SimHei-2e" x="100"/>
     <use xlink:href="#SimHei-32" x="150"/>
     <use xlink:href="#SimHei-32" x="200"/>
     <use xlink:href="#SimHei-25" x="250"/>
    </g>
   </g>
   <g id="text_36">
    <!-- 收敛阶段放大 -->
    <g style="fill: #333333" transform="translate(520.37507 212.367806) scale(0.1 -0.1)">
     <defs>
      <path id="SimHei-9636" d="M 2450 4850 
Q 2350 4575 2175 3962 
Q 2000 3350 1825 2800 
Q 2225 2225 2312 1912 
Q 2400 1600 2375 1250 
Q 2350 900 2137 725 
Q 1925 550 1400 475 
Q 1300 925 1200 1075 
Q 1725 1025 1837 1225 
Q 1950 1425 1875 1775 
Q 1800 2125 1350 2725 
Q 1700 3825 1825 4400 
L 975 4400 
L 975 -500 
L 500 -500 
Q 525 175 525 675 
L 525 3650 
Q 525 4225 500 4850 
L 2450 4850 
z
M 4250 4825 
Q 4600 4100 5187 3637 
Q 5775 3175 6200 3025 
Q 5950 2775 5800 2500 
Q 4975 3075 4600 3512 
Q 4225 3950 4025 4400 
Q 3850 4025 3512 3487 
Q 3175 2950 2625 2350 
Q 2425 2575 2175 2700 
Q 2700 3075 3150 3787 
Q 3600 4500 3850 5275 
Q 4050 5150 4375 5075 
Q 4275 4900 4250 4825 
z
M 3750 2700 
Q 3650 2325 3575 1512 
Q 3500 700 3250 225 
Q 3000 -250 2650 -575 
Q 2425 -400 2175 -300 
Q 2550 -25 2762 337 
Q 2975 700 3087 1200 
Q 3200 1700 3200 2800 
Q 3350 2725 3750 2700 
z
M 5025 2775 
Q 4975 2425 4975 2025 
L 4975 350 
Q 4975 100 5000 -525 
L 4475 -525 
Q 4500 150 4500 375 
L 4500 2025 
Q 4500 2375 4475 2775 
L 5025 2775 
z
" transform="scale(0.015625)"/>
      <path id="SimHei-6bb5" d="M 5500 2475 
Q 5350 1775 5100 1237 
Q 4850 700 4600 400 
Q 4825 225 5250 87 
Q 5675 -50 6125 -125 
Q 5950 -275 5825 -650 
Q 5150 -450 4825 -287 
Q 4500 -125 4225 75 
Q 3825 -175 3450 -337 
Q 3075 -500 2625 -650 
Q 2525 -400 2325 -225 
Q 2675 -150 3100 0 
Q 3525 150 3925 425 
Q 3725 675 3525 1150 
Q 3325 1600 3225 2075 
Q 3050 2075 2900 2075 
L 2900 2500 
Q 3375 2475 3800 2475 
L 5500 2475 
z
M 2650 4625 
Q 2300 4550 1887 4475 
Q 1475 4400 1300 4375 
L 1300 3550 
Q 2050 3550 2525 3600 
L 2525 3125 
Q 2050 3150 1300 3150 
L 1300 2350 
Q 2050 2350 2525 2375 
L 2525 1900 
Q 2050 1925 1300 1925 
L 1300 975 
Q 1950 1075 2625 1250 
Q 2600 1000 2600 775 
Q 1900 675 1300 525 
L 1300 100 
Q 1300 -200 1325 -625 
L 800 -625 
Q 825 -200 825 100 
L 825 425 
Q 575 375 350 300 
Q 300 650 250 825 
Q 500 850 825 900 
L 825 3800 
Q 825 4225 800 4725 
Q 1100 4725 1575 4825 
Q 2050 4925 2375 5125 
Q 2475 4850 2650 4625 
z
M 5100 4975 
Q 5075 4600 5075 4275 
L 5075 3650 
Q 5075 3425 5237 3387 
Q 5400 3350 5975 3400 
Q 5875 3225 5850 2950 
L 5075 2950 
Q 4650 2950 4625 3375 
L 4625 4575 
L 3775 4575 
Q 3775 3925 3675 3525 
Q 3575 3125 3200 2725 
Q 3025 2900 2800 3050 
Q 3275 3400 3300 3937 
Q 3325 4475 3300 4975 
L 5100 4975 
z
M 3675 2100 
Q 3775 1675 3962 1287 
Q 4150 900 4275 775 
Q 4450 950 4625 1312 
Q 4800 1675 4900 2100 
L 3800 2100 
L 3675 2100 
z
" transform="scale(0.015625)"/>
     </defs>
     <use xlink:href="#SimHei-6536"/>
     <use xlink:href="#SimHei-655b" x="100"/>
     <use xlink:href="#SimHei-9636" x="200"/>
     <use xlink:href="#SimHei-6bb5" x="300"/>
     <use xlink:href="#SimHei-653e" x="400"/>
     <use xlink:href="#SimHei-5927" x="500"/>
    </g>
   </g>
  </g>
 </g>
 <defs>
  <clipPath id="pbf418a8b90">
   <rect x="44.403125" y="23.864062" width="656.14375" height="399.0025"/>
  </clipPath>
  <clipPath id="p55d2ec3316">
   <rect x="424.887578" y="217.367806" width="250.974984" height="152.618456"/>
  </clipPath>
 </defs>
</svg>
