<?xml version="1.0" encoding="utf-8" standalone="no"?>
<!DOCTYPE svg PUBLIC "-//W3C//DTD SVG 1.1//EN"
  "http://www.w3.org/Graphics/SVG/1.1/DTD/svg11.dtd">
<svg xmlns:xlink="http://www.w3.org/1999/xlink" width="784.808125pt" height="460.380781pt" viewBox="0 0 784.808125 460.380781" xmlns="http://www.w3.org/2000/svg" version="1.1">
 <metadata>
  <rdf:RDF xmlns:dc="http://purl.org/dc/elements/1.1/" xmlns:cc="http://creativecommons.org/ns#" xmlns:rdf="http://www.w3.org/1999/02/22-rdf-syntax-ns#">
   <cc:Work>
    <dc:type rdf:resource="http://purl.org/dc/dcmitype/StillImage"/>
    <dc:date>2026-05-05T10:45:15.508582</dc:date>
    <dc:format>image/svg+xml</dc:format>
    <dc:creator>
     <cc:Agent>
      <dc:title>Matplotlib v3.9.4, https://matplotlib.org/</dc:title>
     </cc:Agent>
    </dc:creator>
   </cc:Work>
  </rdf:RDF>
 </metadata>
 <defs>
  <style type="text/css">*{stroke-linejoin: round; stroke-linecap: butt}</style>
 </defs>
 <g id="figure_1">
  <g id="patch_1">
   <path d="M 0 460.380781 
L 784.808125 460.380781 
L 784.808125 0 
L 0 0 
z
" style="fill: #ffffff"/>
  </g>
  <g id="axes_1">
   <g id="patch_2">
    <path d="M 45.184375 421.715937 
L 772.608125 421.715937 
L 772.608125 30.629687 
L 45.184375 30.629687 
z
" style="fill: #ffffff"/>
   </g>
   <g id="matplotlib.axis_1">
    <g id="xtick_1">
     <g id="line2d_1">
      <path d="M 111.313807 421.715937 
L 111.313807 30.629687 
" clip-path="url(#pa188d97b64)" style="fill: none; stroke: #e8e8e8; stroke-opacity: 0.3; stroke-width: 0.8; stroke-linecap: square"/>
     </g>
     <g id="line2d_2">
      <defs>
       <path id="mc70a2f2a8f" d="M 0 0 
L 0 3.5 
" style="stroke: #2c2c2c; stroke-width: 0.8"/>
      </defs>
      <g>
       <use xlink:href="#mc70a2f2a8f" x="111.313807" y="421.715937" style="fill: #2c2c2c; stroke: #2c2c2c; stroke-width: 0.8"/>
      </g>
     </g>
     <g id="text_1">
      <!-- 5 -->
      <g style="fill: #2c2c2c" transform="translate(108.813807 435.590937) scale(0.1 -0.1)">
       <defs>
        <path id="SimHei-35" d="M 550 1325 
Q 725 650 1150 575 
Q 1575 500 1837 662 
Q 2100 825 2212 1087 
Q 2325 1350 2312 1675 
Q 2300 2000 2137 2225 
Q 1975 2450 1725 2525 
Q 1475 2600 1162 2525 
Q 850 2450 650 2175 
L 225 2225 
Q 275 2375 700 4375 
L 2675 4375 
L 2675 3925 
L 1075 3925 
Q 950 3250 825 2850 
Q 1200 3025 1525 3012 
Q 1850 3000 2150 2862 
Q 2450 2725 2587 2487 
Q 2725 2250 2787 2012 
Q 2850 1775 2837 1500 
Q 2825 1225 2725 937 
Q 2625 650 2425 462 
Q 2225 275 1937 162 
Q 1650 50 1275 75 
Q 900 100 562 350 
Q 225 600 100 1200 
L 550 1325 
z
" transform="scale(0.015625)"/>
       </defs>
       <use xlink:href="#SimHei-35"/>
      </g>
     </g>
    </g>
    <g id="xtick_2">
     <g id="line2d_3">
      <path d="M 193.975597 421.715937 
L 193.975597 30.629687 
" clip-path="url(#pa188d97b64)" style="fill: none; stroke: #e8e8e8; stroke-opacity: 0.3; stroke-width: 0.8; stroke-linecap: square"/>
     </g>
     <g id="line2d_4">
      <g>
       <use xlink:href="#mc70a2f2a8f" x="193.975597" y="421.715937" style="fill: #2c2c2c; stroke: #2c2c2c; stroke-width: 0.8"/>
      </g>
     </g>
     <g id="text_2">
      <!-- 10 -->
      <g style="fill: #2c2c2c" transform="translate(188.975597 435.590937) scale(0.1 -0.1)">
       <defs>
        <path id="SimHei-31" d="M 1400 3600 
Q 1075 3275 575 2975 
L 575 3450 
Q 1200 3875 1600 4450 
L 1900 4450 
L 1900 150 
L 1400 150 
L 1400 3600 
z
" transform="scale(0.015625)"/>
        <path id="SimHei-30" d="M 225 2537 
Q 250 3200 412 3587 
Q 575 3975 875 4225 
Q 1175 4475 1612 4475 
Q 2050 4475 2375 4112 
Q 2700 3750 2800 3200 
Q 2900 2650 2862 1937 
Q 2825 1225 2612 775 
Q 2400 325 1975 150 
Q 1550 -25 1125 187 
Q 700 400 525 750 
Q 350 1100 275 1487 
Q 200 1875 225 2537 
z
M 750 2687 
Q 675 2000 800 1462 
Q 925 925 1212 700 
Q 1500 475 1800 612 
Q 2100 750 2237 1162 
Q 2375 1575 2375 2062 
Q 2375 2550 2337 2950 
Q 2300 3350 2112 3675 
Q 1925 4000 1612 4012 
Q 1300 4025 1062 3700 
Q 825 3375 750 2687 
z
" transform="scale(0.015625)"/>
       </defs>
       <use xlink:href="#SimHei-31"/>
       <use xlink:href="#SimHei-30" x="50"/>
      </g>
     </g>
    </g>
    <g id="xtick_3">
     <g id="line2d_5">
      <path d="M 276.637386 421.715937 
L 276.637386 30.629687 
" clip-path="url(#pa188d97b64)" style="fill: none; stroke: #e8e8e8; stroke-opacity: 0.3; stroke-width: 0.8; stroke-linecap: square"/>
     </g>
     <g id="line2d_6">
      <g>
       <use xlink:href="#mc70a2f2a8f" x="276.637386" y="421.715937" style="fill: #2c2c2c; stroke: #2c2c2c; stroke-width: 0.8"/>
      </g>
     </g>
     <g id="text_3">
      <!-- 15 -->
      <g style="fill: #2c2c2c" transform="translate(271.637386 435.590937) scale(0.1 -0.1)">
       <use xlink:href="#SimHei-31"/>
       <use xlink:href="#SimHei-35" x="50"/>
      </g>
     </g>
    </g>
    <g id="xtick_4">
     <g id="line2d_7">
      <path d="M 359.299176 421.715937 
L 359.299176 30.629687 
" clip-path="url(#pa188d97b64)" style="fill: none; stroke: #e8e8e8; stroke-opacity: 0.3; stroke-width: 0.8; stroke-linecap: square"/>
     </g>
     <g id="line2d_8">
      <g>
       <use xlink:href="#mc70a2f2a8f" x="359.299176" y="421.715937" style="fill: #2c2c2c; stroke: #2c2c2c; stroke-width: 0.8"/>
      </g>
     </g>
     <g id="text_4">
      <!-- 20 -->
      <g style="fill: #2c2c2c" transform="translate(354.299176 435.590937) scale(0.1 -0.1)">
       <defs>
        <path id="SimHei-32" d="M 300 250 
Q 325 625 650 925 
Q 975 1225 1475 1862 
Q 1975 2500 2125 2850 
Q 2275 3200 2237 3450 
Q 2200 3700 2000 3862 
Q 1800 4025 1537 4000 
Q 1275 3975 1037 3800 
Q 800 3625 675 3275 
L 200 3350 
Q 400 3925 712 4187 
Q 1025 4450 1450 4475 
Q 1700 4500 1900 4462 
Q 2100 4425 2312 4287 
Q 2525 4150 2662 3875 
Q 2800 3600 2762 3212 
Q 2725 2825 2375 2287 
Q 2025 1750 1025 600 
L 2825 600 
L 2825 150 
L 300 150 
L 300 250 
z
" transform="scale(0.015625)"/>
       </defs>
       <use xlink:href="#SimHei-32"/>
       <use xlink:href="#SimHei-30" x="50"/>
      </g>
     </g>
    </g>
    <g id="xtick_5">
     <g id="line2d_9">
      <path d="M 441.960966 421.715937 
L 441.960966 30.629687 
" clip-path="url(#pa188d97b64)" style="fill: none; stroke: #e8e8e8; stroke-opacity: 0.3; stroke-width: 0.8; stroke-linecap: square"/>
     </g>
     <g id="line2d_10">
      <g>
       <use xlink:href="#mc70a2f2a8f" x="441.960966" y="421.715937" style="fill: #2c2c2c; stroke: #2c2c2c; stroke-width: 0.8"/>
      </g>
     </g>
     <g id="text_5">
      <!-- 25 -->
      <g style="fill: #2c2c2c" transform="translate(436.960966 435.590937) scale(0.1 -0.1)">
       <use xlink:href="#SimHei-32"/>
       <use xlink:href="#SimHei-35" x="50"/>
      </g>
     </g>
    </g>
    <g id="xtick_6">
     <g id="line2d_11">
      <path d="M 524.622756 421.715937 
L 524.622756 30.629687 
" clip-path="url(#pa188d97b64)" style="fill: none; stroke: #e8e8e8; stroke-opacity: 0.3; stroke-width: 0.8; stroke-linecap: square"/>
     </g>
     <g id="line2d_12">
      <g>
       <use xlink:href="#mc70a2f2a8f" x="524.622756" y="421.715937" style="fill: #2c2c2c; stroke: #2c2c2c; stroke-width: 0.8"/>
      </g>
     </g>
     <g id="text_6">
      <!-- 30 -->
      <g style="fill: #2c2c2c" transform="translate(519.622756 435.590937) scale(0.1 -0.1)">
       <defs>
        <path id="SimHei-33" d="M 250 1225 
L 700 1300 
Q 800 975 1025 762 
Q 1250 550 1587 562 
Q 1925 575 2125 837 
Q 2325 1100 2300 1437 
Q 2275 1775 2037 1962 
Q 1800 2150 1275 2225 
L 1275 2550 
Q 1800 2600 2037 2825 
Q 2275 3050 2250 3412 
Q 2225 3775 1925 3937 
Q 1625 4100 1287 3975 
Q 950 3850 750 3275 
L 300 3350 
Q 450 3800 712 4100 
Q 975 4400 1425 4450 
Q 1875 4500 2212 4337 
Q 2550 4175 2687 3837 
Q 2825 3500 2725 3100 
Q 2625 2700 2150 2400 
Q 2500 2250 2687 1950 
Q 2875 1650 2812 1162 
Q 2750 675 2375 375 
Q 2000 75 1525 87 
Q 1050 100 700 387 
Q 350 675 250 1225 
z
" transform="scale(0.015625)"/>
       </defs>
       <use xlink:href="#SimHei-33"/>
       <use xlink:href="#SimHei-30" x="50"/>
      </g>
     </g>
    </g>
    <g id="xtick_7">
     <g id="line2d_13">
      <path d="M 607.284545 421.715937 
L 607.284545 30.629687 
" clip-path="url(#pa188d97b64)" style="fill: none; stroke: #e8e8e8; stroke-opacity: 0.3; stroke-width: 0.8; stroke-linecap: square"/>
     </g>
     <g id="line2d_14">
      <g>
       <use xlink:href="#mc70a2f2a8f" x="607.284545" y="421.715937" style="fill: #2c2c2c; stroke: #2c2c2c; stroke-width: 0.8"/>
      </g>
     </g>
     <g id="text_7">
      <!-- 35 -->
      <g style="fill: #2c2c2c" transform="translate(602.284545 435.590937) scale(0.1 -0.1)">
       <use xlink:href="#SimHei-33"/>
       <use xlink:href="#SimHei-35" x="50"/>
      </g>
     </g>
    </g>
    <g id="xtick_8">
     <g id="line2d_15">
      <path d="M 689.946335 421.715937 
L 689.946335 30.629687 
" clip-path="url(#pa188d97b64)" style="fill: none; stroke: #e8e8e8; stroke-opacity: 0.3; stroke-width: 0.8; stroke-linecap: square"/>
     </g>
     <g id="line2d_16">
      <g>
       <use xlink:href="#mc70a2f2a8f" x="689.946335" y="421.715937" style="fill: #2c2c2c; stroke: #2c2c2c; stroke-width: 0.8"/>
      </g>
     </g>
     <g id="text_8">
      <!-- 40 -->
      <g style="fill: #2c2c2c" transform="translate(684.946335 435.590937) scale(0.1 -0.1)">
       <defs>
        <path id="SimHei-34" d="M 2000 1100 
L 75 1100 
L 75 1525 
L 2100 4450 
L 2475 4450 
L 2475 1525 
L 3075 1525 
L 3075 1100 
L 2475 1100 
L 2475 150 
L 2000 150 
L 2000 1100 
z
M 2000 1525 
L 2000 3500 
L 600 1525 
L 2000 1525 
z
" transform="scale(0.015625)"/>
       </defs>
       <use xlink:href="#SimHei-34"/>
       <use xlink:href="#SimHei-30" x="50"/>
      </g>
     </g>
    </g>
    <g id="xtick_9">
     <g id="line2d_17">
      <path d="M 772.608125 421.715937 
L 772.608125 30.629687 
" clip-path="url(#pa188d97b64)" style="fill: none; stroke: #e8e8e8; stroke-opacity: 0.3; stroke-width: 0.8; stroke-linecap: square"/>
     </g>
     <g id="line2d_18">
      <g>
       <use xlink:href="#mc70a2f2a8f" x="772.608125" y="421.715937" style="fill: #2c2c2c; stroke: #2c2c2c; stroke-width: 0.8"/>
      </g>
     </g>
     <g id="text_9">
      <!-- 45 -->
      <g style="fill: #2c2c2c" transform="translate(767.608125 435.590937) scale(0.1 -0.1)">
       <use xlink:href="#SimHei-34"/>
       <use xlink:href="#SimHei-35" x="50"/>
      </g>
     </g>
    </g>
    <g id="text_10">
     <!-- 训练轮次 (Epoch) -->
     <g style="fill: #2c2c2c" transform="translate(356.89625 451.555781) scale(0.13 -0.13)">
      <defs>
       <path id="SimHei-8bad" d="M 1650 3300 
Q 1625 2725 1625 2225 
L 1625 675 
Q 1950 1125 2050 1275 
Q 2175 1125 2350 900 
Q 2025 500 1800 212 
Q 1575 -75 1325 -425 
Q 1150 -200 950 -50 
Q 1150 225 1150 625 
L 1150 2875 
L 975 2875 
Q 600 2875 300 2850 
L 300 3325 
Q 600 3300 975 3300 
L 1650 3300 
z
M 3425 4600 
Q 3375 4350 3387 3362 
Q 3400 2375 3337 1887 
Q 3275 1400 3087 837 
Q 2900 275 2450 -375 
Q 2225 -200 1975 -125 
Q 2550 500 2762 1362 
Q 2975 2225 2950 3337 
Q 2925 4450 2900 4675 
Q 3150 4625 3425 4600 
z
M 5875 4700 
Q 5850 4500 5850 3975 
L 5850 625 
Q 5850 125 5875 -400 
L 5400 -400 
Q 5425 125 5425 600 
L 5425 3975 
Q 5425 4500 5400 4700 
L 5875 4700 
z
M 4600 175 
L 4125 175 
Q 4150 725 4150 1150 
L 4150 3600 
Q 4150 4050 4125 4350 
L 4600 4350 
L 4600 175 
z
M 1000 5150 
Q 1650 4600 2100 4100 
Q 1875 3925 1750 3750 
Q 1050 4550 700 4800 
Q 850 4950 1000 5150 
z
" transform="scale(0.015625)"/>
       <path id="SimHei-7ec3" d="M 3300 3825 
Q 2950 3825 2400 3800 
L 2400 4250 
Q 2950 4225 3325 4225 
L 3625 4225 
Q 3875 4950 3900 5175 
Q 4200 5025 4450 4925 
Q 4350 4825 4262 4612 
Q 4175 4400 4100 4225 
L 5025 4225 
Q 5425 4225 5900 4250 
L 5900 3800 
Q 5550 3825 5025 3825 
L 3975 3825 
Q 3850 3525 3700 3150 
L 4675 3150 
Q 4650 2875 4650 2475 
L 4650 1975 
L 4975 1975 
Q 5350 1975 5800 2000 
L 5800 1550 
Q 5350 1575 4975 1575 
L 4650 1575 
L 4650 125 
Q 4650 -300 4462 -425 
Q 4275 -550 3650 -625 
Q 3625 -375 3450 -100 
Q 4075 -125 4137 -25 
Q 4200 75 4200 325 
L 4200 1575 
L 3425 1575 
Q 3250 1575 3100 1562 
Q 2950 1550 2750 1475 
Q 2650 1725 2550 1950 
Q 2800 2025 3125 2775 
Q 2950 2775 2450 2750 
L 2450 3175 
Q 3025 3150 3250 3150 
Q 3400 3525 3500 3825 
L 3300 3825 
z
M 1650 2950 
Q 1875 3300 2100 3900 
Q 2325 3725 2575 3600 
Q 2325 3275 2025 2750 
Q 1725 2225 1075 1350 
Q 1300 1400 2400 1575 
Q 2350 1300 2375 1150 
Q 1825 1100 650 825 
Q 525 1075 400 1275 
Q 625 1400 887 1737 
Q 1150 2075 1450 2575 
Q 1300 2600 1012 2562 
Q 725 2525 450 2450 
Q 350 2675 250 2925 
Q 500 3075 812 3725 
Q 1125 4375 1325 5000 
Q 1600 4825 1850 4750 
Q 1600 4375 1387 3962 
Q 1175 3550 800 2925 
Q 1375 2925 1650 2950 
z
M 2425 700 
Q 2400 425 2425 250 
Q 2000 150 1462 -25 
Q 925 -200 475 -425 
Q 400 -150 300 125 
Q 950 275 1187 337 
Q 1425 400 2425 700 
z
M 3725 875 
Q 3650 800 3287 400 
Q 2925 0 2475 -475 
Q 2300 -250 2150 -125 
Q 2425 100 2750 462 
Q 3075 825 3325 1225 
Q 3475 1050 3725 875 
z
M 5275 1225 
Q 5925 375 6200 -100 
Q 5950 -200 5750 -375 
Q 5475 175 4900 950 
Q 5075 1050 5275 1225 
z
M 4200 1975 
L 4200 2775 
L 3575 2775 
Q 3325 2250 3175 1975 
L 4200 1975 
z
" transform="scale(0.015625)"/>
       <path id="SimHei-8f6e" d="M 2200 3350 
Q 2175 3050 2175 2750 
L 2175 2425 
Q 2575 2425 2850 2450 
L 2850 2025 
Q 2550 2050 2175 2050 
L 2175 1150 
L 2975 1250 
Q 2925 1075 2925 850 
Q 2625 825 2175 750 
Q 2175 150 2200 -650 
L 1700 -650 
Q 1725 125 1725 700 
Q 700 550 400 475 
Q 300 775 250 975 
Q 600 1000 1725 1100 
L 1725 2050 
Q 1425 2050 1100 2025 
Q 775 2000 475 1925 
L 300 2425 
Q 450 2550 650 2900 
Q 850 3250 1075 3850 
Q 750 3850 275 3825 
L 275 4275 
Q 750 4250 1200 4250 
Q 1375 4875 1425 5200 
Q 1675 5075 1950 5025 
Q 1825 4750 1650 4250 
L 2075 4250 
Q 2600 4250 2975 4275 
L 2975 3825 
Q 2550 3850 2100 3850 
L 1550 3850 
Q 1175 2900 900 2425 
L 1725 2425 
Q 1700 3050 1700 3350 
L 2200 3350 
z
M 3750 1625 
Q 4750 2075 5200 2550 
Q 5475 2225 5625 2125 
Q 5175 1875 4750 1650 
Q 4325 1425 3750 1175 
L 3750 225 
Q 3750 -75 4050 -100 
L 4925 -100 
Q 5250 -125 5325 137 
Q 5400 400 5400 600 
Q 5800 350 5975 300 
Q 5750 -225 5612 -362 
Q 5475 -500 5175 -500 
L 3850 -500 
Q 3300 -500 3300 0 
L 3300 1900 
Q 3300 2475 3275 2900 
L 3775 2900 
Q 3750 2450 3750 2100 
L 3750 1625 
z
M 4375 4800 
Q 4875 3975 5337 3650 
Q 5800 3325 6200 3125 
Q 5975 2875 5825 2650 
Q 5200 3075 4825 3487 
Q 4450 3900 4200 4350 
Q 3875 3825 3587 3412 
Q 3300 3000 2925 2625 
Q 2725 2800 2450 3000 
Q 2775 3200 3037 3487 
Q 3300 3775 3512 4150 
Q 3725 4525 3950 5275 
Q 4300 5100 4550 5000 
L 4375 4800 
z
" transform="scale(0.015625)"/>
       <path id="SimHei-6b21" d="M 4150 3025 
Q 4000 2550 4050 2187 
Q 4100 1825 4275 1450 
Q 4450 1075 4800 750 
Q 5150 425 5475 212 
Q 5800 0 6150 -150 
Q 5875 -350 5750 -625 
Q 5250 -325 4887 -25 
Q 4525 275 4275 612 
Q 4025 950 3825 1425 
Q 3525 625 2950 125 
Q 2375 -375 1850 -650 
Q 1675 -400 1475 -225 
Q 2025 0 2487 362 
Q 2950 725 3162 1100 
Q 3375 1475 3450 1825 
Q 3525 2175 3537 2400 
Q 3550 2625 3525 3125 
Q 3825 3050 4150 3025 
z
M 3700 4975 
Q 3625 4900 3475 4575 
Q 3325 4250 3250 4075 
L 5775 4075 
Q 5650 3725 5550 3362 
Q 5450 3000 5275 2500 
Q 5000 2575 4775 2600 
Q 5025 3350 5100 3650 
L 3100 3650 
Q 2975 3400 2812 3100 
Q 2650 2800 2425 2450 
Q 2275 2600 1975 2700 
Q 2300 3050 2625 3762 
Q 2950 4475 3125 5200 
Q 3450 5025 3700 4975 
z
M 2025 2000 
Q 1825 1675 1475 1087 
Q 1125 500 725 -200 
Q 500 -25 250 175 
Q 725 725 1037 1262 
Q 1350 1800 1575 2325 
Q 1750 2175 2025 2000 
z
M 900 4750 
Q 1725 3725 1950 3375 
Q 1750 3250 1500 3050 
Q 1250 3525 500 4425 
Q 700 4575 900 4750 
z
" transform="scale(0.015625)"/>
       <path id="SimHei-20" transform="scale(0.015625)"/>
       <path id="SimHei-28" d="M 2975 -200 
L 2700 -475 
Q 2075 125 1762 775 
Q 1450 1425 1450 2250 
Q 1450 3075 1762 3725 
Q 2075 4375 2700 5000 
L 2975 4725 
Q 2400 4175 2112 3587 
Q 1825 3000 1825 2250 
Q 1825 1500 2112 912 
Q 2400 325 2975 -200 
z
" transform="scale(0.015625)"/>
       <path id="SimHei-45" d="M 2900 125 
L 350 125 
L 350 4400 
L 2775 4400 
L 2775 3925 
L 925 3925 
L 925 2600 
L 2625 2600 
L 2625 2125 
L 925 2125 
L 925 600 
L 2900 600 
L 2900 125 
z
" transform="scale(0.015625)"/>
       <path id="SimHei-70" d="M 2825 1525 
Q 2825 800 2475 425 
Q 2125 50 1625 50 
Q 1350 50 1150 162 
Q 950 275 800 500 
L 800 -800 
L 300 -800 
L 300 2925 
L 800 2925 
L 800 2550 
Q 950 2775 1150 2875 
Q 1350 2975 1625 2975 
Q 2125 2975 2475 2612 
Q 2825 2250 2825 1525 
z
M 2275 1525 
Q 2275 2000 2087 2262 
Q 1900 2525 1525 2525 
Q 1225 2525 1012 2262 
Q 800 2000 800 1525 
Q 800 1050 1012 775 
Q 1225 500 1525 500 
Q 1900 500 2087 775 
Q 2275 1050 2275 1525 
z
" transform="scale(0.015625)"/>
       <path id="SimHei-6f" d="M 2925 1525 
Q 2925 875 2525 475 
Q 2125 75 1575 75 
Q 1025 75 625 475 
Q 225 875 225 1525 
Q 225 2175 625 2575 
Q 1025 2975 1575 2975 
Q 2125 2975 2525 2575 
Q 2925 2175 2925 1525 
z
M 2375 1525 
Q 2375 2025 2125 2275 
Q 1875 2525 1575 2525 
Q 1275 2525 1025 2275 
Q 775 2025 775 1525 
Q 775 1025 1025 775 
Q 1275 525 1575 525 
Q 1875 525 2125 775 
Q 2375 1025 2375 1525 
z
" transform="scale(0.015625)"/>
       <path id="SimHei-63" d="M 2850 1250 
Q 2850 725 2487 400 
Q 2125 75 1575 75 
Q 1025 75 625 462 
Q 225 850 225 1525 
Q 225 2200 625 2587 
Q 1025 2975 1575 2975 
Q 2125 2975 2450 2687 
Q 2775 2400 2775 2000 
L 2225 2000 
Q 2200 2300 2012 2412 
Q 1825 2525 1575 2525 
Q 1275 2525 1025 2287 
Q 775 2050 775 1525 
Q 775 1000 1025 762 
Q 1275 525 1575 525 
Q 1900 525 2100 700 
Q 2300 875 2300 1250 
L 2850 1250 
z
" transform="scale(0.015625)"/>
       <path id="SimHei-68" d="M 2800 125 
L 2300 125 
L 2300 1925 
Q 2300 2225 2150 2400 
Q 2000 2575 1750 2575 
Q 1425 2575 1137 2237 
Q 850 1900 850 1400 
L 850 125 
L 350 125 
L 350 4400 
L 850 4400 
L 850 2400 
Q 1050 2675 1287 2825 
Q 1525 2975 1900 2975 
Q 2350 2975 2575 2725 
Q 2800 2475 2800 2100 
L 2800 125 
z
" transform="scale(0.015625)"/>
       <path id="SimHei-29" d="M 1675 2250 
Q 1675 1425 1362 775 
Q 1050 125 425 -475 
L 150 -200 
Q 725 325 1012 912 
Q 1300 1500 1300 2250 
Q 1300 3000 1012 3587 
Q 725 4175 150 4725 
L 425 5000 
Q 1050 4375 1362 3725 
Q 1675 3075 1675 2250 
z
" transform="scale(0.015625)"/>
      </defs>
      <use xlink:href="#SimHei-8bad"/>
      <use xlink:href="#SimHei-7ec3" x="100"/>
      <use xlink:href="#SimHei-8f6e" x="200"/>
      <use xlink:href="#SimHei-6b21" x="300"/>
      <use xlink:href="#SimHei-20" x="400"/>
      <use xlink:href="#SimHei-28" x="450"/>
      <use xlink:href="#SimHei-45" x="500"/>
      <use xlink:href="#SimHei-70" x="550"/>
      <use xlink:href="#SimHei-6f" x="600"/>
      <use xlink:href="#SimHei-63" x="650"/>
      <use xlink:href="#SimHei-68" x="700"/>
      <use xlink:href="#SimHei-29" x="750"/>
     </g>
    </g>
   </g>
   <g id="matplotlib.axis_2">
    <g id="ytick_1">
     <g id="line2d_19">
      <path d="M 45.184375 396.21233 
L 772.608125 396.21233 
" clip-path="url(#pa188d97b64)" style="fill: none; stroke: #e8e8e8; stroke-opacity: 0.3; stroke-width: 0.8; stroke-linecap: square"/>
     </g>
     <g id="line2d_20">
      <defs>
       <path id="m837073da53" d="M 0 0 
L -3.5 0 
" style="stroke: #2c2c2c; stroke-width: 0.8"/>
      </defs>
      <g>
       <use xlink:href="#m837073da53" x="45.184375" y="396.21233" style="fill: #2c2c2c; stroke: #2c2c2c; stroke-width: 0.8"/>
      </g>
     </g>
     <g id="text_11">
      <!-- 0.4 -->
      <g style="fill: #2c2c2c" transform="translate(23.184375 399.64983) scale(0.1 -0.1)">
       <defs>
        <path id="SimHei-2e" d="M 1075 125 
L 500 125 
L 500 675 
L 1075 675 
L 1075 125 
z
" transform="scale(0.015625)"/>
       </defs>
       <use xlink:href="#SimHei-30"/>
       <use xlink:href="#SimHei-2e" x="50"/>
       <use xlink:href="#SimHei-34" x="100"/>
      </g>
     </g>
    </g>
    <g id="ytick_2">
     <g id="line2d_21">
      <path d="M 45.184375 349.804165 
L 772.608125 349.804165 
" clip-path="url(#pa188d97b64)" style="fill: none; stroke: #e8e8e8; stroke-opacity: 0.3; stroke-width: 0.8; stroke-linecap: square"/>
     </g>
     <g id="line2d_22">
      <g>
       <use xlink:href="#m837073da53" x="45.184375" y="349.804165" style="fill: #2c2c2c; stroke: #2c2c2c; stroke-width: 0.8"/>
      </g>
     </g>
     <g id="text_12">
      <!-- 0.6 -->
      <g style="fill: #2c2c2c" transform="translate(23.184375 353.241665) scale(0.1 -0.1)">
       <defs>
        <path id="SimHei-36" d="M 250 1612 
Q 275 1975 387 2225 
Q 500 2475 725 2850 
L 1750 4450 
L 2325 4450 
L 1275 2800 
Q 1950 2975 2350 2750 
Q 2750 2525 2887 2237 
Q 3025 1950 3037 1612 
Q 3050 1275 2937 950 
Q 2825 625 2537 362 
Q 2250 100 1737 75 
Q 1225 50 862 262 
Q 500 475 362 862 
Q 225 1250 250 1612 
z
M 1025 787 
Q 1250 550 1625 525 
Q 2000 500 2250 775 
Q 2500 1050 2500 1575 
Q 2500 2100 2187 2300 
Q 1875 2500 1487 2450 
Q 1100 2400 925 2075 
Q 750 1750 775 1387 
Q 800 1025 1025 787 
z
" transform="scale(0.015625)"/>
       </defs>
       <use xlink:href="#SimHei-30"/>
       <use xlink:href="#SimHei-2e" x="50"/>
       <use xlink:href="#SimHei-36" x="100"/>
      </g>
     </g>
    </g>
    <g id="ytick_3">
     <g id="line2d_23">
      <path d="M 45.184375 303.396 
L 772.608125 303.396 
" clip-path="url(#pa188d97b64)" style="fill: none; stroke: #e8e8e8; stroke-opacity: 0.3; stroke-width: 0.8; stroke-linecap: square"/>
     </g>
     <g id="line2d_24">
      <g>
       <use xlink:href="#m837073da53" x="45.184375" y="303.396" style="fill: #2c2c2c; stroke: #2c2c2c; stroke-width: 0.8"/>
      </g>
     </g>
     <g id="text_13">
      <!-- 0.8 -->
      <g style="fill: #2c2c2c" transform="translate(23.184375 306.8335) scale(0.1 -0.1)">
       <defs>
        <path id="SimHei-38" d="M 175 1375 
Q 175 1675 325 1962 
Q 475 2250 825 2425 
Q 525 2600 425 2812 
Q 325 3025 312 3300 
Q 300 3575 387 3775 
Q 475 3975 650 4150 
Q 825 4325 1037 4387 
Q 1250 4450 1500 4450 
Q 1750 4450 1950 4400 
Q 2150 4350 2375 4187 
Q 2600 4025 2700 3725 
Q 2800 3425 2687 3025 
Q 2575 2625 2100 2400 
Q 2525 2275 2700 2012 
Q 2875 1750 2875 1375 
Q 2875 1000 2762 775 
Q 2650 550 2512 400 
Q 2375 250 2137 162 
Q 1900 75 1537 75 
Q 1175 75 912 162 
Q 650 250 475 425 
Q 300 600 237 837 
Q 175 1075 175 1375 
z
M 687 1400 
Q 675 1100 787 875 
Q 900 650 1200 587 
Q 1500 525 1825 600 
Q 2150 675 2275 950 
Q 2400 1225 2362 1500 
Q 2325 1775 2050 1962 
Q 1775 2150 1450 2125 
Q 1125 2100 912 1900 
Q 700 1700 687 1400 
z
M 775 3350 
Q 775 3100 950 2875 
Q 1125 2650 1500 2650 
Q 1875 2650 2062 2875 
Q 2250 3100 2237 3412 
Q 2225 3725 2012 3875 
Q 1800 4025 1437 4000 
Q 1075 3975 925 3787 
Q 775 3600 775 3350 
z
" transform="scale(0.015625)"/>
       </defs>
       <use xlink:href="#SimHei-30"/>
       <use xlink:href="#SimHei-2e" x="50"/>
       <use xlink:href="#SimHei-38" x="100"/>
      </g>
     </g>
    </g>
    <g id="ytick_4">
     <g id="line2d_25">
      <path d="M 45.184375 256.987834 
L 772.608125 256.987834 
" clip-path="url(#pa188d97b64)" style="fill: none; stroke: #e8e8e8; stroke-opacity: 0.3; stroke-width: 0.8; stroke-linecap: square"/>
     </g>
     <g id="line2d_26">
      <g>
       <use xlink:href="#m837073da53" x="45.184375" y="256.987834" style="fill: #2c2c2c; stroke: #2c2c2c; stroke-width: 0.8"/>
      </g>
     </g>
     <g id="text_14">
      <!-- 1.0 -->
      <g style="fill: #2c2c2c" transform="translate(23.184375 260.425334) scale(0.1 -0.1)">
       <use xlink:href="#SimHei-31"/>
       <use xlink:href="#SimHei-2e" x="50"/>
       <use xlink:href="#SimHei-30" x="100"/>
      </g>
     </g>
    </g>
    <g id="ytick_5">
     <g id="line2d_27">
      <path d="M 45.184375 210.579669 
L 772.608125 210.579669 
" clip-path="url(#pa188d97b64)" style="fill: none; stroke: #e8e8e8; stroke-opacity: 0.3; stroke-width: 0.8; stroke-linecap: square"/>
     </g>
     <g id="line2d_28">
      <g>
       <use xlink:href="#m837073da53" x="45.184375" y="210.579669" style="fill: #2c2c2c; stroke: #2c2c2c; stroke-width: 0.8"/>
      </g>
     </g>
     <g id="text_15">
      <!-- 1.2 -->
      <g style="fill: #2c2c2c" transform="translate(23.184375 214.017169) scale(0.1 -0.1)">
       <use xlink:href="#SimHei-31"/>
       <use xlink:href="#SimHei-2e" x="50"/>
       <use xlink:href="#SimHei-32" x="100"/>
      </g>
     </g>
    </g>
    <g id="ytick_6">
     <g id="line2d_29">
      <path d="M 45.184375 164.171504 
L 772.608125 164.171504 
" clip-path="url(#pa188d97b64)" style="fill: none; stroke: #e8e8e8; stroke-opacity: 0.3; stroke-width: 0.8; stroke-linecap: square"/>
     </g>
     <g id="line2d_30">
      <g>
       <use xlink:href="#m837073da53" x="45.184375" y="164.171504" style="fill: #2c2c2c; stroke: #2c2c2c; stroke-width: 0.8"/>
      </g>
     </g>
     <g id="text_16">
      <!-- 1.4 -->
      <g style="fill: #2c2c2c" transform="translate(23.184375 167.609004) scale(0.1 -0.1)">
       <use xlink:href="#SimHei-31"/>
       <use xlink:href="#SimHei-2e" x="50"/>
       <use xlink:href="#SimHei-34" x="100"/>
      </g>
     </g>
    </g>
    <g id="ytick_7">
     <g id="line2d_31">
      <path d="M 45.184375 117.763338 
L 772.608125 117.763338 
" clip-path="url(#pa188d97b64)" style="fill: none; stroke: #e8e8e8; stroke-opacity: 0.3; stroke-width: 0.8; stroke-linecap: square"/>
     </g>
     <g id="line2d_32">
      <g>
       <use xlink:href="#m837073da53" x="45.184375" y="117.763338" style="fill: #2c2c2c; stroke: #2c2c2c; stroke-width: 0.8"/>
      </g>
     </g>
     <g id="text_17">
      <!-- 1.6 -->
      <g style="fill: #2c2c2c" transform="translate(23.184375 121.200838) scale(0.1 -0.1)">
       <use xlink:href="#SimHei-31"/>
       <use xlink:href="#SimHei-2e" x="50"/>
       <use xlink:href="#SimHei-36" x="100"/>
      </g>
     </g>
    </g>
    <g id="ytick_8">
     <g id="line2d_33">
      <path d="M 45.184375 71.355173 
L 772.608125 71.355173 
" clip-path="url(#pa188d97b64)" style="fill: none; stroke: #e8e8e8; stroke-opacity: 0.3; stroke-width: 0.8; stroke-linecap: square"/>
     </g>
     <g id="line2d_34">
      <g>
       <use xlink:href="#m837073da53" x="45.184375" y="71.355173" style="fill: #2c2c2c; stroke: #2c2c2c; stroke-width: 0.8"/>
      </g>
     </g>
     <g id="text_18">
      <!-- 1.8 -->
      <g style="fill: #2c2c2c" transform="translate(23.184375 74.792673) scale(0.1 -0.1)">
       <use xlink:href="#SimHei-31"/>
       <use xlink:href="#SimHei-2e" x="50"/>
       <use xlink:href="#SimHei-38" x="100"/>
      </g>
     </g>
    </g>
    <g id="text_19">
     <!-- 损失值 (Loss) -->
     <g style="fill: #2c2c2c" transform="translate(17.559375 268.422812) rotate(-90) scale(0.13 -0.13)">
      <defs>
       <path id="SimHei-635f" d="M 1175 4600 
Q 1175 4950 1150 5250 
L 1675 5250 
Q 1650 4975 1650 4600 
L 1650 4075 
Q 1950 4075 2325 4100 
L 2325 3625 
Q 1950 3650 1650 3650 
L 1650 2500 
Q 1875 2550 2275 2750 
Q 2275 2550 2300 2300 
Q 2025 2200 1650 2025 
L 1650 175 
Q 1650 -225 1425 -325 
Q 1200 -425 625 -500 
Q 600 -250 450 50 
Q 800 25 987 37 
Q 1175 50 1175 350 
L 1175 1850 
Q 675 1675 400 1500 
Q 375 1800 250 2100 
Q 600 2150 1175 2350 
L 1175 3650 
Q 650 3650 325 3625 
L 325 4100 
Q 625 4075 1175 4075 
L 1175 4600 
z
M 5550 5025 
Q 5525 4650 5525 4275 
Q 5525 3925 5550 3525 
L 2900 3525 
Q 2925 3925 2925 4275 
Q 2925 4650 2900 5025 
L 5550 5025 
z
M 5775 3075 
Q 5750 2725 5750 2350 
L 5750 1725 
Q 5750 1350 5775 875 
L 5275 875 
L 5275 2650 
L 3150 2650 
L 3150 850 
L 2650 850 
Q 2675 1275 2675 1700 
L 2675 2325 
Q 2675 2600 2650 3075 
L 5775 3075 
z
M 4525 2200 
Q 4425 1825 4362 1337 
Q 4300 850 4125 537 
Q 3950 225 3600 -62 
Q 3250 -350 2425 -650 
Q 2325 -450 2050 -175 
Q 2750 -50 3137 200 
Q 3525 450 3700 762 
Q 3875 1075 3900 1462 
Q 3925 1850 3925 2275 
Q 4225 2225 4525 2200 
z
M 5100 3925 
L 5100 4650 
L 3375 4650 
L 3375 3925 
L 5100 3925 
z
M 4675 750 
Q 4975 575 5412 337 
Q 5850 100 6175 -125 
Q 5975 -325 5850 -550 
Q 5525 -300 5200 -87 
Q 4875 125 4375 350 
Q 4550 550 4675 750 
z
" transform="scale(0.015625)"/>
       <path id="SimHei-5931" d="M 2050 4450 
Q 1925 4325 1675 3750 
L 2950 3750 
Q 2950 4650 2925 5100 
Q 3175 5075 3500 5050 
Q 3450 4700 3437 4425 
Q 3425 4150 3425 3750 
L 4600 3750 
Q 5000 3750 5425 3775 
L 5425 3300 
Q 5025 3325 4600 3325 
L 3425 3325 
Q 3425 2775 3375 2200 
L 5050 2200 
Q 5425 2200 5875 2225 
L 5875 1750 
Q 5425 1775 5050 1775 
L 3575 1775 
Q 3875 1100 4600 675 
Q 5325 250 6025 100 
Q 5825 -150 5675 -475 
Q 4950 -200 4250 287 
Q 3550 775 3200 1475 
Q 2900 825 2325 300 
Q 1750 -225 775 -650 
Q 650 -400 400 -175 
Q 1250 50 1912 587 
Q 2575 1125 2775 1775 
L 1325 1775 
Q 925 1775 450 1750 
L 450 2225 
Q 925 2200 1325 2200 
L 2875 2200 
Q 2950 2725 2950 3325 
L 1500 3325 
Q 1200 2800 975 2450 
Q 775 2575 500 2675 
Q 950 3225 1187 3750 
Q 1425 4275 1500 4675 
Q 1800 4525 2050 4450 
z
" transform="scale(0.015625)"/>
       <path id="SimHei-503c" d="M 3675 4450 
L 3675 5100 
Q 3975 5075 4350 5050 
Q 4225 4875 4200 4450 
L 5125 4450 
Q 5550 4450 5875 4475 
L 5875 4025 
Q 5525 4050 5125 4050 
L 4175 4050 
L 4125 3500 
L 5400 3500 
Q 5375 3200 5375 2700 
L 5375 150 
Q 5875 150 6100 175 
L 6100 -275 
Q 5775 -250 5200 -250 
L 2850 -250 
Q 2275 -250 1900 -275 
L 1900 175 
Q 2125 150 2600 150 
L 2600 2700 
Q 2600 3175 2575 3500 
L 3600 3500 
L 3650 4050 
L 3200 4050 
Q 2575 4050 2225 4025 
L 2225 4475 
Q 2550 4450 3200 4450 
L 3675 4450 
z
M 2225 4900 
Q 2025 4675 1650 3750 
L 1650 450 
Q 1650 -75 1675 -550 
L 1150 -550 
Q 1175 -125 1175 375 
L 1175 2950 
Q 875 2450 625 2150 
Q 425 2425 250 2575 
Q 500 2825 937 3537 
Q 1375 4250 1625 5150 
Q 1975 4975 2225 4900 
z
M 4925 2650 
L 4925 3150 
L 3075 3150 
L 3075 2650 
L 4925 2650 
z
M 4925 150 
L 4925 625 
L 3075 625 
L 3075 150 
L 4925 150 
z
M 4925 1000 
L 4925 1450 
L 3075 1450 
L 3075 1000 
L 4925 1000 
z
M 4925 1825 
L 4925 2275 
L 3075 2275 
L 3075 1825 
L 4925 1825 
z
" transform="scale(0.015625)"/>
       <path id="SimHei-4c" d="M 2900 125 
L 300 125 
L 300 4400 
L 875 4400 
L 875 600 
L 2900 600 
L 2900 125 
z
" transform="scale(0.015625)"/>
       <path id="SimHei-73" d="M 2750 900 
Q 2750 500 2437 287 
Q 2125 75 1650 75 
Q 1050 75 725 312 
Q 400 550 400 1000 
L 900 1000 
Q 900 700 1112 600 
Q 1325 500 1625 500 
Q 1925 500 2075 612 
Q 2225 725 2225 900 
Q 2225 1025 2100 1150 
Q 1975 1275 1475 1350 
Q 900 1425 687 1637 
Q 475 1850 475 2200 
Q 475 2500 762 2737 
Q 1050 2975 1600 2975 
Q 2100 2975 2387 2750 
Q 2675 2525 2675 2150 
L 2175 2150 
Q 2175 2375 2012 2462 
Q 1850 2550 1600 2550 
Q 1275 2550 1137 2437 
Q 1000 2325 1000 2175 
Q 1000 2000 1125 1900 
Q 1250 1800 1650 1750 
Q 2300 1650 2525 1437 
Q 2750 1225 2750 900 
z
" transform="scale(0.015625)"/>
      </defs>
      <use xlink:href="#SimHei-635f"/>
      <use xlink:href="#SimHei-5931" x="100"/>
      <use xlink:href="#SimHei-503c" x="200"/>
      <use xlink:href="#SimHei-20" x="300"/>
      <use xlink:href="#SimHei-28" x="350"/>
      <use xlink:href="#SimHei-4c" x="400"/>
      <use xlink:href="#SimHei-6f" x="450"/>
      <use xlink:href="#SimHei-73" x="500"/>
      <use xlink:href="#SimHei-73" x="550"/>
      <use xlink:href="#SimHei-29" x="600"/>
     </g>
    </g>
   </g>
   <g id="line2d_35">
    <path d="M 45.184375 119.851706 
L 61.716733 178.650851 
L 78.249091 218.376241 
L 94.781449 236.521833 
L 111.313807 251.465263 
L 127.846165 258.635324 
L 144.378523 269.425223 
L 160.910881 260.793304 
L 177.443239 272.76661 
L 193.975597 274.994202 
L 210.507955 272.859427 
L 227.040312 279.286958 
L 243.57267 278.614039 
L 260.105028 277.894713 
L 276.637386 273.950019 
L 293.169744 283.092427 
L 309.702102 277.941121 
L 326.23446 280.934448 
L 342.766818 284.716713 
L 359.299176 284.53108 
L 375.831534 290.796183 
L 392.363892 306.783796 
L 408.89625 317.248837 
L 425.428608 335.51045 
L 441.960966 343.376634 
L 458.493324 353.238369 
L 475.025682 358.760941 
L 491.55804 369.759676 
L 508.090398 371.755227 
L 524.622756 379.087717 
L 541.155114 383.31086 
L 557.687472 383.937371 
L 574.21983 387.719636 
L 590.752187 387.069922 
L 607.284545 389.111881 
L 623.816903 389.251105 
L 640.349261 390.620146 
L 656.881619 390.921799 
L 673.413977 393.984738 
L 689.946335 390.295289 
L 706.478693 390.480922 
L 723.011051 393.079779 
L 739.543409 392.754922 
L 756.075767 394.588044 
L 772.608125 392.29084 
" clip-path="url(#pa188d97b64)" style="fill: none; stroke-dasharray: 5.55,2.4; stroke-dashoffset: 0; stroke: #2e86ab; stroke-opacity: 0.7; stroke-width: 1.5"/>
    <defs>
     <path id="mdc243ddf29" d="M -1.5 1.5 
L 1.5 1.5 
L 1.5 -1.5 
L -1.5 -1.5 
z
" style="stroke: #2e86ab; stroke-opacity: 0.7; stroke-linejoin: miter"/>
    </defs>
    <g clip-path="url(#pa188d97b64)">
     <use xlink:href="#mdc243ddf29" x="45.184375" y="119.851706" style="fill: #2e86ab; fill-opacity: 0.7; stroke: #2e86ab; stroke-opacity: 0.7; stroke-linejoin: miter"/>
     <use xlink:href="#mdc243ddf29" x="78.249091" y="218.376241" style="fill: #2e86ab; fill-opacity: 0.7; stroke: #2e86ab; stroke-opacity: 0.7; stroke-linejoin: miter"/>
     <use xlink:href="#mdc243ddf29" x="111.313807" y="251.465263" style="fill: #2e86ab; fill-opacity: 0.7; stroke: #2e86ab; stroke-opacity: 0.7; stroke-linejoin: miter"/>
     <use xlink:href="#mdc243ddf29" x="144.378523" y="269.425223" style="fill: #2e86ab; fill-opacity: 0.7; stroke: #2e86ab; stroke-opacity: 0.7; stroke-linejoin: miter"/>
     <use xlink:href="#mdc243ddf29" x="177.443239" y="272.76661" style="fill: #2e86ab; fill-opacity: 0.7; stroke: #2e86ab; stroke-opacity: 0.7; stroke-linejoin: miter"/>
     <use xlink:href="#mdc243ddf29" x="210.507955" y="272.859427" style="fill: #2e86ab; fill-opacity: 0.7; stroke: #2e86ab; stroke-opacity: 0.7; stroke-linejoin: miter"/>
     <use xlink:href="#mdc243ddf29" x="243.57267" y="278.614039" style="fill: #2e86ab; fill-opacity: 0.7; stroke: #2e86ab; stroke-opacity: 0.7; stroke-linejoin: miter"/>
     <use xlink:href="#mdc243ddf29" x="276.637386" y="273.950019" style="fill: #2e86ab; fill-opacity: 0.7; stroke: #2e86ab; stroke-opacity: 0.7; stroke-linejoin: miter"/>
     <use xlink:href="#mdc243ddf29" x="309.702102" y="277.941121" style="fill: #2e86ab; fill-opacity: 0.7; stroke: #2e86ab; stroke-opacity: 0.7; stroke-linejoin: miter"/>
     <use xlink:href="#mdc243ddf29" x="342.766818" y="284.716713" style="fill: #2e86ab; fill-opacity: 0.7; stroke: #2e86ab; stroke-opacity: 0.7; stroke-linejoin: miter"/>
     <use xlink:href="#mdc243ddf29" x="375.831534" y="290.796183" style="fill: #2e86ab; fill-opacity: 0.7; stroke: #2e86ab; stroke-opacity: 0.7; stroke-linejoin: miter"/>
     <use xlink:href="#mdc243ddf29" x="408.89625" y="317.248837" style="fill: #2e86ab; fill-opacity: 0.7; stroke: #2e86ab; stroke-opacity: 0.7; stroke-linejoin: miter"/>
     <use xlink:href="#mdc243ddf29" x="441.960966" y="343.376634" style="fill: #2e86ab; fill-opacity: 0.7; stroke: #2e86ab; stroke-opacity: 0.7; stroke-linejoin: miter"/>
     <use xlink:href="#mdc243ddf29" x="475.025682" y="358.760941" style="fill: #2e86ab; fill-opacity: 0.7; stroke: #2e86ab; stroke-opacity: 0.7; stroke-linejoin: miter"/>
     <use xlink:href="#mdc243ddf29" x="508.090398" y="371.755227" style="fill: #2e86ab; fill-opacity: 0.7; stroke: #2e86ab; stroke-opacity: 0.7; stroke-linejoin: miter"/>
     <use xlink:href="#mdc243ddf29" x="541.155114" y="383.31086" style="fill: #2e86ab; fill-opacity: 0.7; stroke: #2e86ab; stroke-opacity: 0.7; stroke-linejoin: miter"/>
     <use xlink:href="#mdc243ddf29" x="574.21983" y="387.719636" style="fill: #2e86ab; fill-opacity: 0.7; stroke: #2e86ab; stroke-opacity: 0.7; stroke-linejoin: miter"/>
     <use xlink:href="#mdc243ddf29" x="607.284545" y="389.111881" style="fill: #2e86ab; fill-opacity: 0.7; stroke: #2e86ab; stroke-opacity: 0.7; stroke-linejoin: miter"/>
     <use xlink:href="#mdc243ddf29" x="640.349261" y="390.620146" style="fill: #2e86ab; fill-opacity: 0.7; stroke: #2e86ab; stroke-opacity: 0.7; stroke-linejoin: miter"/>
     <use xlink:href="#mdc243ddf29" x="673.413977" y="393.984738" style="fill: #2e86ab; fill-opacity: 0.7; stroke: #2e86ab; stroke-opacity: 0.7; stroke-linejoin: miter"/>
     <use xlink:href="#mdc243ddf29" x="706.478693" y="390.480922" style="fill: #2e86ab; fill-opacity: 0.7; stroke: #2e86ab; stroke-opacity: 0.7; stroke-linejoin: miter"/>
     <use xlink:href="#mdc243ddf29" x="739.543409" y="392.754922" style="fill: #2e86ab; fill-opacity: 0.7; stroke: #2e86ab; stroke-opacity: 0.7; stroke-linejoin: miter"/>
     <use xlink:href="#mdc243ddf29" x="772.608125" y="392.29084" style="fill: #2e86ab; fill-opacity: 0.7; stroke: #2e86ab; stroke-opacity: 0.7; stroke-linejoin: miter"/>
    </g>
   </g>
   <g id="line2d_36">
    <path d="M 45.184375 115.32691 
L 61.716733 165.563749 
L 78.249091 204.082526 
L 94.781449 215.684567 
L 111.313807 232.507527 
L 127.846165 244.039956 
L 144.378523 253.43761 
L 160.910881 253.182365 
L 177.443239 255.061895 
L 193.975597 262.069528 
L 210.507955 256.059671 
L 227.040312 257.846385 
L 243.57267 259.493875 
L 260.105028 261.860692 
L 276.637386 260.25961 
L 293.169744 270.167753 
L 309.702102 268.659488 
L 326.23446 267.128018 
L 342.766818 263.415365 
L 359.299176 281.166488 
L 375.831534 293.951938 
L 392.363892 312.979286 
L 408.89625 325.231041 
L 425.428608 344.745675 
L 441.960966 354.143328 
L 458.493324 366.696737 
L 475.025682 368.483451 
L 491.55804 378.484411 
L 508.090398 378.414799 
L 524.622756 382.753962 
L 541.155114 386.164962 
L 557.687472 386.745065 
L 574.21983 385.677677 
L 590.752187 386.837881 
L 607.284545 388.067697 
L 623.816903 386.257779 
L 640.349261 388.787024 
L 656.881619 386.350595 
L 673.413977 388.206922 
L 689.946335 386.536228 
" clip-path="url(#pa188d97b64)" style="fill: none; stroke-dasharray: 5.55,2.4; stroke-dashoffset: 0; stroke: #a23b72; stroke-opacity: 0.7; stroke-width: 1.5"/>
    <defs>
     <path id="m0216810c82" d="M 0 1.5 
C 0.397805 1.5 0.77937 1.341951 1.06066 1.06066 
C 1.341951 0.77937 1.5 0.397805 1.5 0 
C 1.5 -0.397805 1.341951 -0.77937 1.06066 -1.06066 
C 0.77937 -1.341951 0.397805 -1.5 0 -1.5 
C -0.397805 -1.5 -0.77937 -1.341951 -1.06066 -1.06066 
C -1.341951 -0.77937 -1.5 -0.397805 -1.5 0 
C -1.5 0.397805 -1.341951 0.77937 -1.06066 1.06066 
C -0.77937 1.341951 -0.397805 1.5 0 1.5 
z
" style="stroke: #a23b72; stroke-opacity: 0.7"/>
    </defs>
    <g clip-path="url(#pa188d97b64)">
     <use xlink:href="#m0216810c82" x="45.184375" y="115.32691" style="fill: #a23b72; fill-opacity: 0.7; stroke: #a23b72; stroke-opacity: 0.7"/>
     <use xlink:href="#m0216810c82" x="78.249091" y="204.082526" style="fill: #a23b72; fill-opacity: 0.7; stroke: #a23b72; stroke-opacity: 0.7"/>
     <use xlink:href="#m0216810c82" x="111.313807" y="232.507527" style="fill: #a23b72; fill-opacity: 0.7; stroke: #a23b72; stroke-opacity: 0.7"/>
     <use xlink:href="#m0216810c82" x="144.378523" y="253.43761" style="fill: #a23b72; fill-opacity: 0.7; stroke: #a23b72; stroke-opacity: 0.7"/>
     <use xlink:href="#m0216810c82" x="177.443239" y="255.061895" style="fill: #a23b72; fill-opacity: 0.7; stroke: #a23b72; stroke-opacity: 0.7"/>
     <use xlink:href="#m0216810c82" x="210.507955" y="256.059671" style="fill: #a23b72; fill-opacity: 0.7; stroke: #a23b72; stroke-opacity: 0.7"/>
     <use xlink:href="#m0216810c82" x="243.57267" y="259.493875" style="fill: #a23b72; fill-opacity: 0.7; stroke: #a23b72; stroke-opacity: 0.7"/>
     <use xlink:href="#m0216810c82" x="276.637386" y="260.25961" style="fill: #a23b72; fill-opacity: 0.7; stroke: #a23b72; stroke-opacity: 0.7"/>
     <use xlink:href="#m0216810c82" x="309.702102" y="268.659488" style="fill: #a23b72; fill-opacity: 0.7; stroke: #a23b72; stroke-opacity: 0.7"/>
     <use xlink:href="#m0216810c82" x="342.766818" y="263.415365" style="fill: #a23b72; fill-opacity: 0.7; stroke: #a23b72; stroke-opacity: 0.7"/>
     <use xlink:href="#m0216810c82" x="375.831534" y="293.951938" style="fill: #a23b72; fill-opacity: 0.7; stroke: #a23b72; stroke-opacity: 0.7"/>
     <use xlink:href="#m0216810c82" x="408.89625" y="325.231041" style="fill: #a23b72; fill-opacity: 0.7; stroke: #a23b72; stroke-opacity: 0.7"/>
     <use xlink:href="#m0216810c82" x="441.960966" y="354.143328" style="fill: #a23b72; fill-opacity: 0.7; stroke: #a23b72; stroke-opacity: 0.7"/>
     <use xlink:href="#m0216810c82" x="475.025682" y="368.483451" style="fill: #a23b72; fill-opacity: 0.7; stroke: #a23b72; stroke-opacity: 0.7"/>
     <use xlink:href="#m0216810c82" x="508.090398" y="378.414799" style="fill: #a23b72; fill-opacity: 0.7; stroke: #a23b72; stroke-opacity: 0.7"/>
     <use xlink:href="#m0216810c82" x="541.155114" y="386.164962" style="fill: #a23b72; fill-opacity: 0.7; stroke: #a23b72; stroke-opacity: 0.7"/>
     <use xlink:href="#m0216810c82" x="574.21983" y="385.677677" style="fill: #a23b72; fill-opacity: 0.7; stroke: #a23b72; stroke-opacity: 0.7"/>
     <use xlink:href="#m0216810c82" x="607.284545" y="388.067697" style="fill: #a23b72; fill-opacity: 0.7; stroke: #a23b72; stroke-opacity: 0.7"/>
     <use xlink:href="#m0216810c82" x="640.349261" y="388.787024" style="fill: #a23b72; fill-opacity: 0.7; stroke: #a23b72; stroke-opacity: 0.7"/>
     <use xlink:href="#m0216810c82" x="673.413977" y="388.206922" style="fill: #a23b72; fill-opacity: 0.7; stroke: #a23b72; stroke-opacity: 0.7"/>
    </g>
   </g>
   <g id="line2d_37">
    <path d="M 367.565355 421.715937 
L 367.565355 30.629687 
" clip-path="url(#pa188d97b64)" style="fill: none; stroke-dasharray: 3.7,1.6; stroke-dashoffset: 0; stroke: #2e86ab; stroke-opacity: 0.4"/>
   </g>
   <g id="line2d_38">
    <path d="M 334.500639 421.715937 
L 334.500639 30.629687 
" clip-path="url(#pa188d97b64)" style="fill: none; stroke-dasharray: 3.7,1.6; stroke-dashoffset: 0; stroke: #a23b72; stroke-opacity: 0.4"/>
   </g>
   <g id="patch_3">
    <path d="M 45.184375 421.715937 
L 45.184375 30.629687 
" style="fill: none; stroke: #2c2c2c; stroke-width: 0.8; stroke-linejoin: miter; stroke-linecap: square"/>
   </g>
   <g id="patch_4">
    <path d="M 45.184375 421.715937 
L 772.608125 421.715937 
" style="fill: none; stroke: #2c2c2c; stroke-width: 0.8; stroke-linejoin: miter; stroke-linecap: square"/>
   </g>
   <g id="line2d_39">
    <path d="M 45.184375 50.077029 
L 61.716733 156.955034 
L 78.249091 204.848261 
L 94.781449 225.546302 
L 111.313807 242.601303 
L 127.846165 249.956997 
L 144.378523 261.51263 
L 160.910881 265.341304 
L 177.443239 266.292671 
L 193.975597 270.956692 
L 210.507955 275.968774 
L 227.040312 280.168713 
L 243.57267 280.655999 
L 260.105028 279.449386 
L 276.637386 283.27806 
L 293.169744 286.387407 
L 309.702102 278.405203 
L 326.23446 282.581937 
L 342.766818 289.98404 
L 359.299176 286.271387 
L 375.831534 285.853713 
L 392.363892 301.771714 
L 408.89625 317.991368 
L 425.428608 330.312735 
L 441.960966 338.387756 
L 458.493324 346.555593 
L 475.025682 358.134431 
L 491.55804 366.348676 
L 508.090398 372.776207 
L 524.622756 376.720901 
L 541.155114 384.888738 
L 557.687472 384.285432 
L 574.21983 389.111881 
L 590.752187 391.826759 
L 607.284545 395.609024 
L 623.816903 396.653208 
L 640.349261 400.783535 
L 656.881619 398.068657 
L 673.413977 397.7438 
L 689.946335 401.061984 
L 706.478693 401.294024 
L 723.011051 400.621106 
L 739.543409 400.922759 
L 756.075767 403.93929 
L 772.608125 402.338208 
" clip-path="url(#pa188d97b64)" style="fill: none; stroke: #2e86ab; stroke-width: 2; stroke-linecap: square"/>
    <defs>
     <path id="mbf7a7d6301" d="M -2 2 
L 2 2 
L 2 -2 
L -2 -2 
z
" style="stroke: #2e86ab; stroke-linejoin: miter"/>
    </defs>
    <g clip-path="url(#pa188d97b64)">
     <use xlink:href="#mbf7a7d6301" x="45.184375" y="50.077029" style="fill: #2e86ab; stroke: #2e86ab; stroke-linejoin: miter"/>
     <use xlink:href="#mbf7a7d6301" x="78.249091" y="204.848261" style="fill: #2e86ab; stroke: #2e86ab; stroke-linejoin: miter"/>
     <use xlink:href="#mbf7a7d6301" x="111.313807" y="242.601303" style="fill: #2e86ab; stroke: #2e86ab; stroke-linejoin: miter"/>
     <use xlink:href="#mbf7a7d6301" x="144.378523" y="261.51263" style="fill: #2e86ab; stroke: #2e86ab; stroke-linejoin: miter"/>
     <use xlink:href="#mbf7a7d6301" x="177.443239" y="266.292671" style="fill: #2e86ab; stroke: #2e86ab; stroke-linejoin: miter"/>
     <use xlink:href="#mbf7a7d6301" x="210.507955" y="275.968774" style="fill: #2e86ab; stroke: #2e86ab; stroke-linejoin: miter"/>
     <use xlink:href="#mbf7a7d6301" x="243.57267" y="280.655999" style="fill: #2e86ab; stroke: #2e86ab; stroke-linejoin: miter"/>
     <use xlink:href="#mbf7a7d6301" x="276.637386" y="283.27806" style="fill: #2e86ab; stroke: #2e86ab; stroke-linejoin: miter"/>
     <use xlink:href="#mbf7a7d6301" x="309.702102" y="278.405203" style="fill: #2e86ab; stroke: #2e86ab; stroke-linejoin: miter"/>
     <use xlink:href="#mbf7a7d6301" x="342.766818" y="289.98404" style="fill: #2e86ab; stroke: #2e86ab; stroke-linejoin: miter"/>
     <use xlink:href="#mbf7a7d6301" x="375.831534" y="285.853713" style="fill: #2e86ab; stroke: #2e86ab; stroke-linejoin: miter"/>
     <use xlink:href="#mbf7a7d6301" x="408.89625" y="317.991368" style="fill: #2e86ab; stroke: #2e86ab; stroke-linejoin: miter"/>
     <use xlink:href="#mbf7a7d6301" x="441.960966" y="338.387756" style="fill: #2e86ab; stroke: #2e86ab; stroke-linejoin: miter"/>
     <use xlink:href="#mbf7a7d6301" x="475.025682" y="358.134431" style="fill: #2e86ab; stroke: #2e86ab; stroke-linejoin: miter"/>
     <use xlink:href="#mbf7a7d6301" x="508.090398" y="372.776207" style="fill: #2e86ab; stroke: #2e86ab; stroke-linejoin: miter"/>
     <use xlink:href="#mbf7a7d6301" x="541.155114" y="384.888738" style="fill: #2e86ab; stroke: #2e86ab; stroke-linejoin: miter"/>
     <use xlink:href="#mbf7a7d6301" x="574.21983" y="389.111881" style="fill: #2e86ab; stroke: #2e86ab; stroke-linejoin: miter"/>
     <use xlink:href="#mbf7a7d6301" x="607.284545" y="395.609024" style="fill: #2e86ab; stroke: #2e86ab; stroke-linejoin: miter"/>
     <use xlink:href="#mbf7a7d6301" x="640.349261" y="400.783535" style="fill: #2e86ab; stroke: #2e86ab; stroke-linejoin: miter"/>
     <use xlink:href="#mbf7a7d6301" x="673.413977" y="397.7438" style="fill: #2e86ab; stroke: #2e86ab; stroke-linejoin: miter"/>
     <use xlink:href="#mbf7a7d6301" x="706.478693" y="401.294024" style="fill: #2e86ab; stroke: #2e86ab; stroke-linejoin: miter"/>
     <use xlink:href="#mbf7a7d6301" x="739.543409" y="400.922759" style="fill: #2e86ab; stroke: #2e86ab; stroke-linejoin: miter"/>
     <use xlink:href="#mbf7a7d6301" x="772.608125" y="402.338208" style="fill: #2e86ab; stroke: #2e86ab; stroke-linejoin: miter"/>
    </g>
   </g>
   <g id="line2d_40">
    <path d="M 45.184375 48.406335 
L 61.716733 149.645748 
L 78.249091 196.842852 
L 94.781449 216.218261 
L 111.313807 232.716364 
L 127.846165 237.937282 
L 144.378523 251.836528 
L 160.910881 253.739263 
L 177.443239 259.354651 
L 193.975597 264.854018 
L 210.507955 260.816508 
L 227.040312 267.847345 
L 243.57267 267.940161 
L 260.105028 273.114672 
L 276.637386 275.087019 
L 293.169744 277.105774 
L 309.702102 268.009774 
L 326.23446 276.154407 
L 342.766818 269.285998 
L 359.299176 277.825101 
L 375.831534 289.380734 
L 392.363892 306.505347 
L 408.89625 317.086408 
L 425.428608 334.443062 
L 441.960966 343.794308 
L 458.493324 350.80194 
L 475.025682 358.760941 
L 491.55804 364.283513 
L 508.090398 375.375064 
L 524.622756 375.931962 
L 541.155114 382.68435 
L 557.687472 384.099799 
L 574.21983 386.814677 
L 590.752187 390.434514 
L 607.284545 391.177044 
L 623.816903 393.961534 
L 640.349261 398.091861 
L 656.881619 396.235534 
L 673.413977 393.891922 
L 689.946335 400.435473 
" clip-path="url(#pa188d97b64)" style="fill: none; stroke: #a23b72; stroke-width: 2; stroke-linecap: square"/>
    <defs>
     <path id="mc1087f0942" d="M 0 2 
C 0.530406 2 1.03916 1.789267 1.414214 1.414214 
C 1.789267 1.03916 2 0.530406 2 0 
C 2 -0.530406 1.789267 -1.03916 1.414214 -1.414214 
C 1.03916 -1.789267 0.530406 -2 0 -2 
C -0.530406 -2 -1.03916 -1.789267 -1.414214 -1.414214 
C -1.789267 -1.03916 -2 -0.530406 -2 0 
C -2 0.530406 -1.789267 1.03916 -1.414214 1.414214 
C -1.03916 1.789267 -0.530406 2 0 2 
z
" style="stroke: #a23b72"/>
    </defs>
    <g clip-path="url(#pa188d97b64)">
     <use xlink:href="#mc1087f0942" x="45.184375" y="48.406335" style="fill: #a23b72; stroke: #a23b72"/>
     <use xlink:href="#mc1087f0942" x="78.249091" y="196.842852" style="fill: #a23b72; stroke: #a23b72"/>
     <use xlink:href="#mc1087f0942" x="111.313807" y="232.716364" style="fill: #a23b72; stroke: #a23b72"/>
     <use xlink:href="#mc1087f0942" x="144.378523" y="251.836528" style="fill: #a23b72; stroke: #a23b72"/>
     <use xlink:href="#mc1087f0942" x="177.443239" y="259.354651" style="fill: #a23b72; stroke: #a23b72"/>
     <use xlink:href="#mc1087f0942" x="210.507955" y="260.816508" style="fill: #a23b72; stroke: #a23b72"/>
     <use xlink:href="#mc1087f0942" x="243.57267" y="267.940161" style="fill: #a23b72; stroke: #a23b72"/>
     <use xlink:href="#mc1087f0942" x="276.637386" y="275.087019" style="fill: #a23b72; stroke: #a23b72"/>
     <use xlink:href="#mc1087f0942" x="309.702102" y="268.009774" style="fill: #a23b72; stroke: #a23b72"/>
     <use xlink:href="#mc1087f0942" x="342.766818" y="269.285998" style="fill: #a23b72; stroke: #a23b72"/>
     <use xlink:href="#mc1087f0942" x="375.831534" y="289.380734" style="fill: #a23b72; stroke: #a23b72"/>
     <use xlink:href="#mc1087f0942" x="408.89625" y="317.086408" style="fill: #a23b72; stroke: #a23b72"/>
     <use xlink:href="#mc1087f0942" x="441.960966" y="343.794308" style="fill: #a23b72; stroke: #a23b72"/>
     <use xlink:href="#mc1087f0942" x="475.025682" y="358.760941" style="fill: #a23b72; stroke: #a23b72"/>
     <use xlink:href="#mc1087f0942" x="508.090398" y="375.375064" style="fill: #a23b72; stroke: #a23b72"/>
     <use xlink:href="#mc1087f0942" x="541.155114" y="382.68435" style="fill: #a23b72; stroke: #a23b72"/>
     <use xlink:href="#mc1087f0942" x="574.21983" y="386.814677" style="fill: #a23b72; stroke: #a23b72"/>
     <use xlink:href="#mc1087f0942" x="607.284545" y="391.177044" style="fill: #a23b72; stroke: #a23b72"/>
     <use xlink:href="#mc1087f0942" x="640.349261" y="398.091861" style="fill: #a23b72; stroke: #a23b72"/>
     <use xlink:href="#mc1087f0942" x="673.413977" y="393.891922" style="fill: #a23b72; stroke: #a23b72"/>
    </g>
   </g>
   <g id="text_20">
    <!-- Stage 2 -->
    <g style="fill: #2e86ab; opacity: 0.7" transform="translate(381.456534 402.161625) rotate(-90) scale(0.08 -0.08)">
     <defs>
      <path id="SimHei-53" d="M 2900 1325 
Q 2900 750 2537 412 
Q 2175 75 1550 75 
Q 925 75 575 425 
Q 225 775 225 1300 
L 225 1475 
L 800 1475 
L 800 1325 
Q 800 950 1025 750 
Q 1250 550 1550 550 
Q 1950 550 2137 762 
Q 2325 975 2325 1275 
Q 2325 1525 2100 1737 
Q 1875 1950 1450 2125 
Q 850 2350 587 2625 
Q 325 2900 325 3275 
Q 325 3800 687 4125 
Q 1050 4450 1550 4450 
Q 2200 4450 2487 4062 
Q 2775 3675 2775 3225 
L 2200 3225 
Q 2225 3500 2050 3725 
Q 1875 3950 1550 3950 
Q 1250 3950 1075 3787 
Q 900 3625 900 3350 
Q 900 3125 1037 2962 
Q 1175 2800 1750 2575 
Q 2300 2350 2600 2037 
Q 2900 1725 2900 1325 
z
" transform="scale(0.015625)"/>
      <path id="SimHei-74" d="M 2750 200 
Q 2625 150 2462 112 
Q 2300 75 2025 75 
Q 1575 75 1300 325 
Q 1025 575 1025 1025 
L 1025 2525 
L 175 2525 
L 175 2925 
L 1025 2925 
L 1025 3900 
L 1525 3900 
L 1525 2925 
L 2550 2925 
L 2550 2525 
L 1525 2525 
L 1525 1000 
Q 1525 800 1625 662 
Q 1725 525 2000 525 
Q 2275 525 2450 575 
Q 2625 625 2750 700 
L 2750 200 
z
" transform="scale(0.015625)"/>
      <path id="SimHei-61" d="M 2875 125 
L 2275 125 
Q 2225 175 2200 262 
Q 2175 350 2175 475 
Q 2000 275 1750 175 
Q 1500 75 1225 75 
Q 825 75 550 275 
Q 275 475 275 850 
Q 275 1225 525 1450 
Q 775 1675 1300 1750 
Q 1650 1800 1912 1875 
Q 2175 1950 2175 2075 
Q 2175 2225 2062 2375 
Q 1950 2525 1575 2525 
Q 1275 2525 1137 2412 
Q 1000 2300 950 2100 
L 400 2100 
Q 450 2500 762 2737 
Q 1075 2975 1575 2975 
Q 2125 2975 2400 2725 
Q 2675 2475 2675 2025 
L 2675 650 
Q 2675 500 2725 375 
Q 2775 250 2875 125 
z
M 2175 1050 
L 2175 1550 
Q 2025 1500 1887 1462 
Q 1750 1425 1425 1375 
Q 1050 1325 937 1200 
Q 825 1075 825 900 
Q 825 750 937 637 
Q 1050 525 1275 525 
Q 1500 525 1762 650 
Q 2025 775 2175 1050 
z
" transform="scale(0.015625)"/>
      <path id="SimHei-67" d="M 2975 2500 
Q 2800 2550 2637 2562 
Q 2475 2575 2300 2525 
Q 2375 2450 2425 2337 
Q 2475 2225 2475 2000 
Q 2475 1575 2187 1300 
Q 1900 1025 1475 1025 
Q 1375 1025 1212 1062 
Q 1050 1100 950 1150 
Q 875 1100 850 1050 
Q 825 1000 825 925 
Q 825 800 1000 737 
Q 1175 675 1625 675 
Q 2350 675 2612 475 
Q 2875 275 2875 -25 
Q 2875 -425 2487 -612 
Q 2100 -800 1575 -800 
Q 900 -800 575 -625 
Q 250 -450 250 -150 
Q 250 0 375 150 
Q 500 300 700 400 
Q 550 475 462 587 
Q 375 700 375 875 
Q 375 1025 487 1137 
Q 600 1250 750 1325 
Q 625 1450 550 1625 
Q 475 1800 475 2000 
Q 475 2425 762 2700 
Q 1050 2975 1475 2975 
Q 1700 2975 1862 2912 
Q 2025 2850 2150 2725 
Q 2350 2875 2550 2937 
Q 2750 3000 2975 2975 
L 2975 2500 
z
M 1975 2000 
Q 1975 2250 1850 2400 
Q 1725 2550 1475 2550 
Q 1225 2550 1100 2400 
Q 975 2250 975 2000 
Q 975 1750 1100 1600 
Q 1225 1450 1475 1450 
Q 1725 1450 1850 1600 
Q 1975 1750 1975 2000 
z
M 2400 -75 
Q 2400 25 2287 125 
Q 2175 225 1725 225 
Q 1625 225 1450 237 
Q 1275 250 1050 275 
Q 850 200 775 100 
Q 700 0 700 -100 
Q 700 -250 900 -350 
Q 1100 -450 1600 -450 
Q 2025 -450 2212 -337 
Q 2400 -225 2400 -75 
z
" transform="scale(0.015625)"/>
      <path id="SimHei-65" d="M 2850 1075 
Q 2800 625 2450 350 
Q 2100 75 1625 75 
Q 1025 75 637 462 
Q 250 850 250 1525 
Q 250 2200 637 2587 
Q 1025 2975 1625 2975 
Q 2150 2975 2487 2637 
Q 2825 2300 2825 1525 
L 800 1525 
Q 800 975 1037 750 
Q 1275 525 1625 525 
Q 1900 525 2075 662 
Q 2250 800 2300 1075 
L 2850 1075 
z
M 2250 1925 
Q 2200 2275 2025 2412 
Q 1850 2550 1575 2550 
Q 1325 2550 1125 2412 
Q 925 2275 825 1925 
L 2250 1925 
z
" transform="scale(0.015625)"/>
     </defs>
     <use xlink:href="#SimHei-53"/>
     <use xlink:href="#SimHei-74" x="50"/>
     <use xlink:href="#SimHei-61" x="100"/>
     <use xlink:href="#SimHei-67" x="150"/>
     <use xlink:href="#SimHei-65" x="200"/>
     <use xlink:href="#SimHei-20" x="250"/>
     <use xlink:href="#SimHei-32" x="300"/>
    </g>
   </g>
   <g id="text_21">
    <!-- Stage 2 -->
    <g style="fill: #a23b72; opacity: 0.7" transform="translate(348.391818 402.161625) rotate(-90) scale(0.08 -0.08)">
     <use xlink:href="#SimHei-53"/>
     <use xlink:href="#SimHei-74" x="50"/>
     <use xlink:href="#SimHei-61" x="100"/>
     <use xlink:href="#SimHei-67" x="150"/>
     <use xlink:href="#SimHei-65" x="200"/>
     <use xlink:href="#SimHei-20" x="250"/>
     <use xlink:href="#SimHei-32" x="300"/>
    </g>
   </g>
   <g id="text_22">
    <!-- 训练损失收敛曲线对比 -->
    <g style="fill: #2c2c2c" transform="translate(338.89625 18.629687) scale(0.14 -0.14)">
     <defs>
      <path id="SimHei-6536" d="M 4250 5050 
Q 4125 4850 3750 4050 
L 5150 4050 
Q 5675 4050 6125 4075 
L 6125 3600 
Q 5675 3625 5300 3625 
Q 5225 2625 5025 1975 
Q 4825 1325 4575 900 
Q 4900 500 5287 275 
Q 5675 50 6200 -75 
Q 5900 -275 5800 -550 
Q 5300 -350 4950 -100 
Q 4600 150 4275 525 
Q 3800 0 2775 -625 
Q 2650 -425 2300 -225 
Q 3275 150 3950 925 
Q 3775 1325 3612 1787 
Q 3450 2250 3250 3000 
Q 2975 2450 2825 2275 
Q 2650 2400 2425 2525 
Q 2775 3025 3137 3837 
Q 3500 4650 3625 5250 
Q 3925 5125 4250 5050 
z
M 975 4275 
Q 925 3950 925 3450 
L 925 1575 
L 1775 1725 
L 1775 4425 
Q 1775 4775 1750 5150 
L 2250 5150 
Q 2225 4850 2225 4450 
L 2225 300 
Q 2225 -50 2250 -550 
L 1750 -550 
Q 1775 -25 1775 350 
L 1775 1350 
Q 625 1050 500 925 
Q 375 1125 225 1350 
Q 450 1475 450 1800 
L 450 3575 
Q 450 3925 425 4275 
L 975 4275 
z
M 3725 3150 
Q 3800 2700 3962 2212 
Q 4125 1725 4300 1375 
Q 4725 2150 4825 3625 
L 3575 3625 
Q 3400 3275 3300 3100 
L 3725 3150 
z
" transform="scale(0.015625)"/>
      <path id="SimHei-655b" d="M 3525 2325 
Q 3375 2500 3125 2675 
Q 3525 3150 3775 3837 
Q 4025 4525 4125 5175 
Q 4350 5100 4700 5000 
Q 4625 4975 4537 4712 
Q 4450 4450 4300 4025 
L 5600 4025 
Q 5825 4025 6100 4050 
L 6100 3575 
Q 5725 3600 5525 3600 
Q 5450 2850 5325 2162 
Q 5200 1475 4900 800 
Q 5350 250 6200 -50 
Q 5975 -275 5850 -575 
Q 5050 -75 4625 425 
Q 4100 -200 3250 -675 
Q 3100 -350 2925 -175 
Q 3750 75 4325 775 
Q 4075 1225 3900 1687 
Q 3725 2150 3650 2550 
L 3525 2325 
z
M 2975 2925 
Q 2650 2950 2075 2950 
Q 1450 2950 1175 2925 
L 1175 3325 
Q 900 3000 575 2750 
Q 425 2975 175 3125 
Q 750 3525 1237 4187 
Q 1725 4850 1875 5275 
Q 2175 5100 2400 5000 
Q 2325 4900 2200 4700 
Q 2875 4300 3525 3850 
Q 3325 3575 3175 3375 
Q 2950 3625 2612 3900 
Q 2275 4175 1975 4375 
Q 1650 3925 1225 3375 
Q 1500 3350 2075 3350 
Q 2650 3350 2975 3375 
L 2975 2925 
z
M 3325 2450 
Q 3175 2250 3050 1725 
Q 2925 1200 2775 625 
Q 3075 675 3475 775 
Q 3400 575 3450 325 
Q 2300 150 1600 0 
Q 900 -150 725 -250 
Q 650 75 550 325 
Q 1125 350 2325 550 
Q 2475 1125 2600 1725 
Q 2725 2325 2750 2600 
Q 3000 2525 3325 2450 
z
M 3925 3000 
Q 4050 2500 4262 1925 
Q 4475 1350 4600 1175 
Q 4825 1725 4925 2287 
Q 5025 2850 5075 3600 
L 4175 3600 
Q 4100 3375 3925 3000 
z
M 1025 2350 
Q 1275 1625 1450 925 
Q 1200 850 1000 775 
Q 725 1875 575 2175 
Q 825 2250 1025 2350 
z
M 2000 2525 
Q 2150 1975 2275 1250 
Q 2050 1225 1825 1150 
Q 1775 1525 1575 2425 
Q 1775 2475 2000 2525 
z
" transform="scale(0.015625)"/>
      <path id="SimHei-66f2" d="M 5825 500 
Q 5825 -200 5850 -550 
L 5275 -550 
L 5275 -50 
L 1150 -50 
L 1150 -550 
L 575 -550 
Q 600 125 600 550 
L 600 2775 
Q 600 3425 575 3900 
L 2150 3900 
L 2150 4450 
Q 2125 4850 2125 5150 
L 2700 5150 
Q 2650 4825 2650 4475 
L 2650 3900 
L 3700 3900 
L 3700 4525 
Q 3700 4850 3675 5175 
L 4250 5175 
Q 4225 4875 4225 4550 
L 4225 3900 
L 5850 3900 
Q 5825 3525 5825 2750 
L 5825 500 
z
M 3700 325 
L 3700 1875 
L 2650 1875 
L 2650 325 
L 3700 325 
z
M 5275 325 
L 5275 1875 
L 4225 1875 
L 4225 325 
L 5275 325 
z
M 2150 325 
L 2150 1875 
L 1150 1875 
L 1150 325 
L 2150 325 
z
M 3700 2250 
L 3700 3525 
L 2650 3525 
L 2650 2250 
L 3700 2250 
z
M 5275 2250 
L 5275 3525 
L 4225 3525 
L 4225 2250 
L 5275 2250 
z
M 2150 2250 
L 2150 3525 
L 1150 3525 
L 1150 2250 
L 2150 2250 
z
" transform="scale(0.015625)"/>
      <path id="SimHei-7ebf" d="M 3450 4300 
Q 3450 4675 3375 5125 
Q 3700 5100 4050 5050 
Q 3975 4900 3950 4562 
Q 3925 4225 3950 3600 
L 4800 3750 
Q 5225 3850 5650 3975 
L 5750 3500 
Q 5325 3450 4875 3375 
L 3975 3200 
Q 3975 2800 4025 2500 
L 5000 2675 
Q 5500 2775 5950 2925 
L 6025 2450 
Q 5575 2375 5075 2275 
L 4100 2100 
Q 4150 1600 4350 1175 
Q 4575 1350 4787 1575 
Q 5000 1800 5175 2075 
Q 5550 1775 5750 1675 
Q 5425 1525 5237 1337 
Q 5050 1150 4625 750 
Q 4925 250 5162 112 
Q 5400 -25 5500 100 
Q 5600 225 5675 625 
Q 5900 450 6200 350 
Q 5775 -750 5275 -537 
Q 4775 -325 4225 450 
Q 3875 175 3537 -62 
Q 3200 -300 2700 -550 
Q 2575 -300 2325 -100 
Q 2825 75 3175 275 
Q 3525 475 3975 850 
Q 3750 1350 3650 2025 
Q 2900 1900 2600 1800 
L 2525 2275 
Q 2825 2275 3550 2425 
Q 3500 2825 3500 3100 
Q 2825 2950 2575 2875 
L 2475 3350 
Q 2725 3350 3450 3500 
L 3450 4300 
z
M 1950 4875 
Q 1700 4650 1462 4237 
Q 1225 3825 825 3225 
Q 1425 3250 1650 3250 
Q 1875 3625 2050 4075 
Q 2300 3900 2600 3800 
Q 2350 3550 2087 3125 
Q 1825 2700 1175 1675 
Q 1850 1725 2375 1775 
Q 2300 1525 2300 1350 
Q 2125 1350 1525 1287 
Q 925 1225 550 1125 
Q 525 1375 400 1650 
Q 700 1725 950 2050 
Q 1200 2375 1475 2875 
Q 650 2825 425 2675 
Q 350 2950 200 3225 
Q 525 3450 825 3962 
Q 1125 4475 1375 5150 
Q 1625 4975 1950 4875 
z
M 2575 875 
Q 2550 600 2575 450 
Q 1950 325 1450 200 
Q 950 75 525 -75 
Q 450 200 250 475 
Q 950 550 1325 612 
Q 1700 675 2575 875 
z
M 4850 4025 
Q 4675 4300 4375 4675 
L 4775 4875 
Q 4875 4750 5275 4275 
Q 5025 4175 4850 4025 
z
" transform="scale(0.015625)"/>
      <path id="SimHei-5bf9" d="M 525 4250 
Q 900 4225 1400 4225 
L 2825 4225 
Q 2575 2625 2200 1750 
Q 2825 875 3125 400 
Q 2950 275 2725 75 
Q 2200 975 1950 1300 
Q 1650 775 1350 425 
Q 1050 75 600 -350 
Q 425 -125 200 -25 
Q 625 275 975 675 
Q 1325 1075 1650 1700 
Q 1050 2425 550 2900 
Q 700 3025 900 3225 
Q 1625 2425 1875 2150 
Q 2200 3050 2300 3825 
L 1400 3825 
Q 900 3825 525 3800 
L 525 4250 
z
M 2925 3700 
Q 3525 3675 3750 3675 
L 4825 3675 
L 4825 4425 
Q 4825 4750 4775 5125 
L 5350 5125 
Q 5325 4825 5325 4375 
L 5325 3675 
Q 5575 3675 6150 3700 
L 6150 3250 
Q 5575 3275 5325 3275 
L 5325 125 
Q 5350 -350 5012 -475 
Q 4675 -600 4250 -650 
Q 4175 -350 4025 -100 
Q 4575 -100 4712 -37 
Q 4850 25 4825 325 
L 4825 3275 
L 3775 3275 
Q 3550 3275 2925 3225 
L 2925 3700 
z
M 3450 2725 
Q 3875 1975 4175 1325 
Q 3850 1200 3700 1075 
Q 3475 1750 3050 2475 
Q 3225 2550 3450 2725 
z
" transform="scale(0.015625)"/>
      <path id="SimHei-6bd4" d="M 3775 5100 
Q 3750 4575 3750 4100 
L 3750 3050 
Q 4925 3600 5475 4175 
Q 5675 3900 5900 3675 
Q 5600 3500 5037 3187 
Q 4475 2875 3750 2550 
L 3750 450 
Q 3750 100 4050 100 
L 5000 100 
Q 5175 100 5262 250 
Q 5350 400 5450 900 
Q 5650 775 6025 675 
Q 5850 0 5650 -175 
Q 5450 -350 5225 -350 
L 3900 -350 
Q 3250 -350 3250 275 
L 3250 4000 
Q 3250 4550 3225 5100 
L 3775 5100 
z
M 1275 4975 
Q 1250 4575 1250 4000 
L 1250 3150 
L 1850 3150 
Q 2325 3150 2875 3175 
L 2875 2650 
Q 2325 2675 1850 2675 
L 1250 2675 
L 1250 475 
Q 1650 650 1962 812 
Q 2275 975 2850 1275 
Q 2900 950 2950 750 
Q 2375 475 1762 175 
Q 1150 -125 925 -325 
Q 750 -100 575 200 
Q 700 300 750 600 
L 750 3950 
Q 750 4550 725 4975 
L 1275 4975 
z
" transform="scale(0.015625)"/>
     </defs>
     <use xlink:href="#SimHei-8bad"/>
     <use xlink:href="#SimHei-7ec3" x="100"/>
     <use xlink:href="#SimHei-635f" x="200"/>
     <use xlink:href="#SimHei-5931" x="300"/>
     <use xlink:href="#SimHei-6536" x="400"/>
     <use xlink:href="#SimHei-655b" x="500"/>
     <use xlink:href="#SimHei-66f2" x="600"/>
     <use xlink:href="#SimHei-7ebf" x="700"/>
     <use xlink:href="#SimHei-5bf9" x="800"/>
     <use xlink:href="#SimHei-6bd4" x="900"/>
    </g>
   </g>
   <g id="legend_1">
    <g id="patch_5">
     <path d="M 621.608125 95.817187 
L 767.608125 95.817187 
L 767.608125 35.629687 
L 621.608125 35.629687 
z
" style="fill: #ffffff; opacity: 0.8; stroke: #cccccc; stroke-linejoin: miter"/>
    </g>
    <g id="line2d_41">
     <path d="M 625.608125 44.098437 
L 635.608125 44.098437 
L 645.608125 44.098437 
" style="fill: none; stroke: #2e86ab; stroke-width: 2; stroke-linecap: square"/>
     <g>
      <use xlink:href="#mbf7a7d6301" x="635.608125" y="44.098437" style="fill: #2e86ab; stroke: #2e86ab; stroke-linejoin: miter"/>
     </g>
    </g>
    <g id="text_23">
     <!-- YOLOv8 ROI提取 (Train) -->
     <g style="fill: #2c2c2c" transform="translate(653.608125 47.598437) scale(0.1 -0.1)">
      <defs>
       <path id="SimHei-59" d="M 3025 4400 
L 1850 2050 
L 1850 125 
L 1275 125 
L 1275 2050 
L 100 4400 
L 675 4400 
L 1550 2575 
L 1575 2575 
L 2450 4400 
L 3025 4400 
z
" transform="scale(0.015625)"/>
       <path id="SimHei-4f" d="M 2950 2275 
Q 2950 1100 2587 587 
Q 2225 75 1575 75 
Q 925 75 550 587 
Q 175 1100 175 2275 
Q 175 3450 550 3950 
Q 925 4450 1575 4450 
Q 2225 4450 2587 3950 
Q 2950 3450 2950 2275 
z
M 2350 2275 
Q 2350 3325 2125 3650 
Q 1900 3975 1575 3975 
Q 1250 3975 1012 3650 
Q 775 3325 775 2275 
Q 775 1225 1012 887 
Q 1250 550 1575 550 
Q 1900 550 2125 887 
Q 2350 1225 2350 2275 
z
" transform="scale(0.015625)"/>
       <path id="SimHei-76" d="M 2875 2925 
L 1825 75 
L 1275 75 
L 225 2925 
L 750 2925 
L 1525 750 
L 1575 750 
L 2350 2925 
L 2875 2925 
z
" transform="scale(0.015625)"/>
       <path id="SimHei-52" d="M 3000 125 
L 2400 125 
L 1500 1975 
L 850 1975 
L 850 125 
L 275 125 
L 275 4400 
L 1525 4400 
Q 2125 4400 2500 4112 
Q 2875 3825 2875 3175 
Q 2875 2675 2625 2400 
Q 2375 2125 2050 2050 
L 3000 125 
z
M 2300 3175 
Q 2300 3525 2087 3725 
Q 1875 3925 1400 3925 
L 850 3925 
L 850 2450 
L 1550 2450 
Q 1850 2450 2075 2612 
Q 2300 2775 2300 3175 
z
" transform="scale(0.015625)"/>
       <path id="SimHei-49" d="M 1850 125 
L 1275 125 
L 1275 4400 
L 1850 4400 
L 1850 125 
z
" transform="scale(0.015625)"/>
       <path id="SimHei-63d0" d="M 5600 5025 
Q 5575 4625 5575 3900 
Q 5575 3200 5600 2825 
L 2750 2825 
Q 2775 3325 2775 3900 
Q 2775 4500 2750 5025 
L 5600 5025 
z
M 5250 2375 
Q 5675 2375 6075 2400 
L 6075 1950 
Q 5700 1975 5275 1975 
L 4400 1975 
L 4400 1275 
L 4775 1275 
Q 5225 1275 5625 1300 
L 5625 850 
Q 5225 875 4800 875 
L 4400 875 
L 4400 75 
Q 4675 25 5150 25 
Q 5625 25 6150 100 
Q 6050 -75 5950 -450 
Q 5200 -450 4650 -437 
Q 4100 -425 3700 -250 
Q 3300 -75 2950 250 
Q 2725 -225 2200 -650 
Q 2025 -450 1775 -325 
Q 2300 0 2537 562 
Q 2775 1125 2775 1675 
Q 3075 1550 3325 1525 
Q 3250 1375 3125 725 
Q 3450 300 3925 175 
L 3925 1975 
L 3375 1975 
Q 2850 1975 2350 1950 
L 2350 2400 
Q 2850 2375 3400 2375 
L 5250 2375 
z
M 1125 4475 
Q 1125 4900 1100 5200 
L 1625 5200 
Q 1600 4925 1600 4500 
L 1600 3825 
Q 1975 3825 2350 3850 
L 2350 3400 
Q 1975 3425 1600 3425 
L 1600 2300 
Q 1925 2475 2175 2625 
Q 2175 2425 2200 2175 
Q 1975 2050 1600 1850 
L 1600 0 
Q 1550 -350 1350 -437 
Q 1150 -525 650 -575 
Q 650 -275 500 0 
Q 875 -25 1000 0 
Q 1125 25 1125 225 
L 1125 1675 
Q 825 1550 425 1300 
Q 325 1625 200 1800 
Q 650 1900 1125 2125 
L 1125 3425 
Q 675 3425 350 3400 
L 350 3850 
Q 675 3825 1125 3825 
L 1125 4475 
z
M 5125 3225 
L 5125 3725 
L 3225 3725 
L 3225 3225 
L 5125 3225 
z
M 5125 4150 
L 5125 4600 
L 3225 4600 
L 3225 4150 
L 5125 4150 
z
" transform="scale(0.015625)"/>
       <path id="SimHei-53d6" d="M 2650 4875 
Q 3075 4875 3375 4900 
L 3375 4475 
Q 3175 4500 2975 4500 
L 2975 1125 
Q 3250 1200 3600 1300 
L 3600 875 
Q 3275 800 2975 725 
Q 2975 -250 3000 -700 
L 2500 -700 
Q 2525 -325 2525 625 
Q 1925 500 1425 325 
Q 925 150 575 -25 
L 375 550 
L 925 650 
L 925 4500 
Q 725 4500 425 4475 
L 425 4900 
Q 750 4875 1300 4875 
L 2650 4875 
z
M 3175 -125 
Q 3500 75 3762 362 
Q 4025 650 4350 1150 
Q 3975 1850 3862 2575 
Q 3750 3300 3700 4250 
L 3500 4250 
L 3500 4675 
Q 4000 4650 4400 4650 
L 5800 4650 
Q 5700 3425 5512 2625 
Q 5325 1825 4925 1150 
Q 5125 800 5462 500 
Q 5800 200 6200 -25 
Q 5950 -200 5775 -450 
Q 5250 -100 4650 725 
Q 4200 0 3625 -500 
Q 3475 -300 3175 -125 
z
M 4150 4250 
Q 4225 3250 4287 2750 
Q 4350 2250 4625 1600 
Q 5025 2425 5137 3137 
Q 5250 3850 5275 4250 
L 4150 4250 
z
M 2525 3450 
L 2525 4500 
L 1375 4500 
L 1375 3450 
L 2525 3450 
z
M 1375 750 
Q 1975 875 2525 1000 
L 2525 1800 
L 1375 1800 
L 1375 750 
z
M 2525 2200 
L 2525 3075 
L 1375 3075 
L 1375 2200 
L 2525 2200 
z
" transform="scale(0.015625)"/>
       <path id="SimHei-54" d="M 2850 3925 
L 1850 3925 
L 1850 125 
L 1275 125 
L 1275 3925 
L 275 3925 
L 275 4400 
L 2850 4400 
L 2850 3925 
z
" transform="scale(0.015625)"/>
       <path id="SimHei-72" d="M 2500 2425 
Q 2025 2500 1700 2287 
Q 1375 2075 1150 1550 
L 1150 125 
L 650 125 
L 650 2925 
L 1150 2925 
L 1150 2200 
Q 1375 2600 1712 2787 
Q 2050 2975 2500 2975 
L 2500 2425 
z
" transform="scale(0.015625)"/>
       <path id="SimHei-69" d="M 1800 3725 
L 1300 3725 
L 1300 4375 
L 1800 4375 
L 1800 3725 
z
M 1800 125 
L 1300 125 
L 1300 2925 
L 1800 2925 
L 1800 125 
z
" transform="scale(0.015625)"/>
       <path id="SimHei-6e" d="M 2800 125 
L 2300 125 
L 2300 1925 
Q 2300 2225 2150 2400 
Q 2000 2575 1750 2575 
Q 1425 2575 1137 2237 
Q 850 1900 850 1400 
L 850 125 
L 350 125 
L 350 2925 
L 850 2925 
L 850 2400 
Q 1050 2675 1287 2825 
Q 1525 2975 1900 2975 
Q 2350 2975 2575 2725 
Q 2800 2475 2800 2100 
L 2800 125 
z
" transform="scale(0.015625)"/>
      </defs>
      <use xlink:href="#SimHei-59"/>
      <use xlink:href="#SimHei-4f" x="50"/>
      <use xlink:href="#SimHei-4c" x="100"/>
      <use xlink:href="#SimHei-4f" x="150"/>
      <use xlink:href="#SimHei-76" x="200"/>
      <use xlink:href="#SimHei-38" x="250"/>
      <use xlink:href="#SimHei-20" x="300"/>
      <use xlink:href="#SimHei-52" x="350"/>
      <use xlink:href="#SimHei-4f" x="400"/>
      <use xlink:href="#SimHei-49" x="450"/>
      <use xlink:href="#SimHei-63d0" x="500"/>
      <use xlink:href="#SimHei-53d6" x="600"/>
      <use xlink:href="#SimHei-20" x="700"/>
      <use xlink:href="#SimHei-28" x="750"/>
      <use xlink:href="#SimHei-54" x="800"/>
      <use xlink:href="#SimHei-72" x="850"/>
      <use xlink:href="#SimHei-61" x="900"/>
      <use xlink:href="#SimHei-69" x="950"/>
      <use xlink:href="#SimHei-6e" x="1000"/>
      <use xlink:href="#SimHei-29" x="1050"/>
     </g>
    </g>
    <g id="line2d_42">
     <path d="M 625.608125 58.317187 
L 635.608125 58.317187 
L 645.608125 58.317187 
" style="fill: none; stroke-dasharray: 5.55,2.4; stroke-dashoffset: 0; stroke: #2e86ab; stroke-opacity: 0.7; stroke-width: 1.5"/>
     <g>
      <use xlink:href="#mdc243ddf29" x="635.608125" y="58.317187" style="fill: #2e86ab; fill-opacity: 0.7; stroke: #2e86ab; stroke-opacity: 0.7; stroke-linejoin: miter"/>
     </g>
    </g>
    <g id="text_24">
     <!-- YOLOv8 ROI提取 (Val) -->
     <g style="fill: #2c2c2c" transform="translate(653.608125 61.817187) scale(0.1 -0.1)">
      <defs>
       <path id="SimHei-56" d="M 3050 4400 
L 1800 75 
L 1300 75 
L 50 4400 
L 650 4400 
L 1525 1125 
L 1575 1125 
L 2450 4400 
L 3050 4400 
z
" transform="scale(0.015625)"/>
       <path id="SimHei-6c" d="M 1825 125 
L 1325 125 
L 1325 4400 
L 1825 4400 
L 1825 125 
z
" transform="scale(0.015625)"/>
      </defs>
      <use xlink:href="#SimHei-59"/>
      <use xlink:href="#SimHei-4f" x="50"/>
      <use xlink:href="#SimHei-4c" x="100"/>
      <use xlink:href="#SimHei-4f" x="150"/>
      <use xlink:href="#SimHei-76" x="200"/>
      <use xlink:href="#SimHei-38" x="250"/>
      <use xlink:href="#SimHei-20" x="300"/>
      <use xlink:href="#SimHei-52" x="350"/>
      <use xlink:href="#SimHei-4f" x="400"/>
      <use xlink:href="#SimHei-49" x="450"/>
      <use xlink:href="#SimHei-63d0" x="500"/>
      <use xlink:href="#SimHei-53d6" x="600"/>
      <use xlink:href="#SimHei-20" x="700"/>
      <use xlink:href="#SimHei-28" x="750"/>
      <use xlink:href="#SimHei-56" x="800"/>
      <use xlink:href="#SimHei-61" x="850"/>
      <use xlink:href="#SimHei-6c" x="900"/>
      <use xlink:href="#SimHei-29" x="950"/>
     </g>
    </g>
    <g id="line2d_43">
     <path d="M 625.608125 72.692187 
L 635.608125 72.692187 
L 645.608125 72.692187 
" style="fill: none; stroke: #a23b72; stroke-width: 2; stroke-linecap: square"/>
     <g>
      <use xlink:href="#mc1087f0942" x="635.608125" y="72.692187" style="fill: #a23b72; stroke: #a23b72"/>
     </g>
    </g>
    <g id="text_25">
     <!-- 中心裁剪 (Train) -->
     <g style="fill: #2c2c2c" transform="translate(653.608125 76.192187) scale(0.1 -0.1)">
      <defs>
       <path id="SimHei-4e2d" d="M 3475 5200 
Q 3450 4500 3450 3875 
L 5625 3875 
Q 5600 3375 5600 2500 
Q 5600 1650 5625 1225 
L 5075 1225 
L 5075 1600 
L 3450 1600 
L 3450 525 
Q 3450 225 3475 -600 
L 2875 -600 
Q 2925 -150 2925 450 
L 2925 1600 
L 1300 1600 
L 1300 1225 
L 750 1225 
Q 775 1600 775 2500 
Q 775 3425 750 3875 
L 2925 3875 
Q 2925 4550 2900 5200 
L 3475 5200 
z
M 5075 2000 
L 5075 3475 
L 3450 3475 
L 3450 2000 
L 5075 2000 
z
M 2925 2000 
L 2925 3475 
L 1300 3475 
L 1300 2000 
L 2925 2000 
z
" transform="scale(0.015625)"/>
       <path id="SimHei-5fc3" d="M 2700 3425 
Q 2675 3125 2675 2525 
L 2675 375 
Q 2675 75 2975 75 
L 4150 75 
Q 4425 50 4512 212 
Q 4600 375 4650 950 
Q 4900 750 5225 675 
Q 5050 -125 4875 -287 
Q 4700 -450 4450 -425 
L 2625 -425 
Q 2175 -425 2125 125 
L 2125 2500 
Q 2125 3000 2100 3425 
L 2700 3425 
z
M 1475 3075 
Q 1400 2925 1275 2287 
Q 1150 1650 925 750 
Q 625 850 325 900 
Q 675 1900 850 3200 
Q 1075 3150 1475 3075 
z
M 5075 3300 
Q 5650 2500 6175 1700 
Q 5900 1575 5650 1350 
Q 5125 2350 4625 3000 
Q 4850 3125 5075 3300 
z
M 3050 5250 
Q 3325 4775 3925 3925 
Q 3625 3775 3375 3600 
Q 2975 4425 2600 4950 
Q 2825 5075 3050 5250 
z
" transform="scale(0.015625)"/>
       <path id="SimHei-88c1" d="M 1825 4475 
Q 1825 4950 1800 5250 
L 2325 5250 
Q 2275 4925 2275 4475 
L 2550 4475 
Q 2950 4475 3300 4500 
L 3300 4050 
Q 2950 4075 2575 4075 
L 2275 4075 
L 2275 3525 
L 3775 3525 
Q 3750 3825 3750 4225 
Q 3750 4625 3725 5250 
Q 3975 5225 4325 5175 
Q 4250 5025 4237 4500 
Q 4225 3975 4250 3525 
L 5275 3525 
Q 5725 3525 6125 3550 
L 6125 3100 
Q 5750 3125 5275 3125 
L 4275 3125 
Q 4275 2875 4362 2325 
Q 4450 1775 4650 1350 
Q 4800 1625 4950 1975 
Q 5100 2325 5200 2750 
Q 5450 2600 5750 2475 
Q 5550 2250 5375 1837 
Q 5200 1425 4875 800 
Q 5150 325 5300 150 
Q 5450 -25 5550 112 
Q 5650 250 5725 625 
Q 5925 350 6175 250 
Q 5900 -425 5712 -562 
Q 5525 -700 5350 -587 
Q 5175 -475 4987 -212 
Q 4800 50 4575 400 
Q 4325 100 4012 -175 
Q 3700 -450 3350 -675 
Q 3200 -450 2950 -325 
Q 3400 -100 3750 200 
Q 4100 500 4325 875 
Q 4075 1525 3962 2050 
Q 3850 2575 3800 3125 
L 1275 3125 
Q 650 3125 275 3100 
L 275 3550 
Q 775 3525 1325 3525 
L 1825 3525 
L 1825 4075 
L 1575 4075 
Q 1125 4075 725 4050 
L 725 4500 
Q 1150 4475 1550 4475 
L 1825 4475 
z
M 2275 3025 
Q 2375 2675 2450 2400 
L 2900 2400 
Q 3200 2400 3600 2450 
L 3600 1975 
Q 3275 2000 2900 2000 
L 2225 2000 
Q 2100 1825 1950 1550 
L 1950 225 
Q 2150 400 2450 600 
Q 2500 375 2625 175 
Q 2475 75 2137 -162 
Q 1800 -400 1625 -600 
Q 1425 -400 1275 -225 
Q 1500 -100 1500 225 
L 1500 1100 
Q 1200 700 650 250 
Q 500 475 275 625 
Q 675 875 1037 1225 
Q 1400 1575 1675 2000 
L 1275 2000 
Q 975 2000 425 1975 
L 425 2425 
Q 875 2400 1300 2400 
L 1950 2400 
Q 1925 2575 1800 2950 
Q 2050 2975 2275 3025 
z
M 3675 1500 
Q 3475 1450 3150 1125 
Q 3400 900 3725 500 
Q 3525 375 3325 175 
Q 3050 550 2750 875 
Q 2450 1200 2150 1425 
L 2450 1725 
Q 2675 1525 2875 1350 
Q 3100 1600 3300 1875 
L 3675 1500 
z
M 5000 5125 
Q 5325 4850 5850 4200 
Q 5675 4100 5450 3875 
Q 5175 4275 4675 4850 
Q 4825 4950 5000 5125 
z
" transform="scale(0.015625)"/>
       <path id="SimHei-526a" d="M 2400 1900 
Q 2700 1900 2800 1925 
Q 2900 1950 2900 2025 
L 2900 2150 
L 1375 2150 
L 1375 1575 
L 900 1575 
Q 925 1825 925 2150 
L 925 3100 
Q 925 3450 900 3750 
L 3325 3750 
L 3325 2050 
Q 3350 1675 3125 1600 
Q 2900 1525 2550 1475 
Q 2500 1675 2400 1900 
z
M 4050 -575 
Q 3950 -275 3825 -50 
Q 4625 -25 4712 37 
Q 4800 100 4825 350 
L 4875 875 
L 3050 875 
Q 2875 350 2575 87 
Q 2275 -175 1900 -350 
Q 1525 -525 900 -700 
Q 825 -450 625 -225 
Q 1375 -125 1887 125 
Q 2400 375 2550 875 
L 1850 875 
Q 1325 875 775 850 
L 775 1300 
Q 1325 1275 1875 1275 
L 5425 1275 
L 5300 225 
Q 5250 -175 5075 -312 
Q 4900 -450 4050 -575 
z
M 4525 4800 
Q 4400 4675 4250 4475 
L 4800 4475 
Q 5450 4475 6025 4500 
L 6025 4075 
Q 5450 4100 4800 4100 
L 2175 4100 
Q 1450 4100 375 4075 
L 375 4500 
Q 1450 4475 2150 4475 
L 3750 4475 
Q 3900 4675 4037 4887 
Q 4175 5100 4250 5275 
Q 4475 5150 4750 5025 
L 4525 4800 
z
M 5475 3875 
Q 5450 3625 5450 3150 
L 5450 2000 
Q 5450 1650 5200 1587 
Q 4950 1525 4650 1475 
Q 4600 1700 4500 1950 
Q 4775 1950 4900 1975 
Q 5025 2000 5000 2175 
L 5000 3150 
Q 5000 3525 4975 3875 
L 5475 3875 
z
M 4300 3625 
Q 4275 3400 4275 3150 
L 4275 2400 
Q 4275 2225 4300 1975 
L 3850 1975 
Q 3875 2225 3875 2425 
L 3875 3175 
Q 3875 3425 3850 3625 
L 4300 3625 
z
M 2900 3100 
L 2900 3400 
L 1375 3400 
L 1375 3100 
L 2900 3100 
z
M 2900 2475 
L 2900 2750 
L 1375 2750 
L 1375 2475 
L 2900 2475 
z
M 2450 4800 
Q 2275 4675 2125 4500 
Q 1925 4725 1600 5000 
Q 1800 5175 1900 5300 
Q 2375 4850 2450 4800 
z
" transform="scale(0.015625)"/>
      </defs>
      <use xlink:href="#SimHei-4e2d"/>
      <use xlink:href="#SimHei-5fc3" x="100"/>
      <use xlink:href="#SimHei-88c1" x="200"/>
      <use xlink:href="#SimHei-526a" x="300"/>
      <use xlink:href="#SimHei-20" x="400"/>
      <use xlink:href="#SimHei-28" x="450"/>
      <use xlink:href="#SimHei-54" x="500"/>
      <use xlink:href="#SimHei-72" x="550"/>
      <use xlink:href="#SimHei-61" x="600"/>
      <use xlink:href="#SimHei-69" x="650"/>
      <use xlink:href="#SimHei-6e" x="700"/>
      <use xlink:href="#SimHei-29" x="750"/>
     </g>
    </g>
    <g id="line2d_44">
     <path d="M 625.608125 87.067187 
L 635.608125 87.067187 
L 645.608125 87.067187 
" style="fill: none; stroke-dasharray: 5.55,2.4; stroke-dashoffset: 0; stroke: #a23b72; stroke-opacity: 0.7; stroke-width: 1.5"/>
     <g>
      <use xlink:href="#m0216810c82" x="635.608125" y="87.067187" style="fill: #a23b72; fill-opacity: 0.7; stroke: #a23b72; stroke-opacity: 0.7"/>
     </g>
    </g>
    <g id="text_26">
     <!-- 中心裁剪 (Val) -->
     <g style="fill: #2c2c2c" transform="translate(653.608125 90.567187) scale(0.1 -0.1)">
      <use xlink:href="#SimHei-4e2d"/>
      <use xlink:href="#SimHei-5fc3" x="100"/>
      <use xlink:href="#SimHei-88c1" x="200"/>
      <use xlink:href="#SimHei-526a" x="300"/>
      <use xlink:href="#SimHei-20" x="400"/>
      <use xlink:href="#SimHei-28" x="450"/>
      <use xlink:href="#SimHei-56" x="500"/>
      <use xlink:href="#SimHei-61" x="550"/>
      <use xlink:href="#SimHei-6c" x="600"/>
      <use xlink:href="#SimHei-29" x="650"/>
     </g>
    </g>
   </g>
  </g>
 </g>
 <defs>
  <clipPath id="pa188d97b64">
   <rect x="45.184375" y="30.629687" width="727.42375" height="391.08625"/>
  </clipPath>
 </defs>
</svg>
